*
*
G04 PADS Layout (Build Number 2007.42.1) generated Gerber (RS-274-X) file*
G04 PC Version=2.1*
*
%IN "MCA.pcb"*%
*
%MOIN*%
*
%FSLAX35Y35*%
*
*
*
*
G04 PC Standard Apertures*
*
*
G04 Thermal Relief Aperture macro.*
%AMTER*
1,1,$1,0,0*
1,0,$1-$2,0,0*
21,0,$3,$4,0,0,45*
21,0,$3,$4,0,0,135*
%
*
*
G04 Annular Aperture macro.*
%AMANN*
1,1,$1,0,0*
1,0,$2,0,0*
%
*
*
G04 Odd Aperture macro.*
%AMODD*
1,1,$1,0,0*
1,0,$1-0.005,0,0*
%
*
*
G04 PC Custom Aperture Macros*
*
*
*
*
*
*
G04 PC Aperture Table*
*
%ADD010C,0.01*%
%ADD011C,0.012*%
%ADD014R,0.06X0.05*%
%ADD015R,0.05X0.06*%
%ADD016C,0.06*%
%ADD017R,0.06X0.06*%
%ADD022R,0.08X0.08*%
%ADD023C,0.08*%
%ADD030C,0.035*%
%ADD031C,0.015*%
%ADD034C,0.02*%
%ADD035C,0.024*%
%ADD053R,0.09X0.09*%
%ADD064R,0.12X0.12*%
%ADD065C,0.12*%
%ADD079R,0.01378X0.01378*%
%ADD085R,0.012X0.012*%
%ADD086C,0.013*%
*
*
*
*
G04 PC Copper Outlines (0)*
G04 Layer Name MCA.pcb - dark (0)*
%LPD*%
*
*
G04 PC Area=DRW61402892*
G75*
G36*
G01*
X343250Y483250D02*
X330750D01*
Y434689D01*
X321750Y425689D01*
Y393750D01*
X343250D01*
Y483250D01*
G37*
G74*
*
*
G04 PC Copper Outlines (1)*
G04 Layer Name MCA.pcb - dark (1)*
%LPD*%
*
*
G04 PC Area=DRW27860889*
G75*
G36*
G01*
X388250Y452689D02*
X381689Y459250D01*
X370689D01*
X362250Y467689D01*
Y497250D01*
X307750D01*
Y451189D01*
X297750Y441189D01*
Y368689D01*
X290311Y361250D01*
X274311D01*
X269750Y356689D01*
Y344311D01*
X274311Y339750D01*
X308689D01*
X311250Y342311D01*
Y430311D01*
X322250Y441311D01*
Y489750D01*
X350750D01*
Y408311D01*
X357311Y401750D01*
X380689D01*
X388250Y409311D01*
Y452689D01*
G37*
G74*
*
*
G04 PC Copper Outlines (2)*
G04 Layer Name MCA.pcb - dark (2)*
%LPD*%
*
*
G04 PC Area=DRW9580638*
G75*
G36*
G01*
X287250Y409689D02*
X282689Y414250D01*
X270689D01*
X246250Y438689D01*
Y483689D01*
X241689Y488250D01*
X215311D01*
X209750Y482689D01*
Y428311D01*
X262311Y375750D01*
X287250D01*
Y409689D01*
G37*
G74*
*
*
G04 PC Copper Outlines (3)*
G04 Layer Name MCA.pcb - dark (3)*
%LPD*%
*
*
G04 PC Area=ANP000193*
G75*
G36*
G01*
X398450Y497700D02*
X398230Y498230D01*
X397700Y498450D01*
X365469D01*
X364938Y498230D01*
X364719Y497700D01*
X364750Y497250D01*
Y487874D01*
X365023Y487295D01*
X365643Y487138D01*
X366159Y487516D01*
X366957Y488986D01*
X369134Y491524D01*
X371796Y493548D01*
X374823Y494969D01*
X378081Y495722D01*
X381425Y495774D01*
X384705Y495123D01*
X387776Y493799D01*
X390499Y491858D01*
X392755Y489390D01*
X394442Y486503D01*
X395486Y483325D01*
X395839Y480000D01*
X395486Y476675D01*
X394442Y473497D01*
X392755Y470610D01*
X390499Y468142D01*
X387776Y466201D01*
X384705Y464877D01*
X381425Y464226D01*
X378081Y464278D01*
X374823Y465031D01*
X371796Y466452D01*
X369134Y468476D01*
X366957Y471014D01*
X366159Y472484D01*
X365643Y472862D01*
X365023Y472705D01*
X364750Y472126D01*
Y469036D01*
X364970Y468505D01*
X371505Y461970D01*
X372036Y461750D01*
X382187D01*
X383105Y461369D01*
X390369Y454105D01*
X390750Y453187D01*
Y408813D01*
X390369Y407895D01*
X382105Y399631D01*
X381187Y399250D01*
X356813D01*
X355895Y399631D01*
X348631Y406895D01*
X348250Y407813D01*
Y486500D01*
X348030Y487030D01*
X347500Y487250D01*
X343267D01*
X342736Y487032D01*
X342515Y486502D01*
X342733Y485971D01*
X343263Y485750D01*
X343930Y485747D01*
X345084Y485075D01*
X345750Y483918D01*
Y393080D01*
X345080Y391920D01*
X343920Y391250D01*
X337250D01*
Y350945D01*
X337973Y352691D01*
X339309Y354027D01*
X341055Y354750D01*
X342945D01*
X344691Y354027D01*
X346027Y352691D01*
X346750Y350945D01*
Y349055D01*
X346027Y347309D01*
X344691Y345973D01*
X342945Y345250D01*
X341055D01*
X339309Y345973D01*
X337973Y347309D01*
X337250Y349055D01*
Y391250D01*
X321080D01*
X319920Y391920D01*
X319250Y393080D01*
Y417000D01*
X319030Y417530D01*
X318500Y417750D01*
X317250D01*
Y380945D01*
X317973Y382691D01*
X319309Y384027D01*
X321055Y384750D01*
X322945D01*
X324691Y384027D01*
X326027Y382691D01*
X326750Y380945D01*
Y379055D01*
X326027Y377309D01*
X324691Y375973D01*
X322945Y375250D01*
X321055D01*
X319309Y375973D01*
X317973Y377309D01*
X317250Y379055D01*
Y417750D01*
X317216D01*
X316677Y417930D01*
X316450Y418100D01*
X316000Y418250D01*
X315550Y418100D01*
X315323Y417930D01*
X314784Y417750D01*
X314500D01*
X313970Y417530D01*
X313750Y417000D01*
Y341813D01*
X313369Y340895D01*
X310105Y337631D01*
X309187Y337250D01*
X273813D01*
X272895Y337631D01*
X267631Y342895D01*
X267250Y343813D01*
Y357187D01*
X267631Y358105D01*
X272895Y363369D01*
X273813Y363750D01*
X288964D01*
X289495Y363970D01*
X295030Y369505D01*
X295250Y370036D01*
Y441687D01*
X295631Y442605D01*
X305030Y452005D01*
X305250Y452536D01*
Y467000D01*
X305055Y467505D01*
X304571Y467747D01*
X304050Y467600D01*
X303823Y467430D01*
X303284Y467250D01*
X290531D01*
X289719Y467719D01*
X289250Y468531D01*
Y481469D01*
X289719Y482281D01*
X290531Y482750D01*
X303284D01*
X303823Y482570D01*
X304050Y482400D01*
X304571Y482253D01*
X305055Y482495D01*
X305250Y483000D01*
Y497250D01*
X305281Y497700D01*
X305062Y498230D01*
X304531Y498450D01*
X269250D01*
Y476114D01*
X269878Y478253D01*
X271083Y480127D01*
X272767Y481587D01*
X274794Y482513D01*
X277000Y482830D01*
X279206Y482513D01*
X281233Y481587D01*
X282917Y480127D01*
X284122Y478253D01*
X284750Y476114D01*
Y473886D01*
X284122Y471747D01*
X282917Y469873D01*
X281233Y468413D01*
X279206Y467487D01*
X277000Y467170D01*
X274794Y467487D01*
X272767Y468413D01*
X271083Y469873D01*
X269878Y471747D01*
X269250Y473886D01*
Y498450D01*
X207250D01*
Y483187D01*
X207631Y484105D01*
X213895Y490369D01*
X214813Y490750D01*
X242187D01*
X243105Y490369D01*
X248369Y485105D01*
X248750Y484187D01*
Y479000D01*
X249024Y478420D01*
X249647Y478265D01*
X250162Y478647D01*
X250703Y479662D01*
X252328Y481290D01*
X254356Y482375D01*
X256611Y482825D01*
X258900Y482601D01*
X261026Y481722D01*
X262804Y480263D01*
X264082Y478351D01*
X264750Y476150D01*
Y473850D01*
X264082Y471649D01*
X262804Y469737D01*
X261026Y468278D01*
X258900Y467399D01*
X256611Y467175D01*
X254356Y467625D01*
X252328Y468710D01*
X250703Y470338D01*
X250162Y471353D01*
X249647Y471735D01*
X249024Y471580D01*
X248750Y471000D01*
Y440036D01*
X248970Y439505D01*
X271505Y416970D01*
X272036Y416750D01*
X283187D01*
X284105Y416369D01*
X289369Y411105D01*
X289750Y410187D01*
Y375080D01*
X289080Y373920D01*
X287920Y373250D01*
X261813D01*
X260895Y373631D01*
X207631Y426895D01*
X207250Y427813D01*
Y498450D01*
X189250D01*
Y476114D01*
X189878Y478253D01*
X191083Y480127D01*
X192767Y481587D01*
X194794Y482513D01*
X197000Y482830D01*
X199206Y482513D01*
X201233Y481587D01*
X202917Y480127D01*
X204122Y478253D01*
X204750Y476114D01*
Y473886D01*
X204122Y471747D01*
X202917Y469873D01*
X201233Y468413D01*
X199206Y467487D01*
X197000Y467170D01*
X194794Y467487D01*
X192767Y468413D01*
X191083Y469873D01*
X189878Y471747D01*
X189250Y473886D01*
Y498450D01*
X149250D01*
Y481469D01*
X149719Y482281D01*
X150531Y482750D01*
X163469D01*
X164281Y482281D01*
X164750Y481469D01*
Y468531D01*
X164281Y467719D01*
X163469Y467250D01*
X160100D01*
X159570Y467030D01*
X159350Y466500D01*
Y445284D01*
X159570Y444754D01*
X171871Y432452D01*
X172546Y432246D01*
X173093Y432692D01*
X173029Y433394D01*
X172626Y434007D01*
X172229Y435420D01*
X172276Y436886D01*
X172764Y438270D01*
X173205Y438857D01*
X173303Y439033D01*
X174598Y442314D01*
X174650Y442589D01*
Y462312D01*
X174580Y462629D01*
X171256Y469750D01*
X171143Y469924D01*
X170364Y470823D01*
X169417Y473006D01*
X169168Y475373D01*
X169640Y477705D01*
X170791Y479788D01*
X172513Y481430D01*
X174648Y482480D01*
X177000Y482841D01*
X179352Y482480D01*
X181487Y481430D01*
X183209Y479788D01*
X184360Y477705D01*
X184832Y475373D01*
X184583Y473006D01*
X183636Y470823D01*
X182857Y469924D01*
X182744Y469750D01*
X179420Y462629D01*
X179350Y462312D01*
Y442589D01*
X179402Y442314D01*
X180697Y439033D01*
X180795Y438857D01*
X181300Y438186D01*
X181788Y436581D01*
X181698Y434906D01*
X181039Y433363D01*
X179892Y432139D01*
X178394Y431382D01*
X176728Y431184D01*
X175095Y431569D01*
X174394Y432029D01*
X173692Y432093D01*
X173246Y431546D01*
X173452Y430871D01*
X174002Y430321D01*
X174234Y430163D01*
X177470Y428758D01*
X177664Y428703D01*
X178514Y428584D01*
X180023Y427764D01*
X181149Y426467D01*
X181750Y424859D01*
Y423098D01*
X181089Y421420D01*
X179860Y420101D01*
X178232Y419325D01*
X176433Y419199D01*
X174713Y419740D01*
X173311Y420875D01*
X172422Y422444D01*
X172297Y423336D01*
X172242Y423530D01*
X170837Y426766D01*
X170679Y426998D01*
X155008Y442669D01*
X154650Y443533D01*
Y466500D01*
X154430Y467030D01*
X153900Y467250D01*
X150531D01*
X149719Y467719D01*
X149250Y468531D01*
Y498450D01*
X104250D01*
Y481655D01*
X104938Y484894D01*
X106285Y487918D01*
X108231Y490597D01*
X110691Y492812D01*
X113559Y494468D01*
X116707Y495491D01*
X120000Y495837D01*
X123293Y495491D01*
X126441Y494468D01*
X129309Y492812D01*
X131769Y490597D01*
X133715Y487918D01*
X135062Y484894D01*
X135750Y481655D01*
Y478345D01*
X135062Y475106D01*
X133715Y472082D01*
X131769Y469403D01*
X129309Y467188D01*
X126441Y465532D01*
X123293Y464509D01*
X120000Y464163D01*
X116707Y464509D01*
X113559Y465532D01*
X110691Y467188D01*
X108231Y469403D01*
X106285Y472082D01*
X104938Y475106D01*
X104250Y478345D01*
Y498450D01*
X104226D01*
Y320808D01*
X104891Y322560D01*
X106170Y323928D01*
X107021Y324318D01*
X107405Y324722D01*
Y325278D01*
X107021Y325682D01*
X106190Y326063D01*
X104929Y327387D01*
X104250Y329086D01*
Y330914D01*
X104929Y332613D01*
X106190Y333937D01*
X107021Y334318D01*
X107405Y334722D01*
Y335278D01*
X107021Y335682D01*
X106190Y336063D01*
X104929Y337387D01*
X104250Y339086D01*
Y340914D01*
X104929Y342613D01*
X106190Y343937D01*
X107021Y344318D01*
X107405Y344722D01*
Y345278D01*
X107021Y345682D01*
X106190Y346063D01*
X104929Y347387D01*
X104250Y349086D01*
Y350914D01*
X104929Y352613D01*
X106190Y353937D01*
X107021Y354318D01*
X107405Y354722D01*
Y355278D01*
X107021Y355682D01*
X106190Y356063D01*
X104929Y357387D01*
X104250Y359086D01*
Y360914D01*
X104929Y362613D01*
X106190Y363937D01*
X107021Y364318D01*
X107405Y364722D01*
Y365278D01*
X107021Y365682D01*
X106190Y366063D01*
X104929Y367387D01*
X104250Y369086D01*
Y370914D01*
X104929Y372613D01*
X106190Y373937D01*
X107021Y374318D01*
X107405Y374722D01*
Y375278D01*
X107021Y375682D01*
X106190Y376063D01*
X104929Y377387D01*
X104250Y379086D01*
Y380914D01*
X104929Y382613D01*
X106190Y383937D01*
X107021Y384318D01*
X107405Y384722D01*
Y385278D01*
X107021Y385682D01*
X106190Y386063D01*
X104929Y387387D01*
X104250Y389086D01*
Y390914D01*
X104929Y392613D01*
X106190Y393937D01*
X107021Y394318D01*
X107405Y394722D01*
Y395278D01*
X107021Y395682D01*
X106190Y396063D01*
X104929Y397387D01*
X104250Y399086D01*
Y400914D01*
X104929Y402613D01*
X106190Y403937D01*
X107021Y404318D01*
X107405Y404722D01*
Y405278D01*
X107021Y405682D01*
X106190Y406063D01*
X104929Y407387D01*
X104250Y409086D01*
Y410914D01*
X104929Y412613D01*
X106190Y413937D01*
X107021Y414318D01*
X107405Y414722D01*
Y415278D01*
X107021Y415682D01*
X106190Y416063D01*
X104929Y417387D01*
X104250Y419086D01*
Y420914D01*
X104929Y422613D01*
X106190Y423937D01*
X107021Y424318D01*
X107405Y424722D01*
Y425278D01*
X107021Y425682D01*
X106190Y426063D01*
X104929Y427387D01*
X104250Y429086D01*
Y430914D01*
X104929Y432613D01*
X106190Y433937D01*
X107021Y434318D01*
X107405Y434722D01*
Y435278D01*
X107021Y435682D01*
X106190Y436063D01*
X104929Y437387D01*
X104250Y439086D01*
Y440914D01*
X104929Y442613D01*
X106190Y443937D01*
X107021Y444318D01*
X107405Y444722D01*
Y445278D01*
X107021Y445682D01*
X106190Y446063D01*
X104929Y447387D01*
X104250Y449086D01*
Y450937D01*
X104961Y452669D01*
X106276Y454003D01*
X108000Y454737D01*
X109873Y454762D01*
X111615Y454075D01*
X112966Y452777D01*
X113723Y451064D01*
X113774Y449192D01*
X113109Y447440D01*
X111830Y446072D01*
X110979Y445682D01*
X110595Y445278D01*
Y444722D01*
X110979Y444318D01*
X111706Y443985D01*
X112862Y442879D01*
X113592Y441456D01*
X113703Y440664D01*
X113758Y440470D01*
X115163Y437234D01*
X115321Y437002D01*
X133754Y418570D01*
X134284Y418350D01*
X160822D01*
X161686Y417992D01*
X234874Y344804D01*
X235404Y344585D01*
X235934Y344804D01*
X236154Y345335D01*
Y346072D01*
X235994Y346535D01*
X235583Y346800D01*
X235200Y346894D01*
X234588Y347393D01*
X234250Y348106D01*
Y354784D01*
X234430Y355323D01*
X234600Y355550D01*
X234750Y356000D01*
X234600Y356450D01*
X234430Y356677D01*
X234250Y357216D01*
Y363969D01*
X234719Y364781D01*
X235531Y365250D01*
X241469D01*
X242281Y364781D01*
X242750Y363969D01*
Y357216D01*
X242570Y356677D01*
X242400Y356450D01*
X242250Y356000D01*
X242400Y355550D01*
X242749Y354570D01*
X242978Y354059D01*
X243498Y353850D01*
X244502D01*
X245022Y354059D01*
X245251Y354570D01*
X245600Y355550D01*
X245750Y356000D01*
X245600Y356450D01*
X245430Y356677D01*
X245250Y357216D01*
Y363969D01*
X245719Y364781D01*
X246531Y365250D01*
X252469D01*
X253281Y364781D01*
X253750Y363969D01*
Y357216D01*
X253570Y356677D01*
X253400Y356450D01*
X253250Y356000D01*
X253400Y355550D01*
X253570Y355323D01*
X253750Y354784D01*
Y348031D01*
X253281Y347219D01*
X252469Y346750D01*
X246544D01*
X245747Y347196D01*
X245270Y347974D01*
X245251Y348430D01*
X245022Y348941D01*
X244502Y349150D01*
X243498D01*
X242978Y348941D01*
X242749Y348430D01*
X242733Y348049D01*
X242389Y347369D01*
X241793Y346894D01*
X241423Y346802D01*
X241013Y346536D01*
X240854Y346074D01*
Y320335D01*
X241074Y319804D01*
X241604Y319585D01*
X242134Y319804D01*
X252322Y329992D01*
X253186Y330350D01*
X290701D01*
X291232Y330570D01*
X291451Y331100D01*
X291450Y331200D01*
Y331801D01*
X291921Y332908D01*
X292787Y333742D01*
X293911Y334171D01*
X295112Y334125D01*
X295656Y333869D01*
X295818Y333814D01*
X296972Y333567D01*
X297129Y333550D01*
X379416D01*
X379946Y333770D01*
X382430Y336254D01*
X382650Y336784D01*
Y337073D01*
X382491Y337535D01*
X382080Y337801D01*
X381698Y337896D01*
X381088Y338394D01*
X380750Y339106D01*
Y345784D01*
X380930Y346323D01*
X381100Y346550D01*
X381250Y347000D01*
X381100Y347450D01*
X380930Y347677D01*
X380750Y348216D01*
Y354894D01*
X381088Y355606D01*
X381698Y356104D01*
X382080Y356199D01*
X382491Y356465D01*
X382650Y356927D01*
Y365573D01*
X382491Y366035D01*
X382080Y366301D01*
X381698Y366396D01*
X381088Y366894D01*
X380750Y367606D01*
Y374284D01*
X380930Y374823D01*
X381100Y375050D01*
X381250Y375500D01*
X381100Y375950D01*
X380785Y376650D01*
X380525Y377081D01*
X380050Y377250D01*
X372950D01*
X372475Y377081D01*
X372215Y376650D01*
X371900Y375950D01*
X371750Y375500D01*
X371900Y375050D01*
X372070Y374823D01*
X372250Y374284D01*
Y367606D01*
X371912Y366894D01*
X371302Y366396D01*
X370920Y366301D01*
X370509Y366035D01*
X370350Y365573D01*
Y356927D01*
X370509Y356465D01*
X370920Y356199D01*
X371302Y356104D01*
X371912Y355606D01*
X372250Y354894D01*
Y348216D01*
X372070Y347677D01*
X371900Y347450D01*
X371750Y347000D01*
X371900Y346550D01*
X372070Y346323D01*
X372250Y345784D01*
Y339031D01*
X371781Y338219D01*
X370969Y337750D01*
X365031D01*
X364219Y338219D01*
X363750Y339031D01*
Y345784D01*
X363930Y346323D01*
X364100Y346550D01*
X364250Y347000D01*
X364100Y347450D01*
X363930Y347677D01*
X363750Y348216D01*
Y354894D01*
X364088Y355606D01*
X364698Y356104D01*
X365080Y356199D01*
X365491Y356465D01*
X365650Y356927D01*
Y365573D01*
X365491Y366035D01*
X365080Y366301D01*
X364698Y366396D01*
X364088Y366894D01*
X363750Y367606D01*
Y374284D01*
X363930Y374823D01*
X364100Y375050D01*
X364250Y375500D01*
X364100Y375950D01*
X363785Y376650D01*
X363525Y377081D01*
X363050Y377250D01*
X348527D01*
X348306Y377217D01*
X344841Y376148D01*
X344645Y376054D01*
X343926Y375573D01*
X342242Y375178D01*
X340527Y375402D01*
X339001Y376216D01*
X337860Y377516D01*
X337250Y379135D01*
Y380865D01*
X337860Y382484D01*
X339001Y383784D01*
X340527Y384598D01*
X342242Y384822D01*
X343926Y384427D01*
X344645Y383946D01*
X344841Y383852D01*
X348306Y382783D01*
X348527Y382750D01*
X363050D01*
X363525Y382919D01*
X363785Y383350D01*
X363867Y383748D01*
X364364Y384392D01*
X365093Y384750D01*
X370907D01*
X371636Y384392D01*
X372133Y383748D01*
X372215Y383350D01*
X372475Y382919D01*
X372950Y382750D01*
X380050D01*
X380525Y382919D01*
X380785Y383350D01*
X380867Y383748D01*
X381364Y384392D01*
X382093Y384750D01*
X387969D01*
X388781Y384281D01*
X389250Y383469D01*
Y376716D01*
X389070Y376177D01*
X388900Y375950D01*
X388750Y375500D01*
X388900Y375050D01*
X389070Y374823D01*
X389250Y374284D01*
Y367606D01*
X388912Y366894D01*
X388302Y366396D01*
X387920Y366301D01*
X387509Y366035D01*
X387350Y365573D01*
Y356927D01*
X387509Y356465D01*
X387920Y356199D01*
X388302Y356104D01*
X388912Y355606D01*
X389250Y354894D01*
Y348216D01*
X389070Y347677D01*
X388900Y347450D01*
X388750Y347000D01*
X388900Y346550D01*
X389070Y346323D01*
X389250Y345784D01*
Y339106D01*
X388912Y338394D01*
X388302Y337896D01*
X387920Y337801D01*
X387509Y337535D01*
X387350Y337073D01*
Y335033D01*
X386992Y334169D01*
X382031Y329208D01*
X381167Y328850D01*
X378284D01*
X377754Y328630D01*
X377534Y328100D01*
X377754Y327570D01*
X389992Y315331D01*
X390350Y314467D01*
Y301498D01*
X390559Y300978D01*
X391070Y300749D01*
X391526Y300730D01*
X392304Y300253D01*
X392750Y299456D01*
Y292550D01*
X392317Y291763D01*
X391557Y291281D01*
X391109Y291253D01*
X390575Y290980D01*
X390412Y290402D01*
X390725Y289891D01*
X391413Y289408D01*
X392375Y288031D01*
X392807Y286407D01*
X392654Y284733D01*
X391937Y283213D01*
X390743Y282032D01*
X389979Y281682D01*
X389595Y281278D01*
Y280722D01*
X389979Y280318D01*
X390810Y279937D01*
X392071Y278613D01*
X392750Y276914D01*
Y275086D01*
X392071Y273387D01*
X390810Y272063D01*
X389979Y271682D01*
X389595Y271278D01*
Y270722D01*
X389979Y270318D01*
X390810Y269937D01*
X392071Y268613D01*
X392750Y266914D01*
Y265086D01*
X392071Y263387D01*
X390810Y262063D01*
X389979Y261682D01*
X389595Y261278D01*
Y260722D01*
X389979Y260318D01*
X390810Y259937D01*
X392071Y258613D01*
X392750Y256914D01*
Y255086D01*
X392071Y253387D01*
X390810Y252063D01*
X389979Y251682D01*
X389595Y251278D01*
Y250722D01*
X389979Y250318D01*
X390810Y249937D01*
X392071Y248613D01*
X392750Y246914D01*
Y245086D01*
X392071Y243387D01*
X390810Y242063D01*
X389979Y241682D01*
X389595Y241278D01*
Y240722D01*
X389979Y240318D01*
X390810Y239937D01*
X392071Y238613D01*
X392750Y236914D01*
Y235086D01*
X392071Y233387D01*
X390810Y232063D01*
X389979Y231682D01*
X389595Y231278D01*
Y230722D01*
X389979Y230318D01*
X390810Y229937D01*
X392071Y228613D01*
X392750Y226914D01*
Y225086D01*
X392071Y223387D01*
X390810Y222063D01*
X389979Y221682D01*
X389595Y221278D01*
Y220722D01*
X389979Y220318D01*
X390810Y219937D01*
X392071Y218613D01*
X392750Y216914D01*
Y215086D01*
X392071Y213387D01*
X390810Y212063D01*
X389979Y211682D01*
X389595Y211278D01*
Y210722D01*
X389979Y210318D01*
X390810Y209937D01*
X392071Y208613D01*
X392750Y206914D01*
Y205086D01*
X392071Y203387D01*
X390810Y202063D01*
X389979Y201682D01*
X389595Y201278D01*
Y200722D01*
X389979Y200318D01*
X390810Y199937D01*
X392071Y198613D01*
X392750Y196914D01*
Y195086D01*
X392071Y193387D01*
X390810Y192063D01*
X389979Y191682D01*
X389595Y191278D01*
Y190722D01*
X389979Y190318D01*
X390810Y189937D01*
X392071Y188613D01*
X392750Y186914D01*
Y185086D01*
X392071Y183387D01*
X390810Y182063D01*
X389979Y181682D01*
X389595Y181278D01*
Y180722D01*
X389979Y180318D01*
X390810Y179937D01*
X392071Y178613D01*
X392750Y176914D01*
Y175086D01*
X392071Y173387D01*
X390810Y172063D01*
X389979Y171682D01*
X389595Y171278D01*
Y170722D01*
X389979Y170318D01*
X390810Y169937D01*
X392071Y168613D01*
X392750Y166914D01*
Y165086D01*
X392071Y163387D01*
X390810Y162063D01*
X389979Y161682D01*
X389595Y161278D01*
Y160722D01*
X389979Y160318D01*
X390826Y159930D01*
X392101Y158571D01*
X392769Y156831D01*
X392729Y154968D01*
X391989Y153258D01*
X390657Y151954D01*
X388932Y151250D01*
X387068D01*
X385343Y151954D01*
X384011Y153258D01*
X383271Y154968D01*
X383231Y156831D01*
X383899Y158571D01*
X385174Y159930D01*
X386021Y160318D01*
X386405Y160722D01*
Y161278D01*
X386021Y161682D01*
X385190Y162063D01*
X383929Y163387D01*
X383250Y165086D01*
Y166914D01*
X383929Y168613D01*
X385190Y169937D01*
X386021Y170318D01*
X386405Y170722D01*
Y171278D01*
X386021Y171682D01*
X385190Y172063D01*
X383929Y173387D01*
X383250Y175086D01*
Y176914D01*
X383929Y178613D01*
X385190Y179937D01*
X386021Y180318D01*
X386405Y180722D01*
Y181278D01*
X386021Y181682D01*
X385294Y182015D01*
X384138Y183121D01*
X383408Y184544D01*
X383297Y185336D01*
X383242Y185530D01*
X381837Y188766D01*
X381679Y188998D01*
X364250Y206427D01*
Y121655D01*
X364938Y124894D01*
X366285Y127918D01*
X368231Y130597D01*
X370691Y132812D01*
X373559Y134468D01*
X376707Y135491D01*
X380000Y135837D01*
X383293Y135491D01*
X386441Y134468D01*
X389309Y132812D01*
X391769Y130597D01*
X393715Y127918D01*
X395062Y124894D01*
X395750Y121655D01*
Y118345D01*
X395062Y115106D01*
X393715Y112082D01*
X391769Y109403D01*
X389309Y107188D01*
X386441Y105532D01*
X383293Y104509D01*
X380000Y104163D01*
X376707Y104509D01*
X373559Y105532D01*
X370691Y107188D01*
X368231Y109403D01*
X366285Y112082D01*
X364938Y115106D01*
X364250Y118345D01*
Y206427D01*
X341008Y229669D01*
X340650Y230533D01*
Y265369D01*
X340430Y265900D01*
X327246Y279084D01*
X326716Y279304D01*
X323506D01*
X322976Y279084D01*
X322756Y278554D01*
X322892Y278123D01*
X323432Y277352D01*
X323842Y275513D01*
X323518Y273657D01*
X322511Y272064D01*
X320973Y270977D01*
X319136Y270559D01*
X317278Y270874D01*
X315681Y271873D01*
X315134Y272640D01*
X314524Y272954D01*
X306855D01*
X306325Y272735D01*
X306105Y272204D01*
X306325Y271674D01*
X317685Y260313D01*
X318323Y260101D01*
X319136Y260219D01*
X320748Y259893D01*
X322156Y259044D01*
X323197Y257771D01*
X323750Y256222D01*
Y254455D01*
X323027Y252709D01*
X321691Y251373D01*
X319945Y250650D01*
X318055D01*
X316309Y251373D01*
X314973Y252709D01*
X314250Y254455D01*
Y255400D01*
X314352Y256378D01*
X314148Y257062D01*
X301626Y269585D01*
X301095Y269805D01*
X298100D01*
X297893Y269720D01*
Y244073D01*
X298047Y245405D01*
X298761Y246539D01*
X299895Y247253D01*
X301227Y247407D01*
X302494Y246971D01*
X303449Y246030D01*
X303676Y245399D01*
X303752Y245246D01*
X304392Y244255D01*
X304491Y244132D01*
X332092Y216531D01*
X332450Y215667D01*
Y173484D01*
X332670Y172954D01*
X335476Y170147D01*
X335989Y169928D01*
X336511Y170123D01*
X336754Y170624D01*
X337100Y171550D01*
X337250Y172000D01*
X337100Y172450D01*
X336930Y172677D01*
X336750Y173216D01*
Y179969D01*
X337219Y180781D01*
X338031Y181250D01*
X343969D01*
X344781Y180781D01*
X345250Y179969D01*
Y173216D01*
X345070Y172677D01*
X344900Y172450D01*
X344750Y172000D01*
X344900Y171550D01*
X345215Y170850D01*
X345475Y170419D01*
X345950Y170250D01*
X347050D01*
X347525Y170419D01*
X347785Y170850D01*
X348100Y171550D01*
X348250Y172000D01*
X348100Y172450D01*
X347930Y172677D01*
X347750Y173216D01*
Y179969D01*
X348219Y180781D01*
X349031Y181250D01*
X354969D01*
X355781Y180781D01*
X356250Y179969D01*
Y173216D01*
X356070Y172677D01*
X355900Y172450D01*
X355750Y172000D01*
X355900Y171550D01*
X356070Y171323D01*
X356250Y170784D01*
Y164031D01*
X355781Y163219D01*
X354969Y162750D01*
X349093D01*
X348364Y163108D01*
X347867Y163752D01*
X347785Y164150D01*
X347525Y164581D01*
X347050Y164750D01*
X345950D01*
X345475Y164581D01*
X345215Y164150D01*
X345129Y163731D01*
X344592Y163067D01*
X344200Y162896D01*
X343873Y162619D01*
X343750Y162209D01*
Y137702D01*
X343808Y137413D01*
X346843Y130146D01*
X346958Y129956D01*
X347712Y129049D01*
X348613Y126870D01*
X348825Y124522D01*
X348328Y122216D01*
X347169Y120163D01*
X345451Y118547D01*
X343331Y117515D01*
X341000Y117161D01*
X338669Y117515D01*
X336549Y118547D01*
X334831Y120163D01*
X333672Y122216D01*
X333175Y124522D01*
X333387Y126870D01*
X334288Y129049D01*
X335042Y129956D01*
X335157Y130146D01*
X338192Y137413D01*
X338250Y137702D01*
Y162209D01*
X338127Y162619D01*
X337800Y162896D01*
X337339Y163097D01*
X336771Y163928D01*
X336751Y164430D01*
X336522Y164941D01*
X336002Y165150D01*
X334333D01*
X333469Y165508D01*
X328108Y170869D01*
X327750Y171733D01*
Y213916D01*
X327530Y214446D01*
X301168Y240809D01*
X301045Y240908D01*
X300054Y241548D01*
X299901Y241624D01*
X299270Y241851D01*
X298329Y242806D01*
X297893Y244073D01*
Y269720D01*
X297573Y269588D01*
X297350Y269064D01*
X297342Y268466D01*
X296864Y267371D01*
X295997Y266549D01*
X294878Y266128D01*
X293684Y266176D01*
X293144Y266431D01*
X292982Y266486D01*
X291828Y266733D01*
X291671Y266750D01*
X286650D01*
Y248972D01*
X287231Y250182D01*
X288280Y251022D01*
X289588Y251325D01*
X290899Y251032D01*
X291954Y250201D01*
X292545Y248994D01*
X292555Y247651D01*
X292269Y247044D01*
X292214Y246882D01*
X291967Y245728D01*
X291950Y245571D01*
Y174084D01*
X292170Y173554D01*
X295484Y170239D01*
X295988Y170020D01*
X296505Y170202D01*
X296760Y170689D01*
X297100Y171550D01*
X297250Y172000D01*
X297100Y172450D01*
X296930Y172677D01*
X296750Y173216D01*
Y179969D01*
X297219Y180781D01*
X298031Y181250D01*
X303969D01*
X304781Y180781D01*
X305250Y179969D01*
Y173216D01*
X305070Y172677D01*
X304900Y172450D01*
X304750Y172000D01*
X304900Y171550D01*
X305215Y170850D01*
X305475Y170419D01*
X305950Y170250D01*
X307050D01*
X307525Y170419D01*
X307785Y170850D01*
X308100Y171550D01*
X308250Y172000D01*
X308100Y172450D01*
X307930Y172677D01*
X307750Y173216D01*
Y179969D01*
X308219Y180781D01*
X309031Y181250D01*
X314969D01*
X315781Y180781D01*
X316250Y179969D01*
Y173216D01*
X316070Y172677D01*
X315900Y172450D01*
X315750Y172000D01*
X315900Y171550D01*
X316070Y171323D01*
X316250Y170784D01*
Y164031D01*
X315781Y163219D01*
X314969Y162750D01*
X313250D01*
Y131469D01*
X313719Y132281D01*
X314531Y132750D01*
X327469D01*
X328281Y132281D01*
X328750Y131469D01*
Y118531D01*
X328281Y117719D01*
X327469Y117250D01*
X314531D01*
X313719Y117719D01*
X313250Y118531D01*
Y162750D01*
X309093D01*
X308364Y163108D01*
X307867Y163752D01*
X307785Y164150D01*
X307525Y164581D01*
X307050Y164750D01*
X305950D01*
X305475Y164581D01*
X305215Y164150D01*
X305129Y163731D01*
X304592Y163067D01*
X304200Y162896D01*
X303873Y162619D01*
X303750Y162209D01*
Y137702D01*
X303808Y137413D01*
X306843Y130146D01*
X306958Y129956D01*
X307712Y129049D01*
X308613Y126870D01*
X308825Y124522D01*
X308328Y122216D01*
X307169Y120163D01*
X305451Y118547D01*
X303331Y117515D01*
X301000Y117161D01*
X298669Y117515D01*
X296549Y118547D01*
X294831Y120163D01*
X293672Y122216D01*
X293175Y124522D01*
X293387Y126870D01*
X294288Y129049D01*
X295042Y129956D01*
X295157Y130146D01*
X298192Y137413D01*
X298250Y137702D01*
Y162209D01*
X298127Y162619D01*
X297800Y162896D01*
X297339Y163097D01*
X296771Y163928D01*
X296751Y164430D01*
X296522Y164941D01*
X296002Y165150D01*
X294433D01*
X293569Y165508D01*
X287608Y171469D01*
X287250Y172333D01*
Y245571D01*
X287233Y245728D01*
X286986Y246882D01*
X286931Y247044D01*
X286650Y248300D01*
Y266750D01*
X273250D01*
Y131469D01*
X273719Y132281D01*
X274531Y132750D01*
X287469D01*
X288281Y132281D01*
X288750Y131469D01*
Y118531D01*
X288281Y117719D01*
X287469Y117250D01*
X274531D01*
X273719Y117719D01*
X273250Y118531D01*
Y266750D01*
X271713D01*
X271182Y266530D01*
X270963Y266000D01*
Y264748D01*
X270494Y263935D01*
X269682Y263467D01*
X261339D01*
X260678Y263555D01*
X260446D01*
X259834Y263238D01*
X259740Y262554D01*
X259841Y261969D01*
Y254094D01*
X259752Y253433D01*
Y251484D01*
X259971Y250954D01*
X262992Y247933D01*
X263350Y247069D01*
Y173816D01*
X263556Y173300D01*
X264060Y173067D01*
X264587Y173245D01*
X265107Y173689D01*
X266431Y174027D01*
X267769Y173749D01*
X268849Y172911D01*
X269450Y171683D01*
Y170317D01*
X268849Y169089D01*
X267769Y168251D01*
X266431Y167973D01*
X265107Y168311D01*
X264587Y168755D01*
X264060Y168933D01*
X263556Y168700D01*
X263350Y168184D01*
Y137688D01*
X263420Y137371D01*
X266744Y130250D01*
X266857Y130076D01*
X267636Y129177D01*
X268583Y126994D01*
X268832Y124627D01*
X268360Y122295D01*
X267209Y120212D01*
X265487Y118570D01*
X263352Y117520D01*
X261000Y117159D01*
X258648Y117520D01*
X256513Y118570D01*
X254791Y120212D01*
X253640Y122295D01*
X253168Y124627D01*
X253417Y126994D01*
X254364Y129177D01*
X255143Y130076D01*
X255256Y130250D01*
X258580Y137371D01*
X258650Y137688D01*
Y245318D01*
X258430Y245848D01*
X257882Y246396D01*
X257352Y246615D01*
X256822Y246396D01*
X256602Y245865D01*
Y177785D01*
X256244Y176921D01*
X233250Y153927D01*
Y126114D01*
X233878Y128253D01*
X235083Y130127D01*
X236767Y131587D01*
X238794Y132513D01*
X241000Y132830D01*
X243206Y132513D01*
X245233Y131587D01*
X246917Y130127D01*
X248122Y128253D01*
X248750Y126114D01*
Y123886D01*
X248122Y121747D01*
X246917Y119873D01*
X245233Y118413D01*
X243206Y117487D01*
X241000Y117170D01*
X238794Y117487D01*
X236767Y118413D01*
X235083Y119873D01*
X233878Y121747D01*
X233250Y123886D01*
Y153927D01*
X218831Y139508D01*
X217967Y139150D01*
X213250D01*
Y131469D01*
X213719Y132281D01*
X214531Y132750D01*
X227469D01*
X228281Y132281D01*
X228750Y131469D01*
Y118531D01*
X228281Y117719D01*
X227469Y117250D01*
X214531D01*
X213719Y117719D01*
X213250Y118531D01*
Y139150D01*
X204100D01*
X203570Y138930D01*
X203350Y138400D01*
Y137688D01*
X203420Y137371D01*
X206744Y130250D01*
X206857Y130076D01*
X207636Y129177D01*
X208583Y126994D01*
X208832Y124627D01*
X208360Y122295D01*
X207209Y120212D01*
X205487Y118570D01*
X203352Y117520D01*
X201000Y117159D01*
X198648Y117520D01*
X196513Y118570D01*
X194791Y120212D01*
X193640Y122295D01*
X193168Y124627D01*
X193417Y126994D01*
X194364Y129177D01*
X195143Y130076D01*
X195256Y130250D01*
X198580Y137371D01*
X198650Y137688D01*
Y138400D01*
X198430Y138930D01*
X197900Y139150D01*
X184033D01*
X183169Y139508D01*
X176758Y145919D01*
X176400Y146783D01*
Y165469D01*
X176869Y166281D01*
X177681Y166750D01*
X179350D01*
X180625Y166400D01*
X181900Y166750D01*
X183100D01*
X184375Y166400D01*
X185650Y166750D01*
X187260D01*
X187995Y166386D01*
X188243Y166059D01*
X188618Y165797D01*
X189075Y165801D01*
X189749Y166024D01*
X191153Y165807D01*
X192304Y164975D01*
X192950Y163710D01*
Y162290D01*
X192304Y161025D01*
X191153Y160193D01*
X189749Y159976D01*
X189075Y160199D01*
X188618Y160203D01*
X188243Y159941D01*
X187995Y159614D01*
X187260Y159250D01*
X185650D01*
X184375Y159600D01*
X183100Y159250D01*
X181900D01*
X181865D01*
X181325Y159036D01*
X181100Y158500D01*
Y148534D01*
X181320Y148004D01*
X185254Y144070D01*
X185784Y143850D01*
X209540D01*
X210134Y144141D01*
X210267Y144788D01*
X209836Y145289D01*
X209285Y145526D01*
X208455Y146392D01*
X208029Y147514D01*
X208075Y148714D01*
X208331Y149256D01*
X208386Y149418D01*
X208633Y150572D01*
X208650Y150729D01*
Y151716D01*
X208430Y152246D01*
X190246Y170430D01*
X189716Y170650D01*
X189095D01*
X188698Y170536D01*
X188422Y170230D01*
X188201Y169780D01*
X187351Y169250D01*
X185650D01*
X184375Y169600D01*
X183100Y169250D01*
X181900D01*
X180625Y169600D01*
X179350Y169250D01*
X177649D01*
X176799Y169780D01*
X176578Y170230D01*
X176302Y170536D01*
X175905Y170650D01*
X173250D01*
Y126114D01*
X173878Y128253D01*
X175083Y130127D01*
X176767Y131587D01*
X178794Y132513D01*
X181000Y132830D01*
X183206Y132513D01*
X185233Y131587D01*
X186917Y130127D01*
X188122Y128253D01*
X188750Y126114D01*
Y123886D01*
X188122Y121747D01*
X186917Y119873D01*
X185233Y118413D01*
X183206Y117487D01*
X181000Y117170D01*
X178794Y117487D01*
X176767Y118413D01*
X175083Y119873D01*
X173878Y121747D01*
X173250Y123886D01*
Y170650D01*
X164100D01*
X163570Y170430D01*
X163350Y169900D01*
Y133500D01*
X163570Y132970D01*
X164100Y132750D01*
X167469D01*
X168281Y132281D01*
X168750Y131469D01*
Y118531D01*
X168281Y117719D01*
X167469Y117250D01*
X154531D01*
X153719Y117719D01*
X153250Y118531D01*
Y131469D01*
X153719Y132281D01*
X154531Y132750D01*
X157900D01*
X158430Y132970D01*
X158650Y133500D01*
Y193467D01*
X159008Y194331D01*
X180409Y215732D01*
X180508Y215855D01*
X181148Y216846D01*
X181224Y216999D01*
X181518Y217595D01*
X181629Y218107D01*
X181378Y218567D01*
X180887Y218750D01*
X177978D01*
X177105Y219322D01*
X176896Y219800D01*
X176619Y220127D01*
X176209Y220250D01*
X135702D01*
X135413Y220192D01*
X128146Y217157D01*
X127956Y217042D01*
X127049Y216288D01*
X124870Y215387D01*
X122522Y215175D01*
X120216Y215672D01*
X118163Y216831D01*
X116547Y218549D01*
X115515Y220669D01*
X115250Y222414D01*
Y204114D01*
X115878Y206253D01*
X117083Y208127D01*
X118767Y209587D01*
X120794Y210513D01*
X123000Y210830D01*
X125206Y210513D01*
X127233Y209587D01*
X128917Y208127D01*
X130122Y206253D01*
X130750Y204114D01*
Y201886D01*
X130122Y199747D01*
X128917Y197873D01*
X127233Y196413D01*
X125206Y195487D01*
X123000Y195170D01*
X120794Y195487D01*
X118767Y196413D01*
X117083Y197873D01*
X115878Y199747D01*
X115250Y201886D01*
Y184114D01*
X115878Y186253D01*
X117083Y188127D01*
X118767Y189587D01*
X120794Y190513D01*
X123000Y190830D01*
X125206Y190513D01*
X127233Y189587D01*
X128917Y188127D01*
X130122Y186253D01*
X130750Y184114D01*
Y181886D01*
X130122Y179747D01*
X128917Y177873D01*
X127233Y176413D01*
X125206Y175487D01*
X123000Y175170D01*
X120794Y175487D01*
X118767Y176413D01*
X117083Y177873D01*
X115878Y179747D01*
X115250Y181886D01*
Y169469D01*
X115719Y170281D01*
X116531Y170750D01*
X129469D01*
X130281Y170281D01*
X130750Y169469D01*
Y156531D01*
X130281Y155719D01*
X129469Y155250D01*
X116531D01*
X115719Y155719D01*
X115250Y156531D01*
Y222414D01*
X115161Y223000D01*
X115515Y225331D01*
X116547Y227451D01*
X118163Y229169D01*
X120216Y230328D01*
X122522Y230825D01*
X124870Y230613D01*
X127049Y229712D01*
X127956Y228958D01*
X128146Y228843D01*
X135413Y225808D01*
X135702Y225750D01*
X176209D01*
X176619Y225873D01*
X176896Y226200D01*
X177097Y226661D01*
X177928Y227229D01*
X178430Y227249D01*
X178941Y227478D01*
X179150Y227998D01*
Y228002D01*
X178941Y228522D01*
X178430Y228751D01*
X177974Y228770D01*
X177196Y229247D01*
X176750Y230044D01*
Y235968D01*
X177217Y236778D01*
X178025Y237248D01*
X178493Y237250D01*
X179023Y237470D01*
X179243Y238000D01*
X179023Y238530D01*
X178493Y238750D01*
X178025Y238752D01*
X177217Y239222D01*
X176750Y240032D01*
Y245956D01*
X177196Y246753D01*
X177974Y247230D01*
X178430Y247249D01*
X178941Y247478D01*
X179150Y247998D01*
Y248002D01*
X178941Y248522D01*
X178430Y248751D01*
X177928Y248771D01*
X177097Y249339D01*
X176896Y249800D01*
X176619Y250127D01*
X176209Y250250D01*
X133000D01*
X131681Y250587D01*
X131087Y250642D01*
X130641Y250246D01*
X130625Y249650D01*
X130750Y249000D01*
Y236531D01*
X130281Y235719D01*
X129469Y235250D01*
X116531D01*
X115719Y235719D01*
X115250Y236531D01*
Y249469D01*
X115719Y250281D01*
X116531Y250750D01*
X129000D01*
X129442Y250693D01*
X130064Y250807D01*
X130378Y251355D01*
X130162Y251949D01*
X129481Y252630D01*
X129208Y252804D01*
X122559Y255233D01*
X122364Y255276D01*
X121184Y255373D01*
X118989Y256264D01*
X117161Y257768D01*
X115865Y259750D01*
X115220Y262029D01*
X115285Y264396D01*
X116054Y266636D01*
X117456Y268544D01*
X119364Y269946D01*
X121604Y270715D01*
X123971Y270780D01*
X126250Y270135D01*
X128232Y268839D01*
X129736Y267011D01*
X130627Y264816D01*
X130724Y263636D01*
X130767Y263441D01*
X133196Y256792D01*
X133370Y256519D01*
X133919Y255970D01*
X134450Y255750D01*
X168132D01*
X168662Y255970D01*
X168882Y256500D01*
X168662Y257030D01*
X157008Y268685D01*
X156650Y269548D01*
Y278716D01*
X156430Y279246D01*
X115250Y320427D01*
Y289469D01*
X115719Y290281D01*
X116531Y290750D01*
X129469D01*
X130281Y290281D01*
X130750Y289469D01*
Y276531D01*
X130281Y275719D01*
X129469Y275250D01*
X116531D01*
X115719Y275719D01*
X115250Y276531D01*
Y320427D01*
X115029Y320647D01*
X114499Y320867D01*
X113968Y320647D01*
X113749Y320117D01*
X113750Y320000D01*
Y319063D01*
X113039Y317331D01*
X111724Y315997D01*
X110000Y315263D01*
X108127Y315238D01*
X106385Y315925D01*
X105034Y317223D01*
X104277Y318936D01*
X104250Y319936D01*
Y121655D01*
X104938Y124894D01*
X106285Y127918D01*
X108231Y130597D01*
X110691Y132812D01*
X113559Y134468D01*
X116707Y135491D01*
X120000Y135837D01*
X123293Y135491D01*
X126441Y134468D01*
X129309Y132812D01*
X131769Y130597D01*
X133715Y127918D01*
X135062Y124894D01*
X135750Y121655D01*
Y118345D01*
X135062Y115106D01*
X133715Y112082D01*
X131769Y109403D01*
X129309Y107188D01*
X126441Y105532D01*
X123293Y104509D01*
X120000Y104163D01*
X116707Y104509D01*
X113559Y105532D01*
X110691Y107188D01*
X108231Y109403D01*
X106285Y112082D01*
X104938Y115106D01*
X104250Y118345D01*
Y319936D01*
X104226Y320808D01*
Y498450D01*
X102300D01*
X101770Y498230D01*
X101550Y497700D01*
Y102200D01*
X101770Y101670D01*
X102300Y101450D01*
X397700D01*
X398230Y101670D01*
X398450Y102200D01*
Y497700D01*
G37*
G74*
*
*
G04 PC Copper Outlines (4)*
G04 Layer Name MCA.pcb - dark (4)*
%LPD*%
*
*
G04 PC Area=ANP000180*
G75*
G36*
G01*
X251902Y197268D02*
X251682Y197798D01*
X251152Y198018D01*
X250622Y197798D01*
X243462Y190638D01*
X242946Y190223D01*
X221731Y169008D01*
X220867Y168650D01*
X210429D01*
X210272Y168633D01*
X209118Y168386D01*
X208956Y168331D01*
X208333Y168038D01*
X206956Y168063D01*
X205732Y168697D01*
X204916Y169806D01*
X204675Y171163D01*
X205060Y172485D01*
X205525Y172993D01*
X205722Y173500D01*
X205525Y174007D01*
X205060Y174515D01*
X204675Y175837D01*
X204916Y177194D01*
X205732Y178303D01*
X206956Y178937D01*
X208333Y178962D01*
X208956Y178669D01*
X209118Y178614D01*
X210272Y178367D01*
X210429Y178350D01*
X216516D01*
X217046Y178570D01*
X235934Y197458D01*
X236154Y197988D01*
Y212169D01*
X235828Y212788D01*
X235133Y212868D01*
X234500Y212750D01*
X229031D01*
X228219Y213219D01*
X227750Y214031D01*
Y220784D01*
X227930Y221323D01*
X228100Y221550D01*
X228250Y222000D01*
X228100Y222450D01*
X227793Y223115D01*
X227530Y223536D01*
X227061Y223700D01*
X226450D01*
X225975Y223531D01*
X225715Y223100D01*
X225633Y222702D01*
X225136Y222058D01*
X224407Y221700D01*
X215531D01*
X214719Y222169D01*
X214250Y222981D01*
Y225911D01*
X214030Y226441D01*
X213500Y226661D01*
X212970Y226441D01*
X212536Y226008D01*
X211672Y225650D01*
X197050D01*
Y216673D01*
X197634Y217887D01*
X198687Y218726D01*
X200000Y219026D01*
X201313Y218726D01*
X202366Y217887D01*
X202950Y216673D01*
Y215327D01*
X202366Y214113D01*
X201313Y213274D01*
X200000Y212974D01*
X198687Y213274D01*
X197634Y214113D01*
X197050Y215327D01*
Y225650D01*
X196000D01*
X195470Y225430D01*
X195250Y224900D01*
Y220031D01*
X194781Y219219D01*
X193969Y218750D01*
X187500D01*
X187214Y218774D01*
X186663Y218649D01*
X186355Y218176D01*
X186464Y217621D01*
X186837Y217055D01*
X187013Y215710D01*
X186584Y214424D01*
X185637Y213454D01*
X184999Y213224D01*
X184846Y213148D01*
X183855Y212508D01*
X183732Y212409D01*
X163570Y192246D01*
X163350Y191716D01*
Y176100D01*
X163570Y175570D01*
X164100Y175350D01*
X175905D01*
X176302Y175464D01*
X176578Y175770D01*
X176799Y176220D01*
X177649Y176750D01*
X179250D01*
X179780Y176970D01*
X180000Y177500D01*
Y180013D01*
X179806Y180516D01*
X179325Y180759D01*
X178450Y181100D01*
X178000Y181250D01*
X177550Y181100D01*
X177323Y180930D01*
X176784Y180750D01*
X170031D01*
X169219Y181219D01*
X168750Y182031D01*
Y187969D01*
X169219Y188781D01*
X170031Y189250D01*
X176784D01*
X177323Y189070D01*
X177550Y188900D01*
X178000Y188750D01*
X178450Y188900D01*
X179150Y189215D01*
X179581Y189475D01*
X179750Y189950D01*
Y199547D01*
X180169Y200558D01*
X189942Y210331D01*
X190953Y210750D01*
X201173D01*
X201394Y210783D01*
X204859Y211852D01*
X205055Y211946D01*
X205795Y212442D01*
X207534Y212830D01*
X209296Y212562D01*
X210840Y211673D01*
X211399Y210980D01*
X211983Y210700D01*
X213550D01*
X214025Y210869D01*
X214285Y211300D01*
X214367Y211698D01*
X214864Y212342D01*
X215593Y212700D01*
X224469D01*
X225281Y212231D01*
X225750Y211419D01*
Y204481D01*
X225281Y203669D01*
X224469Y203200D01*
X215593D01*
X214864Y203558D01*
X214367Y204202D01*
X214285Y204600D01*
X214025Y205031D01*
X213550Y205200D01*
X211901D01*
X211328Y204934D01*
X210762Y204265D01*
X209228Y203418D01*
X207492Y203174D01*
X205783Y203566D01*
X205055Y204054D01*
X204859Y204148D01*
X201394Y205217D01*
X201173Y205250D01*
X192950D01*
X192419Y205030D01*
X185470Y198081D01*
X185250Y197550D01*
Y189950D01*
X185419Y189475D01*
X185850Y189215D01*
X186248Y189133D01*
X186892Y188636D01*
X187250Y187907D01*
Y182062D01*
X186838Y181290D01*
X186111Y180803D01*
X185675Y180759D01*
X185194Y180516D01*
X185000Y180013D01*
Y177500D01*
X185220Y176970D01*
X185750Y176750D01*
X187351D01*
X188201Y176220D01*
X188422Y175770D01*
X188698Y175464D01*
X189095Y175350D01*
X191467D01*
X192331Y174992D01*
X212992Y154331D01*
X213350Y153467D01*
Y150729D01*
X213367Y150572D01*
X213614Y149418D01*
X213669Y149256D01*
X213925Y148714D01*
X213971Y147514D01*
X213545Y146392D01*
X212715Y145526D01*
X212164Y145289D01*
X211733Y144788D01*
X211866Y144141D01*
X212460Y143850D01*
X216216D01*
X216746Y144070D01*
X251682Y179006D01*
X251902Y179536D01*
Y197268D01*
G37*
G74*
*
*
G04 PC Copper Outlines (5)*
G04 Layer Name MCA.pcb - dark (5)*
%LPD*%
*
*
G04 PC Area=ANP000169*
G75*
G36*
G01*
X223721Y245650D02*
X208050D01*
Y238673D01*
X208634Y239887D01*
X209687Y240726D01*
X211000Y241026D01*
X212313Y240726D01*
X213366Y239887D01*
X213950Y238673D01*
Y237327D01*
X213366Y236113D01*
X212313Y235274D01*
X211000Y234974D01*
X209687Y235274D01*
X208634Y236113D01*
X208050Y237327D01*
Y245650D01*
X200050D01*
Y238673D01*
X200634Y239887D01*
X201687Y240726D01*
X203000Y241026D01*
X204313Y240726D01*
X205366Y239887D01*
X205950Y238673D01*
Y237327D01*
X205366Y236113D01*
X204313Y235274D01*
X203000Y234974D01*
X201687Y235274D01*
X200634Y236113D01*
X200050Y237327D01*
Y245650D01*
X196000D01*
X195470Y245430D01*
X195250Y244900D01*
Y240032D01*
X194783Y239222D01*
X193975Y238752D01*
X193507Y238750D01*
X192977Y238530D01*
X192757Y238000D01*
X192977Y237470D01*
X193507Y237250D01*
X193975Y237248D01*
X194783Y236778D01*
X195250Y235968D01*
Y231100D01*
X195470Y230570D01*
X196000Y230350D01*
X209921D01*
X210451Y230570D01*
X224251Y244370D01*
X224471Y244900D01*
X224251Y245430D01*
X223721Y245650D01*
G37*
G74*
*
*
G04 PC Copper Outlines (6)*
G04 Layer Name MCA.pcb - dark (6)*
%LPD*%
*
*
G04 PC Area=ANP000157*
G75*
G36*
G01*
X258739Y299713D02*
X258091Y299589D01*
X256713D01*
X256093Y299702D01*
X255561D01*
X254941Y299589D01*
X253563D01*
X252943Y299702D01*
X252411D01*
X252050Y299636D01*
Y290673D01*
X252634Y291887D01*
X253687Y292726D01*
X255000Y293026D01*
X256313Y292726D01*
X257366Y291887D01*
X257950Y290673D01*
Y289327D01*
X257366Y288113D01*
X256313Y287274D01*
X255000Y286974D01*
X253687Y287274D01*
X252634Y288113D01*
X252050Y289327D01*
Y299636D01*
X251791Y299589D01*
X250500D01*
Y279299D01*
X251193Y280738D01*
X252442Y281735D01*
X254000Y282090D01*
X255558Y281735D01*
X256807Y280738D01*
X257500Y279299D01*
Y277701D01*
X256807Y276262D01*
X255558Y275265D01*
X254000Y274910D01*
X252442Y275265D01*
X251193Y276262D01*
X250500Y277701D01*
Y299589D01*
X250413D01*
X249793Y299702D01*
X249262D01*
X248642Y299589D01*
X247264D01*
X246644Y299702D01*
X246112D01*
X245492Y299589D01*
X244114D01*
X243494Y299702D01*
X242963D01*
X242343Y299589D01*
X240965D01*
X240344Y299702D01*
X240050D01*
Y290673D01*
X240634Y291887D01*
X241687Y292726D01*
X243000Y293026D01*
X244313Y292726D01*
X245366Y291887D01*
X245950Y290673D01*
Y289327D01*
X245366Y288113D01*
X244313Y287274D01*
X243000Y286974D01*
X241687Y287274D01*
X240634Y288113D01*
X240050Y289327D01*
Y279673D01*
X240634Y280887D01*
X241687Y281726D01*
X243000Y282026D01*
X244313Y281726D01*
X245366Y280887D01*
X245950Y279673D01*
Y278327D01*
X245366Y277113D01*
X244313Y276274D01*
X243000Y275974D01*
X241687Y276274D01*
X240634Y277113D01*
X240050Y278327D01*
Y299702D01*
X239813D01*
X239193Y299589D01*
X237815D01*
X237195Y299702D01*
X236663D01*
X236043Y299589D01*
X234665D01*
X234045Y299702D01*
X233514D01*
X232894Y299589D01*
X231516D01*
X230896Y299702D01*
X230364D01*
X229744Y299589D01*
X228366D01*
X228050Y299646D01*
Y290673D01*
X228634Y291887D01*
X229687Y292726D01*
X231000Y293026D01*
X232313Y292726D01*
X233366Y291887D01*
X233950Y290673D01*
Y289327D01*
X233366Y288113D01*
X232313Y287274D01*
X231000Y286974D01*
X229687Y287274D01*
X228634Y288113D01*
X228050Y289327D01*
Y299646D01*
X227746Y299702D01*
X227215D01*
X226594Y299589D01*
X225217D01*
X224569Y299713D01*
X224001Y299708D01*
X223599Y299306D01*
X223594Y298739D01*
X223719Y298091D01*
Y296713D01*
X223556Y295827D01*
X223719Y294941D01*
Y293563D01*
X223556Y292677D01*
X223719Y291791D01*
Y290413D01*
X223556Y289528D01*
X223719Y288642D01*
Y287264D01*
X223556Y286378D01*
X223719Y285492D01*
Y284114D01*
X223556Y283228D01*
X223719Y282343D01*
Y280965D01*
X223556Y280079D01*
X223719Y279193D01*
Y277815D01*
X223556Y276929D01*
X223719Y276043D01*
Y274665D01*
X223556Y273780D01*
X223719Y272894D01*
Y271516D01*
X223556Y270630D01*
X223719Y269744D01*
Y268655D01*
X223887Y268182D01*
X224317Y267921D01*
X224815Y267990D01*
X225900Y268256D01*
X258839D01*
X259369Y268475D01*
X259589Y269006D01*
Y269744D01*
X259751Y270630D01*
X259589Y271516D01*
Y272894D01*
X259751Y273780D01*
X259589Y274665D01*
Y276043D01*
X259751Y276929D01*
X259589Y277815D01*
Y279193D01*
X259751Y280079D01*
X259589Y280965D01*
Y282343D01*
X259751Y283228D01*
X259589Y284114D01*
Y285492D01*
X259751Y286378D01*
X259589Y287264D01*
Y288642D01*
X259751Y289528D01*
X259589Y290413D01*
Y291791D01*
X259751Y292677D01*
X259589Y293563D01*
Y294941D01*
X259751Y295827D01*
X259589Y296713D01*
Y298091D01*
X259713Y298739D01*
X259708Y299306D01*
X259306Y299708D01*
X258739Y299713D01*
G37*
G74*
*
*
G04 PC Copper Outlines (7)*
G04 Layer Name MCA.pcb - dark (7)*
%LPD*%
*
*
G04 PC Area=ANP000148*
G75*
G36*
G01*
X187493Y238750D02*
X186450Y239100D01*
X186000Y239250D01*
X185550Y239100D01*
X184507Y238750D01*
X183977Y238530D01*
X183757Y238000D01*
X183977Y237470D01*
X184507Y237250D01*
X185550Y236900D01*
X186000Y236750D01*
X186450Y236900D01*
X187493Y237250D01*
X188023Y237470D01*
X188243Y238000D01*
X188023Y238530D01*
X187493Y238750D01*
G37*
G74*
*
*
G04 PC Copper Outlines (8)*
G04 Layer Name MCA.pcb - dark (8)*
%LPD*%
*
*
G04 PC Area=ANP000123*
G75*
G36*
G01*
X223591Y300691D02*
X223467Y301339D01*
Y309213D01*
X223555Y309874D01*
Y335716D01*
X223336Y336246D01*
X214050Y345532D01*
Y327673D01*
X214634Y328887D01*
X215687Y329726D01*
X217000Y330026D01*
X218313Y329726D01*
X219366Y328887D01*
X219950Y327673D01*
Y326327D01*
X219366Y325113D01*
X218313Y324274D01*
X217000Y323974D01*
X215687Y324274D01*
X214634Y325113D01*
X214050Y326327D01*
Y315673D01*
X214634Y316887D01*
X215687Y317726D01*
X217000Y318026D01*
X218313Y317726D01*
X219366Y316887D01*
X219950Y315673D01*
Y314327D01*
X219366Y313113D01*
X218313Y312274D01*
X217000Y311974D01*
X215687Y312274D01*
X214634Y313113D01*
X214050Y314327D01*
Y345532D01*
X197050Y362532D01*
Y352673D01*
X197634Y353887D01*
X198687Y354726D01*
X200000Y355026D01*
X201313Y354726D01*
X202366Y353887D01*
X202950Y352673D01*
Y351327D01*
X202366Y350113D01*
X201313Y349274D01*
X200000Y348974D01*
X198687Y349274D01*
X197634Y350113D01*
X197050Y351327D01*
Y339673D01*
X197634Y340887D01*
X198687Y341726D01*
X200000Y342026D01*
X201313Y341726D01*
X202366Y340887D01*
X202950Y339673D01*
Y338327D01*
X202366Y337113D01*
X201313Y336274D01*
X200000Y335974D01*
X198687Y336274D01*
X197634Y337113D01*
X197050Y338327D01*
Y327673D01*
X197634Y328887D01*
X198687Y329726D01*
X200000Y330026D01*
X201313Y329726D01*
X202366Y328887D01*
X202950Y327673D01*
Y326327D01*
X202366Y325113D01*
X201313Y324274D01*
X200000Y323974D01*
X198687Y324274D01*
X197634Y325113D01*
X197050Y326327D01*
Y362532D01*
X155226Y404356D01*
X154708Y404575D01*
X154183Y404372D01*
X153947Y403861D01*
X153915Y403199D01*
X153292Y402029D01*
X152229Y401237D01*
X150929Y400977D01*
X149642Y401298D01*
X148617Y402139D01*
X148050Y403337D01*
Y404676D01*
X148638Y405892D01*
X149168Y406312D01*
X149452Y406900D01*
X149232Y407430D01*
X148702Y407650D01*
X147550D01*
Y390673D01*
X148134Y391887D01*
X149187Y392726D01*
X150500Y393026D01*
X151813Y392726D01*
X152866Y391887D01*
X153450Y390673D01*
Y389327D01*
X152866Y388113D01*
X151813Y387274D01*
X150500Y386974D01*
X149187Y387274D01*
X148134Y388113D01*
X148050Y388288D01*
Y372673D01*
X148634Y373887D01*
X149687Y374726D01*
X151000Y375026D01*
X152313Y374726D01*
X153366Y373887D01*
X153950Y372673D01*
Y371327D01*
X153366Y370113D01*
X152313Y369274D01*
X151000Y368974D01*
X149687Y369274D01*
X148634Y370113D01*
X148050Y371327D01*
Y388288D01*
X147550Y389327D01*
Y407650D01*
X115589D01*
X115314Y407598D01*
X112033Y406303D01*
X111857Y406205D01*
X110979Y405682D01*
X110595Y405278D01*
Y404722D01*
X110979Y404318D01*
X111706Y403985D01*
X112862Y402879D01*
X113592Y401456D01*
X113703Y400664D01*
X113758Y400470D01*
X115163Y397234D01*
X115321Y397002D01*
X155929Y356394D01*
X156533Y356178D01*
X157084Y356508D01*
X157177Y357142D01*
X156967Y357836D01*
X157236Y359261D01*
X158136Y360399D01*
X159460Y360989D01*
X160907Y360899D01*
X162148Y360148D01*
X162899Y358907D01*
X162989Y357460D01*
X162399Y356136D01*
X161261Y355236D01*
X159836Y354967D01*
X159142Y355177D01*
X158508Y355084D01*
X158178Y354533D01*
X158394Y353929D01*
X212352Y299971D01*
X212882Y299752D01*
X213433D01*
X214094Y299841D01*
X221969D01*
X222617Y299716D01*
X223184Y299721D01*
X223586Y300123D01*
X223591Y300691D01*
G37*
G74*
*
*
G04 PC Copper Outlines (9)*
G04 Layer Name MCA.pcb - dark (9)*
%LPD*%
*
*
G04 PC Area=Custom_Thermal*
*
G04 PC Custom Flashes*
G04 Layer Name MCA.pcb - flashes*
%LPD*%
*
*
G04 PC Circuitry*
G04 Layer Name MCA.pcb - circuitry*
%LPD*%
*
G54D10*
G01X194737Y236737D02*
X192768Y234768D01*
X186263Y236737D02*
X188232Y234768D01*
X194737Y239263D02*
X192768Y241232D01*
X186263Y239263D02*
X188232Y241232D01*
X169263Y181263D02*
X171232Y183232D01*
X169263Y188737D02*
X171232Y186768D01*
X177737Y188737D02*
X175768Y186768D01*
X177737Y181263D02*
X175768Y183232D01*
X235737Y213263D02*
X233768Y215232D01*
X228263Y213263D02*
X230232Y215232D01*
X228263Y221737D02*
X230232Y219768D01*
X194737Y219263D02*
X192768Y221232D01*
X186263Y219263D02*
X188232Y221232D01*
X180663Y166237D02*
X182076Y164824D01*
X184337Y166237D02*
X182924Y164824D01*
X184337Y159763D02*
X182924Y161176D01*
X364263Y346737D02*
X366232Y344768D01*
X371737Y346737D02*
X369768Y344768D01*
X371737Y338263D02*
X369768Y340232D01*
X364263Y338263D02*
X366232Y340232D01*
X234763Y364737D02*
X236732Y362768D01*
X242237Y364737D02*
X240268Y362768D01*
X242237Y356263D02*
X240268Y358232D01*
X234763Y356263D02*
X236732Y358232D01*
X348263Y180737D02*
X350232Y178768D01*
X355737Y180737D02*
X353768Y178768D01*
X355737Y172263D02*
X353768Y174232D01*
X348263Y172263D02*
X350232Y174232D01*
X337263Y180737D02*
X339232Y178768D01*
X344737Y180737D02*
X342768Y178768D01*
X344737Y172263D02*
X342768Y174232D01*
X337263Y172263D02*
X339232Y174232D01*
X308263Y180737D02*
X310232Y178768D01*
X315737Y180737D02*
X313768Y178768D01*
X315737Y172263D02*
X313768Y174232D01*
X308263Y172263D02*
X310232Y174232D01*
X297263Y180737D02*
X299232Y178768D01*
X304737Y180737D02*
X302768Y178768D01*
X304737Y172263D02*
X302768Y174232D01*
X297263Y172263D02*
X299232Y174232D01*
G54D11*
X201000Y137000D02*
X197182Y128818D01*
X201000Y131600*
X204818Y128818*
X201000Y137000*
X197733Y130000D02*
X198804D01*
X203196D02*
X204267D01*
X198293Y131200D02*
X200451D01*
X201549D02*
X203707D01*
X198853Y132400D02*
X203147D01*
X199413Y133600D02*
X202587D01*
X199973Y134800D02*
X202027D01*
X200533Y136000D02*
X201467D01*
X197200Y128832D02*
Y128858D01*
X198400Y129706D02*
Y131429D01*
X199600Y130580D02*
Y134000D01*
X200800Y131454D02*
Y136571D01*
X202000Y130872D02*
Y134857D01*
X203200Y129997D02*
Y132286D01*
X204400Y129123D02*
Y129715D01*
X188050Y163000D02*
X189562Y162590D01*
X188200Y163000*
X189562Y163410*
X188050Y163000*
X188800Y162797D02*
Y162819D01*
Y163181D02*
Y163203D01*
X182303Y214303D02*
X184000Y215400D01*
X182727Y214727*
X183400Y216000*
X182303Y214303*
X182883Y215200D02*
X182977D01*
X183622D02*
X183691D01*
X182800Y214624D02*
Y214766D01*
Y214865D02*
Y215072D01*
X184000Y215400D02*
X184000D01*
X211000Y150400D02*
X210576Y148424D01*
X211000Y149800*
X211424Y148424*
X211000Y150400*
X210742Y149200D02*
X210815D01*
X211185D02*
X211258D01*
X211000Y150400D02*
X211000D01*
X210100Y171000D02*
X208124Y171424D01*
X209500Y171000*
X208124Y170576*
X210100Y171000*
X208851Y170800D02*
X209169D01*
X209200Y170807D02*
Y170907D01*
Y171093D02*
Y171193D01*
X210100Y176000D02*
X208124Y176424D01*
X209500Y176000*
X208124Y175576*
X210100Y176000*
X208203Y175600D02*
X208237D01*
X209200Y175807D02*
Y175907D01*
Y176093D02*
Y176193D01*
X251100Y250700D02*
X250676Y248724D01*
X251100Y250100*
X251524Y248724*
X251100Y250700*
X250692Y248800D02*
X250699D01*
X251501D02*
X251508D01*
X250950Y250000D02*
X251069D01*
X251131D02*
X251250D01*
X251200Y249776D02*
Y250234D01*
X289600Y245900D02*
X290024Y247876D01*
X289600Y246500*
X289176Y247876*
X289600Y245900*
X289493Y246400D02*
X289707D01*
X289235Y247600D02*
X289261D01*
X289939D02*
X289965D01*
X289600Y245900D02*
Y246500D01*
X302597Y242703D02*
X301500Y244400D01*
X302173Y243127*
X300900Y243800*
X302597Y242703*
X302447Y242800D02*
X302534D01*
X301711Y244000D02*
X301759D01*
X301600Y243347D02*
Y243430D01*
Y244211D02*
Y244245D01*
X244500Y224600D02*
X244076Y222624D01*
X244500Y224000*
X244924Y222624*
X244500Y224600*
X244285Y223600D02*
X244377D01*
X244623D02*
X244715D01*
X248000Y246800D02*
X247576Y244824D01*
X248000Y246200*
X248424Y244824*
X248000Y246800*
X247656Y245200D02*
X247692D01*
X248308D02*
X248344D01*
X247914Y246400D02*
X248086D01*
X247600Y244903D02*
Y244937D01*
X261000Y137000D02*
X257182Y128818D01*
X261000Y131600*
X264818Y128818*
X261000Y137000*
X257733Y130000D02*
X258804D01*
X263196D02*
X264267D01*
X258293Y131200D02*
X260451D01*
X261549D02*
X263707D01*
X258853Y132400D02*
X263147D01*
X259413Y133600D02*
X262587D01*
X259973Y134800D02*
X262027D01*
X260533Y136000D02*
X261467D01*
X257200Y128832D02*
Y128858D01*
X258400Y129706D02*
Y131429D01*
X259600Y130580D02*
Y134000D01*
X260800Y131454D02*
Y136571D01*
X262000Y130872D02*
Y134857D01*
X263200Y129997D02*
Y132286D01*
X264400Y129123D02*
Y129715D01*
X179900Y269000D02*
X177924Y269424D01*
X179300Y269000*
X177924Y268576*
X179900Y269000*
X178651Y269200D02*
X178969D01*
X178000Y268592D02*
Y268599D01*
Y269401D02*
Y269408D01*
X179200Y268850D02*
Y268969D01*
Y269031D02*
Y269150D01*
X189900Y261200D02*
X187924Y261624D01*
X189300Y261200*
X187924Y260776*
X189900Y261200*
X188003Y260800D02*
X188037D01*
X188800Y260964D02*
Y261046D01*
Y261354D02*
Y261436D01*
X292000Y269100D02*
X293976Y268676D01*
X292600Y269100*
X293976Y269524*
X292000Y269100*
X292466Y269200D02*
X292924D01*
X292000Y269100D02*
X292000D01*
X293200Y268842D02*
Y268915D01*
Y269285D02*
Y269358D01*
X194900Y272200D02*
X192924Y272624D01*
X194300Y272200*
X192924Y271776*
X194900Y272200*
X193600Y271921D02*
Y271984D01*
Y272416D02*
Y272479D01*
X194800Y272179D02*
Y272221D01*
X186400Y281700D02*
X184424Y282124D01*
X185800Y281700*
X184424Y281276*
X186400Y281700*
X185200Y281442D02*
Y281515D01*
Y281885D02*
Y281958D01*
X186400Y281700D02*
X186400D01*
X383757Y210243D02*
X385600Y206000D01*
X385454Y208546*
X388000Y208400*
X383757Y210243*
X385253Y206800D02*
X385554D01*
X384731Y208000D02*
X385486D01*
X384210Y209200D02*
X386158D01*
X384400Y208763D02*
Y209964D01*
X385600Y206000D02*
X385600D01*
Y208537D02*
Y209442D01*
X386800Y208469D02*
Y208921D01*
X388000Y208400D02*
X388000D01*
X383757Y200243D02*
X385600Y196000D01*
X385454Y198546*
X388000Y198400*
X383757Y200243*
X385079Y197200D02*
X385531D01*
X384558Y198400D02*
X385463D01*
X384036Y199600D02*
X385237D01*
X384400Y198763D02*
Y199964D01*
X385600Y196000D02*
X385600D01*
Y198537D02*
Y199442D01*
X386800Y198469D02*
Y198921D01*
X388000Y198400D02*
X388000D01*
X383757Y190243D02*
X385600Y186000D01*
X385454Y188546*
X388000Y188400*
X383757Y190243*
X385426Y186400D02*
X385577D01*
X384905Y187600D02*
X385508D01*
X384384Y188800D02*
X387079D01*
X383863Y190000D02*
X384316D01*
X384400Y188763D02*
Y189964D01*
X385600Y186000D02*
X385600D01*
Y188537D02*
Y189442D01*
X386800Y188469D02*
Y188921D01*
X388000Y188400D02*
X388000D01*
X383757Y240243D02*
X385600Y236000D01*
X385454Y238546*
X388000Y238400*
X383757Y240243*
X385253Y236800D02*
X385554D01*
X384731Y238000D02*
X385486D01*
X384210Y239200D02*
X386158D01*
X384400Y238763D02*
Y239964D01*
X385600Y236000D02*
X385600D01*
Y238537D02*
Y239442D01*
X386800Y238469D02*
Y238921D01*
X388000Y238400D02*
X388000D01*
X383757Y230243D02*
X385600Y226000D01*
X385454Y228546*
X388000Y228400*
X383757Y230243*
X385079Y227200D02*
X385531D01*
X384558Y228400D02*
X385463D01*
X384036Y229600D02*
X385237D01*
X384400Y228763D02*
Y229964D01*
X385600Y226000D02*
X385600D01*
Y228537D02*
Y229442D01*
X386800Y228469D02*
Y228921D01*
X388000Y228400D02*
X388000D01*
X383757Y220243D02*
X385600Y216000D01*
X385454Y218546*
X388000Y218400*
X383757Y220243*
X385426Y216400D02*
X385577D01*
X384905Y217600D02*
X385508D01*
X384384Y218800D02*
X387079D01*
X383863Y220000D02*
X384316D01*
X384400Y218763D02*
Y219964D01*
X385600Y216000D02*
X385600D01*
Y218537D02*
Y219442D01*
X386800Y218469D02*
Y218921D01*
X388000Y218400D02*
X388000D01*
X383757Y290243D02*
X385600Y286000D01*
X385454Y288546*
X388000Y288400*
X383757Y290243*
X385079Y287200D02*
X385531D01*
X384558Y288400D02*
X385463D01*
X384036Y289600D02*
X385237D01*
X384400Y288763D02*
Y289964D01*
X385600Y286000D02*
X385600D01*
Y288537D02*
Y289442D01*
X386800Y288469D02*
Y288921D01*
X388000Y288400D02*
X388000D01*
X383757Y280243D02*
X385600Y276000D01*
X385454Y278546*
X388000Y278400*
X383757Y280243*
X385426Y276400D02*
X385577D01*
X384905Y277600D02*
X385508D01*
X384384Y278800D02*
X387079D01*
X383863Y280000D02*
X384316D01*
X384400Y278763D02*
Y279964D01*
X385600Y276000D02*
X385600D01*
Y278537D02*
Y279442D01*
X386800Y278469D02*
Y278921D01*
X388000Y278400D02*
X388000D01*
X383757Y270243D02*
X385600Y266000D01*
X385454Y268546*
X388000Y268400*
X383757Y270243*
X385253Y266800D02*
X385554D01*
X384731Y268000D02*
X385486D01*
X384210Y269200D02*
X386158D01*
X384400Y268763D02*
Y269964D01*
X385600Y266000D02*
X385600D01*
Y268537D02*
Y269442D01*
X386800Y268469D02*
Y268921D01*
X388000Y268400D02*
X388000D01*
X383757Y260243D02*
X385600Y256000D01*
X385454Y258546*
X388000Y258400*
X383757Y260243*
X385079Y257200D02*
X385531D01*
X384558Y258400D02*
X385463D01*
X384036Y259600D02*
X385237D01*
X384400Y258763D02*
Y259964D01*
X385600Y256000D02*
X385600D01*
Y258537D02*
Y259442D01*
X386800Y258469D02*
Y258921D01*
X388000Y258400D02*
X388000D01*
X113243Y325757D02*
X111400Y330000D01*
X111546Y327454*
X109000Y327600*
X113243Y325757*
X110842Y326800D02*
X112790D01*
X111514Y328000D02*
X112269D01*
X111446Y329200D02*
X111747D01*
X109600Y327339D02*
Y327566D01*
X110800Y326818D02*
Y327497D01*
X112000Y326297D02*
Y328619D01*
X113200Y325776D02*
Y325856D01*
X296800Y331200D02*
X294824Y331624D01*
X296200Y331200*
X294824Y330776*
X296800Y331200*
X294903Y331600D02*
X294937D01*
X295600Y330942D02*
Y331015D01*
Y331385D02*
Y331458D01*
X296800Y331200D02*
X296800D01*
X113243Y335757D02*
X111400Y340000D01*
X111546Y337454*
X109000Y337600*
X113243Y335757*
X111763Y336400D02*
X112964D01*
X109000Y337600D02*
X109000D01*
X111537D02*
X112442D01*
X111469Y338800D02*
X111921D01*
X111400Y340000D02*
X111400D01*
X109600Y337339D02*
Y337566D01*
X110800Y336818D02*
Y337497D01*
X112000Y336297D02*
Y338619D01*
X113200Y335776D02*
Y335856D01*
X113243Y345757D02*
X111400Y350000D01*
X111546Y347454*
X109000Y347600*
X113243Y345757*
X112684Y346000D02*
X113137D01*
X109921Y347200D02*
X112616D01*
X111492Y348400D02*
X112095D01*
X111423Y349600D02*
X111574D01*
X109600Y347339D02*
Y347566D01*
X110800Y346818D02*
Y347497D01*
X112000Y346297D02*
Y348619D01*
X113200Y345776D02*
Y345856D01*
X113243Y355757D02*
X111400Y360000D01*
X111546Y357454*
X109000Y357600*
X113243Y355757*
X110842Y356800D02*
X112790D01*
X111514Y358000D02*
X112269D01*
X111446Y359200D02*
X111747D01*
X109600Y357339D02*
Y357566D01*
X110800Y356818D02*
Y357497D01*
X112000Y356297D02*
Y358619D01*
X113200Y355776D02*
Y355856D01*
X113243Y365757D02*
X111400Y370000D01*
X111546Y367454*
X109000Y367600*
X113243Y365757*
X111763Y366400D02*
X112964D01*
X109000Y367600D02*
X109000D01*
X111537D02*
X112442D01*
X111469Y368800D02*
X111921D01*
X111400Y370000D02*
X111400D01*
X109600Y367339D02*
Y367566D01*
X110800Y366818D02*
Y367497D01*
X112000Y366297D02*
Y368619D01*
X113200Y365776D02*
Y365856D01*
X113243Y375757D02*
X111400Y380000D01*
X111546Y377454*
X109000Y377600*
X113243Y375757*
X112684Y376000D02*
X113137D01*
X109921Y377200D02*
X112616D01*
X111492Y378400D02*
X112095D01*
X111423Y379600D02*
X111574D01*
X109600Y377339D02*
Y377566D01*
X110800Y376818D02*
Y377497D01*
X112000Y376297D02*
Y378619D01*
X113200Y375776D02*
Y375856D01*
X113243Y385757D02*
X111400Y390000D01*
X111546Y387454*
X109000Y387600*
X113243Y385757*
X110842Y386800D02*
X112790D01*
X111514Y388000D02*
X112269D01*
X111446Y389200D02*
X111747D01*
X109600Y387339D02*
Y387566D01*
X110800Y386818D02*
Y387497D01*
X112000Y386297D02*
Y388619D01*
X113200Y385776D02*
Y385856D01*
X113243Y395757D02*
X111400Y400000D01*
X111546Y397454*
X109000Y397600*
X113243Y395757*
X111763Y396400D02*
X112964D01*
X109000Y397600D02*
X109000D01*
X111537D02*
X112442D01*
X111469Y398800D02*
X111921D01*
X111400Y400000D02*
X111400D01*
X109600Y397339D02*
Y397566D01*
X110800Y396818D02*
Y397497D01*
X112000Y396297D02*
Y398619D01*
X113200Y395776D02*
Y395856D01*
X115000Y410000D02*
X110697Y411697D01*
X112600Y410000*
X110697Y408303*
X115000Y410000*
X110806Y408400D02*
X110943D01*
X112151Y409600D02*
X113986D01*
X111703Y410800D02*
X112972D01*
X110800Y408344D02*
Y408395D01*
Y411605D02*
Y411656D01*
X112000Y408817D02*
Y409465D01*
Y410535D02*
Y411183D01*
X113200Y409290D02*
Y410710D01*
X114400Y409763D02*
Y410237D01*
X113243Y415757D02*
X111400Y420000D01*
X111546Y417454*
X109000Y417600*
X113243Y415757*
X110842Y416800D02*
X112790D01*
X111514Y418000D02*
X112269D01*
X111446Y419200D02*
X111747D01*
X109600Y417339D02*
Y417566D01*
X110800Y416818D02*
Y417497D01*
X112000Y416297D02*
Y418619D01*
X113200Y415776D02*
Y415856D01*
X113243Y425757D02*
X111400Y430000D01*
X111546Y427454*
X109000Y427600*
X113243Y425757*
X111763Y426400D02*
X112964D01*
X109000Y427600D02*
X109000D01*
X111537D02*
X112442D01*
X111469Y428800D02*
X111921D01*
X111400Y430000D02*
X111400D01*
X109600Y427339D02*
Y427566D01*
X110800Y426818D02*
Y427497D01*
X112000Y426297D02*
Y428619D01*
X113200Y425776D02*
Y425856D01*
X177000Y442000D02*
X175303Y437697D01*
X177000Y439600*
X178697Y437697*
X177000Y442000*
X175580Y438400D02*
X175930D01*
X178070D02*
X178420D01*
X176053Y439600D02*
X177000D01*
X177947*
X176527Y440800D02*
X177473D01*
X177000Y442000D02*
X177000D01*
X175600Y438030D02*
Y438450D01*
X176800Y439376D02*
Y441493D01*
X178000Y438479D02*
Y439464D01*
X177000Y463000D02*
X180818Y471182D01*
X177000Y468400*
X173182Y471182*
X177000Y463000*
X176720Y463600D02*
X177280D01*
X176160Y464800D02*
X177840D01*
X175600Y466000D02*
X178400D01*
X175040Y467200D02*
X178960D01*
X174480Y468400D02*
X177000D01*
X179520*
X173920Y469600D02*
X175353D01*
X178647D02*
X180080D01*
X173360Y470800D02*
X173705D01*
X180295D02*
X180640D01*
X173200Y471142D02*
Y471168D01*
X174400Y468571D02*
Y470294D01*
X175600Y466000D02*
Y469420D01*
X176800Y463429D02*
Y468546D01*
X178000Y465143D02*
Y469128D01*
X179200Y467714D02*
Y470003D01*
X180400Y470285D02*
Y470877D01*
X113243Y435757D02*
X111400Y440000D01*
X111546Y437454*
X109000Y437600*
X113243Y435757*
X112684Y436000D02*
X113137D01*
X109921Y437200D02*
X112616D01*
X111492Y438400D02*
X112095D01*
X111423Y439600D02*
X111574D01*
X109600Y437339D02*
Y437566D01*
X110800Y436818D02*
Y437497D01*
X112000Y436297D02*
Y438619D01*
X113200Y435776D02*
Y435856D01*
X172757Y428243D02*
X174600Y424000D01*
X174454Y426546*
X177000Y426400*
X172757Y428243*
X174079Y425200D02*
X174531D01*
X173558Y426400D02*
X174463D01*
X173036Y427600D02*
X174237D01*
X173200Y427223D02*
Y428050D01*
X174400Y424461D02*
Y427529D01*
X175600Y426480D02*
Y427008D01*
X176800Y426411D02*
Y426487D01*
X161000Y125000D02*
Y173000D01*
X200790Y141500D02*
X217500D01*
X254252Y178252*
Y258031*
X200790Y141500D02*
X201000Y141290D01*
Y125000*
X178750Y163000D02*
Y147250D01*
X184500Y141500*
X200790*
X186250Y163000D02*
X190000D01*
X161000Y173000D02*
Y193000D01*
X184000Y216000*
X161000Y173000D02*
X178750D01*
X186250D02*
X191000D01*
X211000Y153000*
Y148000*
X207700Y171000D02*
X220400D01*
X241700Y192300*
X241800*
X249500Y200000*
Y204000*
X207700Y176000D02*
X217800D01*
X238504Y196704*
Y258031*
X181500Y233000D02*
Y228000D01*
X211205*
X232205Y249000*
Y258031*
X181500Y223000D02*
Y228000D01*
X231950Y226450D02*
X232000Y226500D01*
X181500Y253000D02*
Y248000D01*
X227000*
X229055Y250055*
Y258031*
X181500Y243000D02*
Y248000D01*
X251100Y248300D02*
Y258029D01*
X251102Y258031*
X289600Y248300D02*
Y172800D01*
X294900Y167500*
X301000*
X300900Y244400D02*
X330100Y215200D01*
Y172200*
X334800Y167500*
X341000*
X241654Y258031D02*
Y240800D01*
X244500Y237954*
Y222200*
X247953Y258031D02*
X248000Y257984D01*
Y244400*
X244803Y258031D02*
Y243400D01*
X249500Y238703*
Y204000*
X257402Y258031D02*
Y250200D01*
X261000Y246602*
Y125000*
X177500Y269000D02*
X218031D01*
Y269055*
X187500Y261200D02*
X221194D01*
X225900Y265906*
X265276*
Y269055D02*
X265320Y269100D01*
X294400*
X192500Y272200D02*
X218031D01*
Y272205*
X264780Y278500D02*
X265276Y278504D01*
X184000Y281700D02*
X217985D01*
X218031Y281654*
X265276Y287953D02*
X330000D01*
X349000Y268953*
Y245000*
X388000Y206000*
X265276Y284803D02*
X329000D01*
X346000Y267803*
Y238000*
X388000Y196000*
X265276Y281654D02*
X328000D01*
X343000Y266654*
Y231000*
X388000Y186000*
X265276Y297402D02*
X333000D01*
X358000Y272402*
Y266000*
X388000Y236000*
X265276Y294252D02*
X332000D01*
X355000Y271252*
Y259000*
X388000Y226000*
X265276Y291102D02*
X331000D01*
X352000Y270102*
Y252000*
X388000Y216000*
X241654Y305276D02*
Y316000D01*
X253654Y328000*
X374000*
X388000Y314000*
Y296000*
X244803Y305276D02*
Y315000D01*
X254803Y325000*
X349000*
X388000Y286000*
X247953Y305276D02*
Y314000D01*
X255953Y322000*
X342000*
X388000Y276000*
X251102Y305276D02*
Y313102D01*
X257000Y319000*
X335000*
X388000Y266000*
X254252Y305276D02*
Y312000D01*
X258252Y316000*
X328000*
X388000Y256000*
X257402Y305276D02*
X329000D01*
X388000Y246276*
Y246000*
X109000Y330000D02*
X159000Y280000D01*
Y270016*
X170984Y258031*
X225906*
X294400Y331200D02*
X380700D01*
X385000Y335500*
Y342500*
X109000Y340000D02*
X163000Y286000D01*
Y277000*
X174000Y266000*
X217937*
X218031Y265906*
X109000Y350000D02*
X168000Y291000D01*
Y282000*
X174646Y275354*
X218031*
X238500Y351500D02*
X238504Y350996D01*
Y305276*
X238500Y351500D02*
X249500D01*
X368000D02*
Y371000D01*
X385000Y351500D02*
Y371000D01*
X109000Y360000D02*
X173000Y296000D01*
Y287000*
X181496Y278504*
X218031*
X109000Y370000D02*
X191047Y287953D01*
X218031*
X109000Y380000D02*
X197949Y291051D01*
X198000Y291102*
X218031*
X109000Y390000D02*
X204748Y294252D01*
X218031*
X109000Y400000D02*
X211598Y297402D01*
X218031*
X109000Y410000D02*
X152906D01*
X225906Y337000*
Y305276*
X109000Y420000D02*
X117000Y412000D01*
X155239*
X229055Y338184*
Y305276*
X109000Y430000D02*
X125000Y414000D01*
X157250*
X232205Y339045*
Y305276*
X177000Y436000D02*
Y475000D01*
X109000Y440000D02*
X133000Y416000D01*
X160354*
X235354Y341000*
Y305276*
X157000Y475000D02*
Y444000D01*
X177000Y424000*
G54D14*
X311500Y422000D03*
X320500D03*
X181500Y253000D03*
X190500D03*
X181500Y223000D03*
X190500D03*
X181500Y243000D03*
X190500D03*
X181500Y233000D03*
X190500D03*
X182500Y185000D03*
X173500D03*
G54D15*
X352000Y167500D03*
Y176500D03*
X312000Y167500D03*
Y176500D03*
X368000Y342500D03*
Y351500D03*
X385000Y342500D03*
Y351500D03*
X249500Y360500D03*
Y351500D03*
X341000Y167500D03*
Y176500D03*
X232000Y226500D03*
Y217500D03*
X238500Y351500D03*
Y360500D03*
X301000Y167500D03*
Y176500D03*
X368000Y371000D03*
Y380000D03*
X385000Y371000D03*
Y380000D03*
G54D16*
X337000Y440000D03*
X109000Y320000D03*
Y330000D03*
Y340000D03*
Y350000D03*
Y360000D03*
Y370000D03*
Y380000D03*
Y390000D03*
Y400000D03*
Y410000D03*
Y420000D03*
Y430000D03*
Y440000D03*
Y450000D03*
X388000Y286000D03*
Y276000D03*
Y266000D03*
Y256000D03*
Y246000D03*
Y236000D03*
Y226000D03*
Y216000D03*
Y206000D03*
Y196000D03*
Y186000D03*
Y176000D03*
Y166000D03*
Y156000D03*
X282000Y350000D03*
X342000D03*
Y380000D03*
X322000D03*
X282000D03*
X319000Y255400D03*
Y275400D03*
X177000Y436000D03*
Y424000D03*
X207700Y208000D03*
G54D17*
X221000Y207950D02*
X219000D01*
X221000Y226450D02*
X219000D01*
X377000Y440000D03*
X109000Y310000D03*
X388000Y296000D03*
X137000Y436000D03*
Y424000D03*
G54D22*
X337000Y401000D03*
G54D23*
X282000D03*
G54D30*
X254000Y278500D03*
G54D31*
X257500D02*
X254707Y279207D01*
X256500Y278500*
X254707Y277793*
X257500Y278500*
X256500D02*
X257500D01*
X256000Y278120D02*
Y278303D01*
Y278697D02*
Y278880D01*
X257500Y278500D02*
X257500D01*
X210100Y284801D02*
X208018Y285118D01*
X209650Y284801*
X208018Y284482*
X210100Y284801*
X208111Y284500D02*
X208136D01*
X209500Y284709D02*
Y284771D01*
Y284830D02*
Y284892D01*
X182500Y173000D02*
Y185000D01*
X254000Y278500D02*
X264780D01*
X318954Y275354D02*
X319000Y275400D01*
X207700Y284800D02*
X218031Y284803D01*
X330750Y483250D02*
Y434689D01*
X321750Y425689*
Y393750*
X343250*
Y483250*
X330750*
X307750Y497250D02*
Y451189D01*
X297750Y441189*
Y368689*
X290311Y361250*
X274311*
X269750Y356689*
Y344311*
X274311Y339750*
X308689*
X311250Y342311*
Y430311*
X322250Y441311*
Y489750*
X350750*
Y408311*
X357311Y401750*
X380689*
X388250Y409311*
Y452689*
X381689Y459250*
X370689*
X362250Y467689*
Y497250*
X307750*
X287250Y409689D02*
Y375750D01*
X262311*
X209750Y428311*
Y482689*
X215311Y488250*
X241689*
X246250Y483689*
Y438689*
X270689Y414250*
X282689*
X287250Y409689*
X395750Y120000D02*
G75*
G03X395750I-15750J0D01*
G01X326750Y380000D02*
G03X326750I-4750J0D01*
G01X284750Y475000D02*
G03X284750I-7750J0D01*
G01X204750D02*
G03X204750I-7750J0D01*
G01X135750Y480000D02*
G03X135750I-15750J0D01*
G01Y120000D02*
G03X135750I-15750J0D01*
G01X130750Y183000D02*
G03X130750I-7750J0D01*
G01Y203000D02*
G03X130750I-7750J0D01*
G01X188750Y125000D02*
G03X188750I-7750J0D01*
G01X248750D02*
G03X248750I-7750J0D01*
G01X346750Y350000D02*
G03X346750I-4750J0D01*
G01X202950Y216000D02*
G03X202950I-2950J0D01*
G01X213950Y238000D02*
G03X213950I-2950J0D01*
G01X205950D02*
G03X205950I-2950J0D01*
G01X257500Y278500D02*
G03X257500I-3500J0D01*
G01X257950Y290000D02*
G03X257950I-2950J0D01*
G01X245950Y279000D02*
G03X245950I-2950J0D01*
G01Y290000D02*
G03X245950I-2950J0D01*
G01X233950D02*
G03X233950I-2950J0D01*
G01X219950Y315000D02*
G03X219950I-2950J0D01*
G01Y327000D02*
G03X219950I-2950J0D01*
G01X202950D02*
G03X202950I-2950J0D01*
G01Y339000D02*
G03X202950I-2950J0D01*
G01Y352000D02*
G03X202950I-2950J0D01*
G01X153950Y372000D02*
G03X153950I-2950J0D01*
G01X153450Y390000D02*
G03X153450I-2950J0D01*
G01X398450Y102200D02*
Y497700D01*
G03X397700Y498450I-750J-0*
G01X365469*
G03X364726Y497596I-0J-750*
G01X364750Y497250D02*
G03X364726Y497596I-2500J0D01*
G01X364750Y497250D02*
Y487874D01*
G03X366159Y487516I750J0*
G01Y472484D02*
G03Y487516I13841J7516D01*
G01Y472484D02*
G03X364750Y472126I-659J-358D01*
G01Y469036*
G03X364970Y468505I750J-0*
G01X371505Y461970*
G03X372036Y461750I531J530*
G01X381689*
X383457Y461018D02*
G03X381689Y461750I-1768J-1768D01*
G01X383457Y461018D02*
X390018Y454457D01*
X390750Y452689D02*
G03X390018Y454457I-2500J0D01*
G01X390750Y452689D02*
Y409311D01*
X390018Y407543D02*
G03X390750Y409311I-1768J1768D01*
G01X390018Y407543D02*
X382457Y399982D01*
X380689Y399250D02*
G03X382457Y399982I0J2500D01*
G01X380689Y399250D02*
X357311D01*
X355543Y399982D02*
G03X357311Y399250I1768J1768D01*
G01X355543Y399982D02*
X348982Y406543D01*
X348250Y408311D02*
G03X348982Y406543I2500J-0D01*
G01X348250Y408311D02*
Y486500D01*
G03X347500Y487250I-750J-0*
G01X343267*
G03X343263Y485750I-0J-750*
G01X345750Y483250D02*
G03X343263Y485750I-2500J0D01*
G01X345750Y483250D02*
Y393750D01*
X343250Y391250D02*
G03X345750Y393750I0J2500D01*
G01X343250Y391250D02*
X321750D01*
X319250Y393750D02*
G03X321750Y391250I2500J0D01*
G01X319250Y393750D02*
Y417000D01*
G03X318500Y417750I-750J-0*
G01X317500*
X316450Y418100D02*
G03X317500Y417750I1050J1400D01*
G01X316450Y418100D02*
G03X315550I-450J-600D01*
G01X314500Y417750D02*
G03X315550Y418100I0J1750D01*
G01X314500Y417750D02*
G03X313750Y417000I0J-750D01*
G01Y342311*
X313018Y340543D02*
G03X313750Y342311I-1768J1768D01*
G01X313018Y340543D02*
X310457Y337982D01*
X308689Y337250D02*
G03X310457Y337982I0J2500D01*
G01X308689Y337250D02*
X274311D01*
X272543Y337982D02*
G03X274311Y337250I1768J1768D01*
G01X272543Y337982D02*
X267982Y342543D01*
X267250Y344311D02*
G03X267982Y342543I2500J-0D01*
G01X267250Y344311D02*
Y356689D01*
X267982Y358457D02*
G03X267250Y356689I1768J-1768D01*
G01X267982Y358457D02*
X272543Y363018D01*
X274311Y363750D02*
G03X272543Y363018I-0J-2500D01*
G01X274311Y363750D02*
X288964D01*
G03X289495Y363970I0J750*
G01X295030Y369505*
G03X295250Y370036I-530J531*
G01Y441189*
X295982Y442957D02*
G03X295250Y441189I1768J-1768D01*
G01X295982Y442957D02*
X305030Y452005D01*
G03X305250Y452536I-530J531*
G01Y467000*
G03X304050Y467600I-750J-0*
G01X303000Y467250D02*
G03X304050Y467600I0J1750D01*
G01X303000Y467250D02*
X291000D01*
X289250Y469000D02*
G03X291000Y467250I1750J0D01*
G01X289250Y469000D02*
Y481000D01*
X291000Y482750D02*
G03X289250Y481000I0J-1750D01*
G01X291000Y482750D02*
X303000D01*
X304050Y482400D02*
G03X303000Y482750I-1050J-1400D01*
G01X304050Y482400D02*
G03X305250Y483000I450J600D01*
G01Y497250*
X305274Y497596D02*
G03X305250Y497250I2476J-346D01*
G01X305274Y497596D02*
G03X304531Y498450I-743J104D01*
G01X102300*
G03X101550Y497700I0J-750*
G01Y102200*
G03X102300Y101450I750J0*
G01X397700*
G03X398450Y102200I-0J750*
G01X251902Y179536D02*
Y197268D01*
G03X250622Y197798I-750J-0*
G01X243462Y190638*
X243071Y190323D02*
G03X243462Y190638I-1271J1977D01*
G01X243071Y190323D02*
G03X242946Y190223I406J-631D01*
G01X222062Y169338*
X220400Y168650D02*
G03X222062Y169338I0J2350D01*
G01X220400Y168650D02*
X210429D01*
G03X210272Y168633I0J-750*
G01X209118Y168386*
G03X208956Y168331I158J-734*
G01X205525Y172993D02*
G03X208956Y168331I2175J-1993D01*
G01X205525Y172993D02*
G03Y174007I-553J507D01*
G01X208956Y178669D02*
G03X205525Y174007I-1256J-2669D01*
G01X208956Y178669D02*
G03X209118Y178614I320J679D01*
G01X210272Y178367*
G03X210429Y178350I157J733*
G01X216516*
G03X217046Y178570I-0J750*
G01X235934Y197458*
G03X236154Y197988I-530J530*
G01Y212169*
G03X235133Y212868I-750J0*
G01X234500Y212750D02*
G03X235133Y212868I0J1750D01*
G01X234500Y212750D02*
X229500D01*
X227750Y214500D02*
G03X229500Y212750I1750J0D01*
G01X227750Y214500D02*
Y220500D01*
X228100Y221550D02*
G03X227750Y220500I1400J-1050D01*
G01X228100Y221550D02*
G03Y222450I-600J450D01*
G01X227793Y223115D02*
G03X228100Y222450I1707J385D01*
G01X227793Y223115D02*
G03X227061Y223700I-732J-165D01*
G01X226450*
G03X225715Y223100I-0J-750*
G01X224000Y221700D02*
G03X225715Y223100I0J1750D01*
G01X224000Y221700D02*
X216000D01*
X214250Y223450D02*
G03X216000Y221700I1750J0D01*
G01X214250Y223450D02*
Y225911D01*
G03X212970Y226441I-750J0*
G01X212866Y226338*
X211205Y225650D02*
G03X212866Y226338I-0J2350D01*
G01X211205Y225650D02*
X196000D01*
G03X195250Y224900I0J-750*
G01Y220500*
X193500Y218750D02*
G03X195250Y220500I0J1750D01*
G01X193500Y218750D02*
X187500D01*
X187214Y218774D02*
G03X187500Y218750I286J1726D01*
G01X187214Y218774D02*
G03X186464Y217621I-123J-740D01*
G01X184999Y213224D02*
G03X186464Y217621I-999J2776D01*
G01X184999Y213224D02*
G03X184846Y213148I254J-705D01*
G01X183855Y212508*
G03X183732Y212409I407J-630*
G01X163570Y192246*
G03X163350Y191716I530J-530*
G01Y176100*
G03X164100Y175350I750J0*
G01X175905*
G03X176578Y175770I-0J750*
G01X178150Y176750D02*
G03X176578Y175770I0J-1750D01*
G01X178150Y176750D02*
X179250D01*
G03X180000Y177500I-0J750*
G01Y180013*
G03X179325Y180759I-750J-0*
G01X178450Y181100D02*
G03X179325Y180759I1050J1400D01*
G01X178450Y181100D02*
G03X177550I-450J-600D01*
G01X176500Y180750D02*
G03X177550Y181100I0J1750D01*
G01X176500Y180750D02*
X170500D01*
X168750Y182500D02*
G03X170500Y180750I1750J0D01*
G01X168750Y182500D02*
Y187500D01*
X170500Y189250D02*
G03X168750Y187500I0J-1750D01*
G01X170500Y189250D02*
X176500D01*
X177550Y188900D02*
G03X176500Y189250I-1050J-1400D01*
G01X177550Y188900D02*
G03X178450I450J600D01*
G01X179150Y189215D02*
G03X178450Y188900I350J-1715D01*
G01X179150Y189215D02*
G03X179750Y189950I-150J735D01*
G01Y199000*
X180555Y200945D02*
G03X179750Y199000I1945J-1945D01*
G01X180555Y200945D02*
X189555Y209945D01*
X191500Y210750D02*
G03X189555Y209945I0J-2750D01*
G01X191500Y210750D02*
X201173D01*
G03X201394Y210783I-0J750*
G01X204859Y211852*
G03X205055Y211946I-221J717*
G01X211399Y210980D02*
G03X205055Y211946I-3699J-2980D01*
G01X211399Y210980D02*
G03X211983Y210700I584J470D01*
G01X213550*
G03X214285Y211300I0J750*
G01X216000Y212700D02*
G03X214285Y211300I0J-1750D01*
G01X216000Y212700D02*
X224000D01*
X225750Y210950D02*
G03X224000Y212700I-1750J0D01*
G01X225750Y210950D02*
Y204950D01*
X224000Y203200D02*
G03X225750Y204950I0J1750D01*
G01X224000Y203200D02*
X216000D01*
X214285Y204600D02*
G03X216000Y203200I1715J350D01*
G01X214285Y204600D02*
G03X213550Y205200I-735J-150D01*
G01X211901*
G03X211328Y204934I-0J-750*
G01X205055Y204054D02*
G03X211328Y204934I2645J3946D01*
G01X205055Y204054D02*
G03X204859Y204148I-417J-623D01*
G01X201394Y205217*
G03X201173Y205250I-221J-717*
G01X192950*
G03X192419Y205030I-0J-750*
G01X185470Y198081*
G03X185250Y197550I530J-531*
G01Y189950*
G03X185850Y189215I750J-0*
G01X187250Y187500D02*
G03X185850Y189215I-1750J0D01*
G01X187250Y187500D02*
Y182500D01*
X185675Y180759D02*
G03X187250Y182500I-175J1741D01*
G01X185675Y180759D02*
G03X185000Y180013I75J-746D01*
G01Y177500*
G03X185750Y176750I750J0*
G01X186850*
X188422Y175770D02*
G03X186850Y176750I-1572J-770D01*
G01X188422Y175770D02*
G03X189095Y175350I673J330D01*
G01X191000*
X192662Y174662D02*
G03X191000Y175350I-1662J-1662D01*
G01X192662Y174662D02*
X212662Y154662D01*
X213350Y153000D02*
G03X212662Y154662I-2350J0D01*
G01X213350Y153000D02*
Y150729D01*
G03X213367Y150572I750J0*
G01X213614Y149418*
G03X213669Y149256I734J158*
G01X212164Y145289D02*
G03X213669Y149256I-1164J2711D01*
G01X212164Y145289D02*
G03X212460Y143850I296J-689D01*
G01X216216*
G03X216746Y144070I-0J750*
G01X251682Y179006*
G03X251902Y179536I-530J530*
G01X224251Y244370D02*
G03X223721Y245650I-530J530D01*
G01X196000*
G03X195250Y244900I0J-750*
G01Y240500*
X193507Y238750D02*
G03X195250Y240500I-7J1750D01*
G01X193507Y238750D02*
G03Y237250I3J-750D01*
G01X195250Y235500D02*
G03X193507Y237250I-1750J0D01*
G01X195250Y235500D02*
Y231100D01*
G03X196000Y230350I750J0*
G01X209921*
G03X210451Y230570I-0J750*
G01X224251Y244370*
X259713Y298739D02*
G03X258739Y299713I-697J277D01*
G01X258091Y299589D02*
G03X258739Y299713I-0J1750D01*
G01X258091Y299589D02*
X256713D01*
X256093Y299702D02*
G03X256713Y299589I620J1637D01*
G01X256093Y299702D02*
G03X255561I-266J-701D01*
G01X254941Y299589D02*
G03X255561Y299702I-0J1750D01*
G01X254941Y299589D02*
X253563D01*
X252943Y299702D02*
G03X253563Y299589I620J1637D01*
G01X252943Y299702D02*
G03X252411I-266J-701D01*
G01X251791Y299589D02*
G03X252411Y299702I0J1750D01*
G01X251791Y299589D02*
X250413D01*
X249793Y299702D02*
G03X250413Y299589I620J1637D01*
G01X249793Y299702D02*
G03X249262I-265J-701D01*
G01X248642Y299589D02*
G03X249262Y299702I-0J1750D01*
G01X248642Y299589D02*
X247264D01*
X246644Y299702D02*
G03X247264Y299589I620J1637D01*
G01X246644Y299702D02*
G03X246112I-266J-701D01*
G01X245492Y299589D02*
G03X246112Y299702I0J1750D01*
G01X245492Y299589D02*
X244114D01*
X243494Y299702D02*
G03X244114Y299589I620J1637D01*
G01X243494Y299702D02*
G03X242963I-266J-701D01*
G01X242343Y299589D02*
G03X242963Y299702I-0J1750D01*
G01X242343Y299589D02*
X240965D01*
X240344Y299702D02*
G03X240965Y299589I621J1637D01*
G01X240344Y299702D02*
G03X239813I-265J-701D01*
G01X239193Y299589D02*
G03X239813Y299702I-0J1750D01*
G01X239193Y299589D02*
X237815D01*
X237195Y299702D02*
G03X237815Y299589I620J1637D01*
G01X237195Y299702D02*
G03X236663I-266J-701D01*
G01X236043Y299589D02*
G03X236663Y299702I0J1750D01*
G01X236043Y299589D02*
X234665D01*
X234045Y299702D02*
G03X234665Y299589I620J1637D01*
G01X234045Y299702D02*
G03X233514I-265J-701D01*
G01X232894Y299589D02*
G03X233514Y299702I-0J1750D01*
G01X232894Y299589D02*
X231516D01*
X230896Y299702D02*
G03X231516Y299589I620J1637D01*
G01X230896Y299702D02*
G03X230364I-266J-701D01*
G01X229744Y299589D02*
G03X230364Y299702I0J1750D01*
G01X229744Y299589D02*
X228366D01*
X227746Y299702D02*
G03X228366Y299589I620J1637D01*
G01X227746Y299702D02*
G03X227215I-266J-701D01*
G01X226594Y299589D02*
G03X227215Y299702I0J1750D01*
G01X226594Y299589D02*
X225217D01*
X224569Y299713D02*
G03X225217Y299589I648J1626D01*
G01X224569Y299713D02*
G03X223594Y298739I-278J-697D01*
G01X223719Y298091D02*
G03X223594Y298739I-1750J-0D01*
G01X223719Y298091D02*
Y296713D01*
X223605Y296093D02*
G03X223719Y296713I-1636J620D01*
G01X223605Y296093D02*
G03Y295561I701J-266D01*
G01X223719Y294941D02*
G03X223605Y295561I-1750J-0D01*
G01X223719Y294941D02*
Y293563D01*
X223605Y292943D02*
G03X223719Y293563I-1636J620D01*
G01X223605Y292943D02*
G03Y292411I701J-266D01*
G01X223719Y291791D02*
G03X223605Y292411I-1750J0D01*
G01X223719Y291791D02*
Y290413D01*
X223605Y289793D02*
G03X223719Y290413I-1636J620D01*
G01X223605Y289793D02*
G03Y289262I701J-265D01*
G01X223719Y288642D02*
G03X223605Y289262I-1750J-0D01*
G01X223719Y288642D02*
Y287264D01*
X223605Y286644D02*
G03X223719Y287264I-1636J620D01*
G01X223605Y286644D02*
G03Y286112I701J-266D01*
G01X223719Y285492D02*
G03X223605Y286112I-1750J0D01*
G01X223719Y285492D02*
Y284114D01*
X223605Y283494D02*
G03X223719Y284114I-1636J620D01*
G01X223605Y283494D02*
G03Y282963I701J-266D01*
G01X223719Y282343D02*
G03X223605Y282963I-1750J-0D01*
G01X223719Y282343D02*
Y280965D01*
X223605Y280344D02*
G03X223719Y280965I-1636J621D01*
G01X223605Y280344D02*
G03Y279813I701J-265D01*
G01X223719Y279193D02*
G03X223605Y279813I-1750J-0D01*
G01X223719Y279193D02*
Y277815D01*
X223605Y277195D02*
G03X223719Y277815I-1636J620D01*
G01X223605Y277195D02*
G03Y276663I701J-266D01*
G01X223719Y276043D02*
G03X223605Y276663I-1750J0D01*
G01X223719Y276043D02*
Y274665D01*
X223605Y274045D02*
G03X223719Y274665I-1636J620D01*
G01X223605Y274045D02*
G03Y273514I701J-265D01*
G01X223719Y272894D02*
G03X223605Y273514I-1750J-0D01*
G01X223719Y272894D02*
Y271516D01*
X223605Y270896D02*
G03X223719Y271516I-1636J620D01*
G01X223605Y270896D02*
G03Y270364I701J-266D01*
G01X223719Y269744D02*
G03X223605Y270364I-1750J0D01*
G01X223719Y269744D02*
Y268655D01*
G03X224815Y267990I750J0*
G01X225900Y268256D02*
G03X224815Y267990I0J-2350D01*
G01X225900Y268256D02*
X258839D01*
G03X259589Y269006I-0J750*
G01Y269744*
X259702Y270364D02*
G03X259589Y269744I1637J-620D01*
G01X259702Y270364D02*
G03Y270896I-701J266D01*
G01X259589Y271516D02*
G03X259702Y270896I1750J-0D01*
G01X259589Y271516D02*
Y272894D01*
X259702Y273514D02*
G03X259589Y272894I1637J-620D01*
G01X259702Y273514D02*
G03Y274045I-701J266D01*
G01X259589Y274665D02*
G03X259702Y274045I1750J0D01*
G01X259589Y274665D02*
Y276043D01*
X259702Y276663D02*
G03X259589Y276043I1637J-620D01*
G01X259702Y276663D02*
G03Y277195I-701J266D01*
G01X259589Y277815D02*
G03X259702Y277195I1750J-0D01*
G01X259589Y277815D02*
Y279193D01*
X259702Y279813D02*
G03X259589Y279193I1637J-620D01*
G01X259702Y279813D02*
G03Y280344I-701J266D01*
G01X259589Y280965D02*
G03X259702Y280344I1750J-0D01*
G01X259589Y280965D02*
Y282343D01*
X259702Y282963D02*
G03X259589Y282343I1637J-620D01*
G01X259702Y282963D02*
G03Y283494I-701J265D01*
G01X259589Y284114D02*
G03X259702Y283494I1750J0D01*
G01X259589Y284114D02*
Y285492D01*
X259702Y286112D02*
G03X259589Y285492I1637J-620D01*
G01X259702Y286112D02*
G03Y286644I-701J266D01*
G01X259589Y287264D02*
G03X259702Y286644I1750J-0D01*
G01X259589Y287264D02*
Y288642D01*
X259702Y289262D02*
G03X259589Y288642I1637J-620D01*
G01X259702Y289262D02*
G03Y289793I-701J266D01*
G01X259589Y290413D02*
G03X259702Y289793I1750J0D01*
G01X259589Y290413D02*
Y291791D01*
X259702Y292411D02*
G03X259589Y291791I1637J-620D01*
G01X259702Y292411D02*
G03Y292943I-701J266D01*
G01X259589Y293563D02*
G03X259702Y292943I1750J-0D01*
G01X259589Y293563D02*
Y294941D01*
X259702Y295561D02*
G03X259589Y294941I1637J-620D01*
G01X259702Y295561D02*
G03Y296093I-701J266D01*
G01X259589Y296713D02*
G03X259702Y296093I1750J-0D01*
G01X259589Y296713D02*
Y298091D01*
X259713Y298739D02*
G03X259589Y298091I1626J-648D01*
G01X187493Y237250D02*
G03Y238750I-3J750D01*
G01X186450Y239100D02*
G03X187493Y238750I1050J1400D01*
G01X186450Y239100D02*
G03X185550I-450J-600D01*
G01X184507Y238750D02*
G03X185550Y239100I-7J1750D01*
G01X184507Y238750D02*
G03Y237250I3J-750D01*
G01X185550Y236900D02*
G03X184507Y237250I-1050J-1400D01*
G01X185550Y236900D02*
G03X186450I450J600D01*
G01X187493Y237250D02*
G03X186450Y236900I7J-1750D01*
G01X222617Y299716D02*
G03X223591Y300691I277J697D01*
G01X223467Y301339D02*
G03X223591Y300691I1750J-0D01*
G01X223467Y301339D02*
Y309213D01*
X223529Y309675D02*
G03X223467Y309213I1688J-462D01*
G01X223529Y309675D02*
G03X223555Y309874I-724J199D01*
G01Y335716*
G03X223336Y336246I-750J-0*
G01X155226Y404356*
G03X153947Y403861I-530J-530*
G01X149168Y406312D02*
G03X153947Y403861I1832J-2312D01*
G01X149168Y406312D02*
G03X148702Y407650I-466J588D01*
G01X115589*
G03X115314Y407598I0J-750*
G01X112033Y406303*
G03X111857Y406205I275J-697*
G01X110979Y405682D02*
G03X111857Y406205I-1979J4318D01*
G01X110979Y405682D02*
G03Y404318I312J-682D01*
G01X113703Y400664D02*
G03X110979Y404318I-4703J-664D01*
G01X113703Y400664D02*
G03X113758Y400470I743J104D01*
G01X115163Y397234*
G03X115321Y397002I688J299*
G01X155929Y356394*
G03X157177Y357142I531J530*
G01X159142Y355177D02*
G03X157177Y357142I858J2823D01*
G01X159142Y355177D02*
G03X158394Y353929I-218J-717D01*
G01X212352Y299971*
G03X212882Y299752I530J531*
G01X213433*
G03X213632Y299778I0J750*
G01X214094Y299841D02*
G03X213632Y299778I0J-1750D01*
G01X214094Y299841D02*
X221969D01*
X222617Y299716D02*
G03X221969Y299841I-648J-1625D01*
G01X395750Y120000D02*
G03X395750I-15750J0D01*
G01X392750Y299000D02*
Y293000D01*
X391109Y291253D02*
G03X392750Y293000I-109J1747D01*
G01X391109Y291253D02*
G03X390725Y289891I46J-748D01*
G01X389979Y281682D02*
G03X390725Y289891I-1979J4318D01*
G01X389979Y281682D02*
G03Y280318I312J-682D01*
G01Y271682D02*
G03Y280318I-1979J4318D01*
G01Y271682D02*
G03Y270318I312J-682D01*
G01Y261682D02*
G03Y270318I-1979J4318D01*
G01Y261682D02*
G03Y260318I312J-682D01*
G01Y251682D02*
G03Y260318I-1979J4318D01*
G01Y251682D02*
G03Y250318I312J-682D01*
G01Y241682D02*
G03Y250318I-1979J4318D01*
G01Y241682D02*
G03Y240318I312J-682D01*
G01Y231682D02*
G03Y240318I-1979J4318D01*
G01Y231682D02*
G03Y230318I312J-682D01*
G01Y221682D02*
G03Y230318I-1979J4318D01*
G01Y221682D02*
G03Y220318I312J-682D01*
G01Y211682D02*
G03Y220318I-1979J4318D01*
G01Y211682D02*
G03Y210318I312J-682D01*
G01Y201682D02*
G03Y210318I-1979J4318D01*
G01Y201682D02*
G03Y200318I312J-682D01*
G01Y191682D02*
G03Y200318I-1979J4318D01*
G01Y191682D02*
G03Y190318I312J-682D01*
G01Y181682D02*
G03Y190318I-1979J4318D01*
G01Y181682D02*
G03Y180318I312J-682D01*
G01Y171682D02*
G03Y180318I-1979J4318D01*
G01Y171682D02*
G03Y170318I312J-682D01*
G01Y161682D02*
G03Y170318I-1979J4318D01*
G01Y161682D02*
G03Y160318I312J-682D01*
G01X386021D02*
G03X389979I1979J-4318D01*
G01X386021D02*
G03Y161682I-312J682D01*
G01Y170318D02*
G03Y161682I1979J-4318D01*
G01Y170318D02*
G03Y171682I-312J682D01*
G01Y180318D02*
G03Y171682I1979J-4318D01*
G01Y180318D02*
G03Y181682I-312J682D01*
G01X383297Y185336D02*
G03X386021Y181682I4703J664D01*
G01X383297Y185336D02*
G03X383242Y185530I-743J-104D01*
G01X383242D02*
X381837Y188766D01*
G03X381679Y188998I-688J-299*
G01X341338Y229338*
X340650Y231000D02*
G03X341338Y229338I2350J0D01*
G01X340650Y231000D02*
Y265369D01*
G03X340430Y265900I-750J0*
G01X327246Y279084*
G03X326716Y279304I-530J-530*
G01X323506*
G03X322892Y278123I0J-750*
G01X315134Y272640D02*
G03X322892Y278123I3866J2760D01*
G01X315134Y272640D02*
G03X314524Y272954I-610J-436D01*
G01X306855*
G03X306325Y271674I0J-750*
G01X317685Y260313*
G03X318323Y260101I531J531*
G01X314352Y256378D02*
G03X318323Y260101I4648J-978D01*
G01X314352Y256378D02*
G03X314148Y257062I-734J154D01*
G01X301626Y269585*
G03X301095Y269805I-531J-530*
G01X298100*
G03X297350Y269064I-0J-750*
G01X293144Y266431D02*
G03X297350Y269064I1256J2669D01*
G01X293144Y266431D02*
G03X292982Y266486I-320J-679D01*
G01X291828Y266733*
G03X291671Y266750I-157J-733*
G01X271713*
G03X270963Y266000I-0J-750*
G01Y265217*
X269213Y263467D02*
G03X270963Y265217I-0J1750D01*
G01X269213Y263467D02*
X261339D01*
X260876Y263529D02*
G03X261339Y263467I463J1688D01*
G01X260876Y263529D02*
G03X260678Y263555I-198J-724D01*
G01X260446*
G03X259740Y262554I0J-750*
G01X259841Y261969D02*
G03X259740Y262554I-1750J-0D01*
G01X259841Y261969D02*
Y254094D01*
X259778Y253632D02*
G03X259841Y254094I-1687J462D01*
G01X259778Y253632D02*
G03X259752Y253433I724J-199D01*
G01Y251484*
G03X259971Y250954I750J0*
G01X262662Y248263*
X263350Y246602D02*
G03X262662Y248263I-2350J-0D01*
G01X263350Y246602D02*
Y173816D01*
G03X264586Y173245I750J0*
G01X264587Y168755D02*
G03Y173245I1913J2245D01*
G01X264586Y168755D02*
G03X263350Y168184I-486J-571D01*
G01Y137688*
G03X263420Y137371I750J-0*
G01X266744Y130250*
G03X266857Y130076I679J317*
G01X255143D02*
G03X266857I5857J-5076D01*
G01X255143D02*
G03X255256Y130250I-566J491D01*
G01X258580Y137371*
G03X258650Y137688I-680J317*
G01Y245318*
G03X258430Y245848I-750J-0*
G01X257882Y246396*
G03X256602Y245865I-530J-531*
G01Y178252*
X255914Y176590D02*
G03X256602Y178252I-1662J1662D01*
G01X255914Y176590D02*
X219162Y139838D01*
X217500Y139150D02*
G03X219162Y139838I0J2350D01*
G01X217500Y139150D02*
X204100D01*
G03X203350Y138400I0J-750*
G01Y137688*
G03X203420Y137371I750J-0*
G01X206744Y130250*
G03X206857Y130076I679J317*
G01X195143D02*
G03X206857I5857J-5076D01*
G01X195143D02*
G03X195256Y130250I-566J491D01*
G01X198580Y137371*
G03X198650Y137688I-680J317*
G01Y138400*
G03X197900Y139150I-750J-0*
G01X184500*
X182838Y139838D02*
G03X184500Y139150I1662J1662D01*
G01X182838Y139838D02*
X177088Y145588D01*
X176400Y147250D02*
G03X177088Y145588I2350J0D01*
G01X176400Y147250D02*
Y161000D01*
Y165000*
X178150Y166750D02*
G03X176400Y165000I0J-1750D01*
G01X178150Y166750D02*
X179350D01*
X180243Y166505D02*
G03X179350Y166750I-893J-1505D01*
G01X180243Y166505D02*
G03X181007I382J645D01*
G01X181900Y166750D02*
G03X181007Y166505I0J-1750D01*
G01X181900Y166750D02*
X183100D01*
X183993Y166505D02*
G03X183100Y166750I-893J-1505D01*
G01X183993Y166505D02*
G03X184757I382J645D01*
G01X185650Y166750D02*
G03X184757Y166505I0J-1750D01*
G01X185650Y166750D02*
X186850D01*
X188243Y166059D02*
G03X186850Y166750I-1393J-1059D01*
G01X188243Y166059D02*
G03X189075Y165801I597J454D01*
G01Y160199D02*
G03Y165801I925J2801D01*
G01Y160199D02*
G03X188243Y159941I-235J-712D01*
G01X186850Y159250D02*
G03X188243Y159941I0J1750D01*
G01X186850Y159250D02*
X185650D01*
X184757Y159495D02*
G03X185650Y159250I893J1505D01*
G01X184757Y159495D02*
G03X183993I-382J-645D01*
G01X183100Y159250D02*
G03X183993Y159495I0J1750D01*
G01X183100Y159250D02*
X181900D01*
X181865D02*
G03X181900I35J1750D01*
G01X181865D02*
G03X181100Y158500I-15J-750D01*
G01Y148534*
G03X181320Y148004I750J0*
G01X185254Y144070*
G03X185784Y143850I530J530*
G01X200790*
X209540*
G03X209836Y145289I0J750*
G01X208331Y149256D02*
G03X209836Y145289I2669J-1256D01*
G01X208331Y149256D02*
G03X208386Y149418I-679J320D01*
G01X208633Y150572*
G03X208650Y150729I-733J157*
G01Y151716*
G03X208430Y152246I-750J-0*
G01X190246Y170430*
G03X189716Y170650I-530J-530*
G01X189095*
G03X188422Y170230I0J-750*
G01X186850Y169250D02*
G03X188422Y170230I0J1750D01*
G01X186850Y169250D02*
X185650D01*
X184757Y169495D02*
G03X185650Y169250I893J1505D01*
G01X184757Y169495D02*
G03X183993I-382J-645D01*
G01X183100Y169250D02*
G03X183993Y169495I0J1750D01*
G01X183100Y169250D02*
X181900D01*
X181007Y169495D02*
G03X181900Y169250I893J1505D01*
G01X181007Y169495D02*
G03X180243I-382J-645D01*
G01X179350Y169250D02*
G03X180243Y169495I0J1750D01*
G01X179350Y169250D02*
X178150D01*
X176578Y170230D02*
G03X178150Y169250I1572J770D01*
G01X176578Y170230D02*
G03X175905Y170650I-673J-330D01*
G01X164100*
G03X163350Y169900I0J-750*
G01Y133500*
G03X164100Y132750I750J0*
G01X167000*
X168750Y131000D02*
G03X167000Y132750I-1750J0D01*
G01X168750Y131000D02*
Y119000D01*
X167000Y117250D02*
G03X168750Y119000I0J1750D01*
G01X167000Y117250D02*
X155000D01*
X153250Y119000D02*
G03X155000Y117250I1750J0D01*
G01X153250Y119000D02*
Y131000D01*
X155000Y132750D02*
G03X153250Y131000I0J-1750D01*
G01X155000Y132750D02*
X157900D01*
G03X158650Y133500I-0J750*
G01Y173000*
Y193000*
X159338Y194662D02*
G03X158650Y193000I1662J-1662D01*
G01X159338Y194662D02*
X180409Y215732D01*
G03X180508Y215855I-531J530*
G01X181148Y216846*
G03X181224Y216999I-629J407*
G01X181518Y217595D02*
G03X181224Y216999I2482J-1595D01*
G01X181518Y217595D02*
G03X180887Y218750I-631J405D01*
G01X178500*
X176896Y219800D02*
G03X178500Y218750I1604J700D01*
G01X176896Y219800D02*
G03X176209Y220250I-687J-300D01*
G01X135702*
G03X135413Y220192I-0J-750*
G01X128146Y217157*
G03X127956Y217042I289J-692*
G01Y228958D02*
G03Y217042I-4956J-5958D01*
G01Y228958D02*
G03X128146Y228843I479J577D01*
G01X135413Y225808*
G03X135702Y225750I289J692*
G01X176209*
G03X176896Y226200I-0J750*
G01X178430Y227249D02*
G03X176896Y226200I70J-1749D01*
G01X178430Y227249D02*
G03X179150Y227998I-30J749D01*
G01Y228000*
Y228002*
G03X178430Y228751I-750J-0*
G01X176750Y230500D02*
G03X178430Y228751I1750J0D01*
G01X176750Y230500D02*
Y235500D01*
X178493Y237250D02*
G03X176750Y235500I7J-1750D01*
G01X178493Y237250D02*
G03Y238750I-3J750D01*
G01X176750Y240500D02*
G03X178493Y238750I1750J0D01*
G01X176750Y240500D02*
Y245500D01*
X178430Y247249D02*
G03X176750Y245500I70J-1749D01*
G01X178430Y247249D02*
G03X179150Y247998I-30J749D01*
G01Y248000*
Y248002*
G03X178430Y248751I-750J-0*
G01X176896Y249800D02*
G03X178430Y248751I1604J700D01*
G01X176896Y249800D02*
G03X176209Y250250I-687J-300D01*
G01X133000*
X131681Y250587D02*
G03X133000Y250250I1319J2413D01*
G01X131681Y250587D02*
G03X130625Y249650I-360J-658D01*
G01X130750Y249000D02*
G03X130625Y249650I-1750J0D01*
G01X130750Y249000D02*
Y237000D01*
X129000Y235250D02*
G03X130750Y237000I0J1750D01*
G01X129000Y235250D02*
X117000D01*
X115250Y237000D02*
G03X117000Y235250I1750J0D01*
G01X115250Y237000D02*
Y249000D01*
X117000Y250750D02*
G03X115250Y249000I0J-1750D01*
G01X117000Y250750D02*
X129000D01*
X129442Y250693D02*
G03X129000Y250750I-442J-1693D01*
G01X129442Y250693D02*
G03X130162Y251949I189J726D01*
G01X129481Y252630*
G03X129208Y252804I-530J-531*
G01X122559Y255233*
G03X122364Y255276I-257J-704*
G01X130724Y263636D02*
G03X122364Y255276I-7724J-636D01*
G01X130724Y263636D02*
G03X130767Y263441I747J62D01*
G01X133196Y256792*
G03X133370Y256519I705J257*
G01X133919Y255970*
G03X134450Y255750I531J530*
G01X168132*
G03X168662Y257030I-0J750*
G01X157338Y268354*
X156650Y270016D02*
G03X157338Y268354I2350J-0D01*
G01X156650Y270016D02*
Y278716D01*
G03X156430Y279246I-750J-0*
G01X115029Y320647*
G03X113749Y320101I-530J-530*
G01X107021Y324318D02*
G03X113749Y320101I1979J-4318D01*
G01X107021Y324318D02*
G03Y325682I-312J682D01*
G01Y334318D02*
G03Y325682I1979J-4318D01*
G01Y334318D02*
G03Y335682I-312J682D01*
G01Y344318D02*
G03Y335682I1979J-4318D01*
G01Y344318D02*
G03Y345682I-312J682D01*
G01Y354318D02*
G03Y345682I1979J-4318D01*
G01Y354318D02*
G03Y355682I-312J682D01*
G01Y364318D02*
G03Y355682I1979J-4318D01*
G01Y364318D02*
G03Y365682I-312J682D01*
G01Y374318D02*
G03Y365682I1979J-4318D01*
G01Y374318D02*
G03Y375682I-312J682D01*
G01Y384318D02*
G03Y375682I1979J-4318D01*
G01Y384318D02*
G03Y385682I-312J682D01*
G01Y394318D02*
G03Y385682I1979J-4318D01*
G01Y394318D02*
G03Y395682I-312J682D01*
G01Y404318D02*
G03Y395682I1979J-4318D01*
G01Y404318D02*
G03Y405682I-312J682D01*
G01Y414318D02*
G03Y405682I1979J-4318D01*
G01Y414318D02*
G03Y415682I-312J682D01*
G01Y424318D02*
G03Y415682I1979J-4318D01*
G01Y424318D02*
G03Y425682I-312J682D01*
G01Y434318D02*
G03Y425682I1979J-4318D01*
G01Y434318D02*
G03Y435682I-312J682D01*
G01Y444318D02*
G03Y435682I1979J-4318D01*
G01Y444318D02*
G03Y445682I-312J682D01*
G01X110979D02*
G03X107021I-1979J4318D01*
G01X110979D02*
G03Y444318I312J-682D01*
G01X113703Y440664D02*
G03X110979Y444318I-4703J-664D01*
G01X113703Y440664D02*
G03X113758Y440470I743J104D01*
G01X115163Y437234*
G03X115321Y437002I688J299*
G01X133754Y418570*
G03X134284Y418350I530J530*
G01X160354*
X162016Y417662D02*
G03X160354Y418350I-1662J-1662D01*
G01X162016Y417662D02*
X234874Y344804D01*
G03X236154Y345335I530J531*
G01Y346072*
G03X235583Y346800I-750J0*
G01X234250Y348500D02*
G03X235583Y346800I1750J0D01*
G01X234250Y348500D02*
Y354500D01*
X234600Y355550D02*
G03X234250Y354500I1400J-1050D01*
G01X234600Y355550D02*
G03Y356450I-600J450D01*
G01X234250Y357500D02*
G03X234600Y356450I1750J0D01*
G01X234250Y357500D02*
Y363500D01*
X236000Y365250D02*
G03X234250Y363500I0J-1750D01*
G01X236000Y365250D02*
X241000D01*
X242750Y363500D02*
G03X241000Y365250I-1750J0D01*
G01X242750Y363500D02*
Y357500D01*
X242400Y356450D02*
G03X242750Y357500I-1400J1050D01*
G01X242400Y356450D02*
G03Y355550I600J-450D01*
G01X242749Y354570D02*
G03X242400Y355550I-1749J-70D01*
G01X242749Y354570D02*
G03X243498Y353850I749J30D01*
G01X244502*
G03X245251Y354570I-0J750*
G01X245600Y355550D02*
G03X245251Y354570I1400J-1050D01*
G01X245600Y355550D02*
G03Y356450I-600J450D01*
G01X245250Y357500D02*
G03X245600Y356450I1750J0D01*
G01X245250Y357500D02*
Y363500D01*
X247000Y365250D02*
G03X245250Y363500I0J-1750D01*
G01X247000Y365250D02*
X252000D01*
X253750Y363500D02*
G03X252000Y365250I-1750J0D01*
G01X253750Y363500D02*
Y357500D01*
X253400Y356450D02*
G03X253750Y357500I-1400J1050D01*
G01X253400Y356450D02*
G03Y355550I600J-450D01*
G01X253750Y354500D02*
G03X253400Y355550I-1750J0D01*
G01X253750Y354500D02*
Y348500D01*
X252000Y346750D02*
G03X253750Y348500I0J1750D01*
G01X252000Y346750D02*
X247000D01*
X245251Y348430D02*
G03X247000Y346750I1749J70D01*
G01X245251Y348430D02*
G03X244502Y349150I-749J-30D01*
G01X243498*
G03X242749Y348430I0J-750*
G01X241423Y346802D02*
G03X242749Y348430I-423J1698D01*
G01X241423Y346802D02*
G03X240854Y346074I181J-728D01*
G01Y320335*
G03X242134Y319804I750J-0*
G01X251992Y329662*
X253654Y330350D02*
G03X251992Y329662I-0J-2350D01*
G01X253654Y330350D02*
X290701D01*
G03X291451Y331120I0J750*
G01X295656Y333869D02*
G03X291451Y331120I-1256J-2669D01*
G01X295656Y333869D02*
G03X295818Y333814I320J679D01*
G01X296972Y333567*
G03X297129Y333550I157J733*
G01X379416*
G03X379946Y333770I-0J750*
G01X382430Y336254*
G03X382650Y336784I-530J530*
G01Y337073*
G03X382080Y337801I-750J0*
G01X380750Y339500D02*
G03X382080Y337801I1750J0D01*
G01X380750Y339500D02*
Y345500D01*
X381100Y346550D02*
G03X380750Y345500I1400J-1050D01*
G01X381100Y346550D02*
G03Y347450I-600J450D01*
G01X380750Y348500D02*
G03X381100Y347450I1750J0D01*
G01X380750Y348500D02*
Y354500D01*
X382080Y356199D02*
G03X380750Y354500I420J-1699D01*
G01X382080Y356199D02*
G03X382650Y356927I-180J728D01*
G01Y365573*
G03X382080Y366301I-750J0*
G01X380750Y368000D02*
G03X382080Y366301I1750J0D01*
G01X380750Y368000D02*
Y374000D01*
X381100Y375050D02*
G03X380750Y374000I1400J-1050D01*
G01X381100Y375050D02*
G03Y375950I-600J450D01*
G01X380785Y376650D02*
G03X381100Y375950I1715J350D01*
G01X380785Y376650D02*
G03X380050Y377250I-735J-150D01*
G01X372950*
G03X372215Y376650I-0J-750*
G01X371900Y375950D02*
G03X372215Y376650I-1400J1050D01*
G01X371900Y375950D02*
G03Y375050I600J-450D01*
G01X372250Y374000D02*
G03X371900Y375050I-1750J0D01*
G01X372250Y374000D02*
Y368000D01*
X370920Y366301D02*
G03X372250Y368000I-420J1699D01*
G01X370920Y366301D02*
G03X370350Y365573I180J-728D01*
G01Y356927*
G03X370920Y356199I750J-0*
G01X372250Y354500D02*
G03X370920Y356199I-1750J0D01*
G01X372250Y354500D02*
Y348500D01*
X371900Y347450D02*
G03X372250Y348500I-1400J1050D01*
G01X371900Y347450D02*
G03Y346550I600J-450D01*
G01X372250Y345500D02*
G03X371900Y346550I-1750J0D01*
G01X372250Y345500D02*
Y339500D01*
X370500Y337750D02*
G03X372250Y339500I0J1750D01*
G01X370500Y337750D02*
X365500D01*
X363750Y339500D02*
G03X365500Y337750I1750J0D01*
G01X363750Y339500D02*
Y345500D01*
X364100Y346550D02*
G03X363750Y345500I1400J-1050D01*
G01X364100Y346550D02*
G03Y347450I-600J450D01*
G01X363750Y348500D02*
G03X364100Y347450I1750J0D01*
G01X363750Y348500D02*
Y354500D01*
X365080Y356199D02*
G03X363750Y354500I420J-1699D01*
G01X365080Y356199D02*
G03X365650Y356927I-180J728D01*
G01Y365573*
G03X365080Y366301I-750J0*
G01X363750Y368000D02*
G03X365080Y366301I1750J0D01*
G01X363750Y368000D02*
Y374000D01*
X364100Y375050D02*
G03X363750Y374000I1400J-1050D01*
G01X364100Y375050D02*
G03Y375950I-600J450D01*
G01X363785Y376650D02*
G03X364100Y375950I1715J350D01*
G01X363785Y376650D02*
G03X363050Y377250I-735J-150D01*
G01X348527*
G03X348306Y377217I0J-750*
G01X344841Y376148*
G03X344645Y376054I221J-717*
G01Y383946D02*
G03Y376054I-2645J-3946D01*
G01Y383946D02*
G03X344841Y383852I417J623D01*
G01X348306Y382783*
G03X348527Y382750I221J717*
G01X363050*
G03X363785Y383350I0J750*
G01X365500Y384750D02*
G03X363785Y383350I0J-1750D01*
G01X365500Y384750D02*
X370500D01*
X372215Y383350D02*
G03X370500Y384750I-1715J-350D01*
G01X372215Y383350D02*
G03X372950Y382750I735J150D01*
G01X380050*
G03X380785Y383350I0J750*
G01X382500Y384750D02*
G03X380785Y383350I0J-1750D01*
G01X382500Y384750D02*
X387500D01*
X389250Y383000D02*
G03X387500Y384750I-1750J0D01*
G01X389250Y383000D02*
Y377000D01*
X388900Y375950D02*
G03X389250Y377000I-1400J1050D01*
G01X388900Y375950D02*
G03Y375050I600J-450D01*
G01X389250Y374000D02*
G03X388900Y375050I-1750J0D01*
G01X389250Y374000D02*
Y368000D01*
X387920Y366301D02*
G03X389250Y368000I-420J1699D01*
G01X387920Y366301D02*
G03X387350Y365573I180J-728D01*
G01Y356927*
G03X387920Y356199I750J-0*
G01X389250Y354500D02*
G03X387920Y356199I-1750J0D01*
G01X389250Y354500D02*
Y348500D01*
X388900Y347450D02*
G03X389250Y348500I-1400J1050D01*
G01X388900Y347450D02*
G03Y346550I600J-450D01*
G01X389250Y345500D02*
G03X388900Y346550I-1750J0D01*
G01X389250Y345500D02*
Y339500D01*
X387920Y337801D02*
G03X389250Y339500I-420J1699D01*
G01X387920Y337801D02*
G03X387350Y337073I180J-728D01*
G01Y335500*
X386662Y333838D02*
G03X387350Y335500I-1662J1662D01*
G01X386662Y333838D02*
X382362Y329538D01*
X380700Y328850D02*
G03X382362Y329538I0J2350D01*
G01X380700Y328850D02*
X378284D01*
G03X377754Y327570I0J-750*
G01X389662Y315662*
X390350Y314000D02*
G03X389662Y315662I-2350J0D01*
G01X390350Y314000D02*
Y301498D01*
G03X391070Y300749I750J0*
G01X392750Y299000D02*
G03X391070Y300749I-1750J0D01*
G01X202950Y216000D02*
G03X202950I-2950J0D01*
G01X213950Y238000D02*
G03X213950I-2950J0D01*
G01X205950D02*
G03X205950I-2950J0D01*
G01X257500Y278500D02*
G03X257500I-3500J0D01*
G01X257950Y290000D02*
G03X257950I-2950J0D01*
G01X245950Y279000D02*
G03X245950I-2950J0D01*
G01Y290000D02*
G03X245950I-2950J0D01*
G01X233950D02*
G03X233950I-2950J0D01*
G01X219950Y315000D02*
G03X219950I-2950J0D01*
G01Y327000D02*
G03X219950I-2950J0D01*
G01X202950D02*
G03X202950I-2950J0D01*
G01Y339000D02*
G03X202950I-2950J0D01*
G01Y352000D02*
G03X202950I-2950J0D01*
G01X153950Y372000D02*
G03X153950I-2950J0D01*
G01X153450Y390000D02*
G03X153450I-2950J0D01*
G01X326750Y380000D02*
G03X326750I-4750J0D01*
G01X284750Y475000D02*
G03X284750I-7750J0D01*
G01X204750D02*
G03X204750I-7750J0D01*
G01X182857Y469924D02*
G03X171143I-5857J5076D01*
G01X182857D02*
G03X182744Y469750I566J-491D01*
G01X179420Y462629*
G03X179350Y462312I680J-317*
G01Y442589*
G03X179402Y442314I750J0*
G01X180697Y439033*
G03X180795Y438857I697J275*
G01X174394Y432029D02*
G03X180795Y438857I2606J3971D01*
G01X174394Y432029D02*
G03X173452Y430871I-412J-627D01*
G01X174002Y430321*
G03X174234Y430163I531J530*
G01X177470Y428758*
G03X177664Y428703I298J688*
G01X172297Y423336D02*
G03X177664Y428703I4703J664D01*
G01X172297Y423336D02*
G03X172242Y423530I-743J-104D01*
G01X172242D02*
X170837Y426766D01*
G03X170679Y426998I-688J-299*
G01X155338Y442338*
X154650Y444000D02*
G03X155338Y442338I2350J0D01*
G01X154650Y444000D02*
Y466500D01*
G03X153900Y467250I-750J-0*
G01X151000*
X149250Y469000D02*
G03X151000Y467250I1750J0D01*
G01X149250Y469000D02*
Y481000D01*
X151000Y482750D02*
G03X149250Y481000I0J-1750D01*
G01X151000Y482750D02*
X163000D01*
X164750Y481000D02*
G03X163000Y482750I-1750J0D01*
G01X164750Y481000D02*
Y469000D01*
X163000Y467250D02*
G03X164750Y469000I0J1750D01*
G01X163000Y467250D02*
X160100D01*
G03X159350Y466500I0J-750*
G01Y445284*
G03X159570Y444754I750J0*
G01X171871Y432452*
G03X173029Y433394I531J530*
G01X173205Y438857D02*
G03X173029Y433394I3795J-2857D01*
G01X173205Y438857D02*
G03X173303Y439033I-599J451D01*
G01X174598Y442314*
G03X174650Y442589I-698J275*
G01Y462312*
G03X174580Y462629I-750J0*
G01X171256Y469750*
G03X171143Y469924I-679J-317*
G01X135750Y480000D02*
G03X135750I-15750J0D01*
G01X130750Y289000D02*
Y277000D01*
X129000Y275250D02*
G03X130750Y277000I0J1750D01*
G01X129000Y275250D02*
X117000D01*
X115250Y277000D02*
G03X117000Y275250I1750J0D01*
G01X115250Y277000D02*
Y289000D01*
X117000Y290750D02*
G03X115250Y289000I0J-1750D01*
G01X117000Y290750D02*
X129000D01*
X130750Y289000D02*
G03X129000Y290750I-1750J0D01*
G01X135750Y120000D02*
G03X135750I-15750J0D01*
G01X130750Y169000D02*
Y157000D01*
X129000Y155250D02*
G03X130750Y157000I0J1750D01*
G01X129000Y155250D02*
X117000D01*
X115250Y157000D02*
G03X117000Y155250I1750J0D01*
G01X115250Y157000D02*
Y169000D01*
X117000Y170750D02*
G03X115250Y169000I0J-1750D01*
G01X117000Y170750D02*
X129000D01*
X130750Y169000D02*
G03X129000Y170750I-1750J0D01*
G01X130750Y183000D02*
G03X130750I-7750J0D01*
G01Y203000D02*
G03X130750I-7750J0D01*
G01X188750Y125000D02*
G03X188750I-7750J0D01*
G01X248750D02*
G03X248750I-7750J0D01*
G01X228750Y131000D02*
Y119000D01*
X227000Y117250D02*
G03X228750Y119000I0J1750D01*
G01X227000Y117250D02*
X215000D01*
X213250Y119000D02*
G03X215000Y117250I1750J0D01*
G01X213250Y119000D02*
Y131000D01*
X215000Y132750D02*
G03X213250Y131000I0J-1750D01*
G01X215000Y132750D02*
X227000D01*
X228750Y131000D02*
G03X227000Y132750I-1750J0D01*
G01X288750Y131000D02*
Y119000D01*
X287000Y117250D02*
G03X288750Y119000I0J1750D01*
G01X287000Y117250D02*
X275000D01*
X273250Y119000D02*
G03X275000Y117250I1750J0D01*
G01X273250Y119000D02*
Y131000D01*
X275000Y132750D02*
G03X273250Y131000I0J-1750D01*
G01X275000Y132750D02*
X287000D01*
X288750Y131000D02*
G03X287000Y132750I-1750J0D01*
G01X289750Y409689D02*
Y375750D01*
X287250Y373250D02*
G03X289750Y375750I0J2500D01*
G01X287250Y373250D02*
X262311D01*
X260543Y373982D02*
G03X262311Y373250I1768J1768D01*
G01X260543Y373982D02*
X207982Y426543D01*
X207250Y428311D02*
G03X207982Y426543I2500J-0D01*
G01X207250Y428311D02*
Y482689D01*
X207982Y484457D02*
G03X207250Y482689I1768J-1768D01*
G01X207982Y484457D02*
X213543Y490018D01*
X215311Y490750D02*
G03X213543Y490018I-0J-2500D01*
G01X215311Y490750D02*
X241689D01*
X243457Y490018D02*
G03X241689Y490750I-1768J-1768D01*
G01X243457Y490018D02*
X248018Y485457D01*
X248750Y483689D02*
G03X248018Y485457I-2500J0D01*
G01X248750Y483689D02*
Y479000D01*
G03X250162Y478647I750J0*
G01Y471353D02*
G03Y478647I6838J3647D01*
G01Y471353D02*
G03X248750Y471000I-662J-353D01*
G01Y440036*
G03X248970Y439505I750J-0*
G01X271505Y416970*
G03X272036Y416750I531J530*
G01X282689*
X284457Y416018D02*
G03X282689Y416750I-1768J-1768D01*
G01X284457Y416018D02*
X289018Y411457D01*
X289750Y409689D02*
G03X289018Y411457I-2500J0D01*
G01X316250Y179500D02*
Y173500D01*
X315900Y172450D02*
G03X316250Y173500I-1400J1050D01*
G01X315900Y172450D02*
G03Y171550I600J-450D01*
G01X316250Y170500D02*
G03X315900Y171550I-1750J0D01*
G01X316250Y170500D02*
Y164500D01*
X314500Y162750D02*
G03X316250Y164500I0J1750D01*
G01X314500Y162750D02*
X309500D01*
X307785Y164150D02*
G03X309500Y162750I1715J350D01*
G01X307785Y164150D02*
G03X307050Y164750I-735J-150D01*
G01X305950*
G03X305215Y164150I-0J-750*
G01X304200Y162896D02*
G03X305215Y164150I-700J1604D01*
G01X304200Y162896D02*
G03X303750Y162209I300J-687D01*
G01Y137702*
G03X303808Y137413I750J-0*
G01X306843Y130146*
G03X306958Y129956I692J289*
G01X295042D02*
G03X306958I5958J-4956D01*
G01X295042D02*
G03X295157Y130146I-577J479D01*
G01X298192Y137413*
G03X298250Y137702I-692J289*
G01Y162209*
G03X297800Y162896I-750J-0*
G01X296751Y164430D02*
G03X297800Y162896I1749J70D01*
G01X296751Y164430D02*
G03X296002Y165150I-749J-30D01*
G01X294900*
X293238Y165838D02*
G03X294900Y165150I1662J1662D01*
G01X293238Y165838D02*
X287938Y171138D01*
X287250Y172800D02*
G03X287938Y171138I2350J0D01*
G01X287250Y172800D02*
Y245571D01*
G03X287233Y245728I-750J-0*
G01X286986Y246882*
G03X286931Y247044I-734J-158*
G01X292269D02*
G03X286931I-2669J1256D01*
G01X292269D02*
G03X292214Y246882I679J-320D01*
G01X291967Y245728*
G03X291950Y245571I733J-157*
G01Y174084*
G03X292170Y173554I750J0*
G01X295484Y170239*
G03X296760Y170689I531J531*
G01X297100Y171550D02*
G03X296760Y170689I1400J-1050D01*
G01X297100Y171550D02*
G03Y172450I-600J450D01*
G01X296750Y173500D02*
G03X297100Y172450I1750J0D01*
G01X296750Y173500D02*
Y179500D01*
X298500Y181250D02*
G03X296750Y179500I0J-1750D01*
G01X298500Y181250D02*
X303500D01*
X305250Y179500D02*
G03X303500Y181250I-1750J0D01*
G01X305250Y179500D02*
Y173500D01*
X304900Y172450D02*
G03X305250Y173500I-1400J1050D01*
G01X304900Y172450D02*
G03Y171550I600J-450D01*
G01X305215Y170850D02*
G03X304900Y171550I-1715J-350D01*
G01X305215Y170850D02*
G03X305950Y170250I735J150D01*
G01X307050*
G03X307785Y170850I0J750*
G01X308100Y171550D02*
G03X307785Y170850I1400J-1050D01*
G01X308100Y171550D02*
G03Y172450I-600J450D01*
G01X307750Y173500D02*
G03X308100Y172450I1750J0D01*
G01X307750Y173500D02*
Y179500D01*
X309500Y181250D02*
G03X307750Y179500I0J-1750D01*
G01X309500Y181250D02*
X314500D01*
X316250Y179500D02*
G03X314500Y181250I-1750J0D01*
G01X328750Y131000D02*
Y119000D01*
X327000Y117250D02*
G03X328750Y119000I0J1750D01*
G01X327000Y117250D02*
X315000D01*
X313250Y119000D02*
G03X315000Y117250I1750J0D01*
G01X313250Y119000D02*
Y131000D01*
X315000Y132750D02*
G03X313250Y131000I0J-1750D01*
G01X315000Y132750D02*
X327000D01*
X328750Y131000D02*
G03X327000Y132750I-1750J0D01*
G01X346750Y350000D02*
G03X346750I-4750J0D01*
G01X356250Y179500D02*
Y173500D01*
X355900Y172450D02*
G03X356250Y173500I-1400J1050D01*
G01X355900Y172450D02*
G03Y171550I600J-450D01*
G01X356250Y170500D02*
G03X355900Y171550I-1750J0D01*
G01X356250Y170500D02*
Y164500D01*
X354500Y162750D02*
G03X356250Y164500I0J1750D01*
G01X354500Y162750D02*
X349500D01*
X347785Y164150D02*
G03X349500Y162750I1715J350D01*
G01X347785Y164150D02*
G03X347050Y164750I-735J-150D01*
G01X345950*
G03X345215Y164150I-0J-750*
G01X344200Y162896D02*
G03X345215Y164150I-700J1604D01*
G01X344200Y162896D02*
G03X343750Y162209I300J-687D01*
G01Y137702*
G03X343808Y137413I750J-0*
G01X346843Y130146*
G03X346958Y129956I692J289*
G01X335042D02*
G03X346958I5958J-4956D01*
G01X335042D02*
G03X335157Y130146I-577J479D01*
G01X338192Y137413*
G03X338250Y137702I-692J289*
G01Y162209*
G03X337800Y162896I-750J-0*
G01X336751Y164430D02*
G03X337800Y162896I1749J70D01*
G01X336751Y164430D02*
G03X336002Y165150I-749J-30D01*
G01X334800*
X333138Y165838D02*
G03X334800Y165150I1662J1662D01*
G01X333138Y165838D02*
X328438Y170538D01*
X327750Y172200D02*
G03X328438Y170538I2350J0D01*
G01X327750Y172200D02*
Y213916D01*
G03X327530Y214446I-750J-0*
G01X301168Y240809*
G03X301045Y240908I-530J-531*
G01X300054Y241548*
G03X299901Y241624I-407J-629*
G01X303676Y245399D02*
G03X299901Y241624I-2776J-999D01*
G01X303676Y245399D02*
G03X303752Y245246I705J254D01*
G01X304392Y244255*
G03X304491Y244132I630J407*
G01X331762Y216862*
X332450Y215200D02*
G03X331762Y216862I-2350J0D01*
G01X332450Y215200D02*
Y173484D01*
G03X332670Y172954I750J0*
G01X335476Y170147*
G03X336754Y170624I530J531*
G01X337100Y171550D02*
G03X336754Y170624I1400J-1050D01*
G01X337100Y171550D02*
G03Y172450I-600J450D01*
G01X336750Y173500D02*
G03X337100Y172450I1750J0D01*
G01X336750Y173500D02*
Y179500D01*
X338500Y181250D02*
G03X336750Y179500I0J-1750D01*
G01X338500Y181250D02*
X343500D01*
X345250Y179500D02*
G03X343500Y181250I-1750J0D01*
G01X345250Y179500D02*
Y173500D01*
X344900Y172450D02*
G03X345250Y173500I-1400J1050D01*
G01X344900Y172450D02*
G03Y171550I600J-450D01*
G01X345215Y170850D02*
G03X344900Y171550I-1715J-350D01*
G01X345215Y170850D02*
G03X345950Y170250I735J150D01*
G01X347050*
G03X347785Y170850I0J750*
G01X348100Y171550D02*
G03X347785Y170850I1400J-1050D01*
G01X348100Y171550D02*
G03Y172450I-600J450D01*
G01X347750Y173500D02*
G03X348100Y172450I1750J0D01*
G01X347750Y173500D02*
Y179500D01*
X349500Y181250D02*
G03X347750Y179500I0J-1750D01*
G01X349500Y181250D02*
X354500D01*
X356250Y179500D02*
G03X354500Y181250I-1750J0D01*
G01X186480Y130480D02*
X185243Y129243D01*
X175520Y130480D02*
X176757Y129243D01*
X175520Y119520D02*
X176757Y120757D01*
X186480Y119520D02*
X185243Y120757D01*
X117520Y188480D02*
X118757Y187243D01*
X117520Y177520D02*
X118757Y178757D01*
X128480Y177520D02*
X127243Y178757D01*
X128480Y188480D02*
X127243Y187243D01*
X325359Y383359D02*
X324121Y382121D01*
X318641Y383359D02*
X319879Y382121D01*
X318641Y376641D02*
X319879Y377879D01*
X325359Y376641D02*
X324121Y377879D01*
X246480Y130480D02*
X245243Y129243D01*
X235520Y130480D02*
X236757Y129243D01*
X235520Y119520D02*
X236757Y120757D01*
X246480Y119520D02*
X245243Y120757D01*
X105641Y453359D02*
X106879Y452121D01*
X105641Y446641D02*
X106879Y447879D01*
X112359Y446641D02*
X111121Y447879D01*
X112359Y453359D02*
X111121Y452121D01*
X391359Y172641D02*
X390121Y173879D01*
X391359Y179359D02*
X390121Y178121D01*
X384641Y179359D02*
X385879Y178121D01*
X384641Y172641D02*
X385879Y173879D01*
X105641Y323359D02*
X106879Y322121D01*
X105641Y316641D02*
X106879Y317879D01*
X112359Y316641D02*
X111121Y317879D01*
X202086Y218086D02*
X200849Y216849D01*
X197914Y218086D02*
X199151Y216849D01*
X197914Y213914D02*
X199151Y215151D01*
X202086Y213914D02*
X200849Y215151D01*
X213086Y240086D02*
X211849Y238849D01*
X208914Y240086D02*
X210151Y238849D01*
X208914Y235914D02*
X210151Y237151D01*
X213086Y235914D02*
X211849Y237151D01*
X205086Y240086D02*
X203849Y238849D01*
X200914Y240086D02*
X202151Y238849D01*
X200914Y235914D02*
X202151Y237151D01*
X205086Y235914D02*
X203849Y237151D01*
X268586Y173086D02*
X267349Y171849D01*
X264414Y173086D02*
X265651Y171849D01*
X264414Y168914D02*
X265651Y170151D01*
X268586Y168914D02*
X267349Y170151D01*
X153086Y374086D02*
X151849Y372849D01*
X148914Y374086D02*
X150151Y372849D01*
X148914Y369914D02*
X150151Y371151D01*
X153086Y369914D02*
X151849Y371151D01*
X162086Y360086D02*
X160849Y358849D01*
X157914Y360086D02*
X159151Y358849D01*
X162086Y355914D02*
X160849Y357151D01*
X152586Y392086D02*
X151349Y390849D01*
X148414Y392086D02*
X149651Y390849D01*
X148414Y387914D02*
X149651Y389151D01*
X152586Y387914D02*
X151349Y389151D01*
X256475Y280975D02*
X255237Y279737D01*
X251525Y280975D02*
X252763Y279737D01*
X251525Y276025D02*
X252763Y277263D01*
X256475Y276025D02*
X255237Y277263D01*
X148914Y406086D02*
X150151Y404849D01*
X148914Y401914D02*
X150151Y403151D01*
X153086Y401914D02*
X151849Y403151D01*
X202086Y354086D02*
X200849Y352849D01*
X197914Y354086D02*
X199151Y352849D01*
X197914Y349914D02*
X199151Y351151D01*
X202086Y349914D02*
X200849Y351151D01*
X202086Y341086D02*
X200849Y339849D01*
X197914Y341086D02*
X199151Y339849D01*
X197914Y336914D02*
X199151Y338151D01*
X202086Y336914D02*
X200849Y338151D01*
X202086Y329086D02*
X200849Y327849D01*
X197914Y329086D02*
X199151Y327849D01*
X197914Y324914D02*
X199151Y326151D01*
X202086Y324914D02*
X200849Y326151D01*
X219086Y329086D02*
X217849Y327849D01*
X214914Y329086D02*
X216151Y327849D01*
X214914Y324914D02*
X216151Y326151D01*
X219086Y324914D02*
X217849Y326151D01*
X219086Y317086D02*
X217849Y315849D01*
X214914Y317086D02*
X216151Y315849D01*
X214914Y312914D02*
X216151Y314151D01*
X219086Y312914D02*
X217849Y314151D01*
X233086Y292086D02*
X231849Y290849D01*
X228914Y292086D02*
X230151Y290849D01*
X228914Y287914D02*
X230151Y289151D01*
X233086Y287914D02*
X231849Y289151D01*
X257086Y292086D02*
X255849Y290849D01*
X252914Y292086D02*
X254151Y290849D01*
X252914Y287914D02*
X254151Y289151D01*
X257086Y287914D02*
X255849Y289151D01*
X245086Y292086D02*
X243849Y290849D01*
X240914Y292086D02*
X242151Y290849D01*
X240914Y287914D02*
X242151Y289151D01*
X245086Y287914D02*
X243849Y289151D01*
X245086Y281086D02*
X243849Y279849D01*
X240914Y281086D02*
X242151Y279849D01*
X240914Y276914D02*
X242151Y278151D01*
X245086Y276914D02*
X243849Y278151D01*
X268586Y173086D02*
X267349Y171849D01*
X264414Y173086D02*
X265651Y171849D01*
X264414Y168914D02*
X265651Y170151D01*
X268586Y168914D02*
X267349Y170151D01*
X100000Y99900D02*
X400000D01*
Y500000*
X100000*
Y99900*
X126000Y120000D02*
G03X126000I-6000J0D01*
G01X386000D02*
G03X386000I-6000J0D01*
G01Y480000D02*
G03X386000I-6000J0D01*
G01X126000D02*
G03X126000I-6000J0D01*
G54D34*
G01X301000Y137000D02*
X297464Y128536D01*
X301000Y132000*
X304536Y128536*
X301000Y137000*
X298076Y130000D02*
X298959D01*
X303041D02*
X303924D01*
X298912Y132000D02*
X301000D01*
X303088*
X299747Y134000D02*
X302253D01*
X300582Y136000D02*
X301418D01*
X298000Y129060D02*
Y129818D01*
X300000Y131020D02*
Y134606D01*
X302000Y131020D02*
Y134606D01*
X304000Y129060D02*
Y129818D01*
X341000Y137000D02*
X337464Y128536D01*
X341000Y132000*
X344536Y128536*
X341000Y137000*
X338076Y130000D02*
X338959D01*
X343041D02*
X343924D01*
X338912Y132000D02*
X341000D01*
X343088*
X339747Y134000D02*
X342253D01*
X340582Y136000D02*
X341418D01*
X338000Y129060D02*
Y129818D01*
X340000Y131020D02*
Y134606D01*
X342000Y131020D02*
Y134606D01*
X344000Y129060D02*
Y129818D01*
X201700Y208000D02*
X206286Y206586D01*
X203700Y208000*
X206286Y209414*
X201700Y208000*
X203700*
X202000Y207907D02*
Y208093D01*
X204000Y207291D02*
Y207836D01*
Y208164D02*
Y208709D01*
X206000Y206674D02*
Y206742D01*
Y209258D02*
Y209326D01*
X135000Y223000D02*
X126536Y226536D01*
X130000Y223000*
X126536Y219464*
X135000Y223000*
X127060Y220000D02*
X127818D01*
X129020Y222000D02*
X132606D01*
X129020Y224000D02*
X132606D01*
X127060Y226000D02*
X127818D01*
X128000Y220076D02*
Y220959D01*
Y225041D02*
Y225924D01*
X130000Y220912D02*
Y223000D01*
Y225088*
X132000Y221747D02*
Y224253D01*
X134000Y222582D02*
Y223418D01*
X130879Y255121D02*
X128000Y263000D01*
X127950Y258050*
X123000Y258000*
X130879Y255121*
X128474Y256000D02*
X130558D01*
X123000Y258000D02*
X129827D01*
X127970Y260000D02*
X129096D01*
X127990Y262000D02*
X128365D01*
X124000Y257635D02*
Y258010D01*
X126000Y256904D02*
Y258030D01*
X128000Y256173D02*
Y263000D01*
X130000Y255442D02*
Y257526D01*
X348000Y380000D02*
X343414Y381414D01*
X346000Y380000*
X343414Y378586*
X348000Y380000*
X346000D02*
X348000D01*
X344000Y378766D02*
Y378906D01*
Y381094D02*
Y381234D01*
X346000Y379383D02*
Y380000D01*
Y380617*
X348000Y380000D02*
X348000D01*
X301000Y125000D02*
Y167500D01*
X341000Y125000D02*
Y167500D01*
X301000D02*
X312000D01*
X341000D02*
X352000D01*
X182500Y185000D02*
Y199000D01*
X191500Y208000*
X207700*
X207750Y207950*
X220000*
X123000Y223000D02*
X181500D01*
X220000Y226450D02*
X231950D01*
X123000Y263000D02*
X133000Y253000D01*
X181500*
X342000Y380000D02*
X368000D01*
X385000*
G54D35*
X211000Y148000D03*
X190000Y163000D03*
X207700Y171000D03*
Y176000D03*
X266500Y171000D03*
X184000Y216000D03*
X200000D03*
X190500Y223000D03*
X244500Y222200D03*
X190500Y233000D03*
X211000Y238000D03*
X203000D03*
X190500Y243000D03*
X248000Y244400D03*
X251100Y248300D03*
X289600D03*
X300900Y244400D03*
X190500Y253000D03*
X177500Y269000D03*
X187500Y261200D03*
X294400Y269100D03*
X192500Y272200D03*
X243000Y279000D03*
X184000Y281700D03*
X207700Y284800D03*
X231000Y290000D03*
X243000D03*
X255000D03*
X217000Y315000D03*
X200000Y327000D03*
X217000D03*
X200000Y339000D03*
X294400Y331200D03*
X160000Y358000D03*
X200000Y352000D03*
X249500Y360500D03*
X151000Y372000D03*
X150500Y390000D03*
X151000Y404000D03*
G54D53*
X338500Y422000D02*
X335500D01*
X362500D02*
X359500D01*
G54D64*
X161000Y125000D03*
X157000Y475000D03*
X221000Y125000D03*
X321000D03*
X281000D03*
X123000Y163000D03*
X297000Y475000D03*
X337000D03*
X123000Y283000D03*
Y243000D03*
G54D65*
X181000Y125000D03*
X201000D03*
X177000Y475000D03*
X197000D03*
X217000D03*
X241000Y125000D03*
X261000D03*
X341000D03*
X301000D03*
X123000Y183000D03*
Y203000D03*
X277000Y475000D03*
X257000D03*
X237000D03*
X317000D03*
X123000Y263000D03*
Y223000D03*
G54D79*
X225906Y254783D02*
Y261280D01*
X229055Y254783D02*
Y261280D01*
X232205Y254783D02*
Y261280D01*
X235354Y254783D02*
Y261280D01*
X238504Y254783D02*
Y261280D01*
X241654Y254783D02*
Y261280D01*
X244803Y254783D02*
Y261280D01*
X247953Y254783D02*
Y261280D01*
X251102Y254783D02*
Y261280D01*
X254252Y254783D02*
Y261280D01*
X257402Y254783D02*
Y261280D01*
X262028Y265906D02*
X268524D01*
X262028Y269055D02*
X268524D01*
X262028Y272205D02*
X268524D01*
X262028Y275354D02*
X268524D01*
X262028Y278504D02*
X268524D01*
X262028Y281654D02*
X268524D01*
X262028Y284803D02*
X268524D01*
X262028Y287953D02*
X268524D01*
X262028Y291102D02*
X268524D01*
X262028Y294252D02*
X268524D01*
X262028Y297402D02*
X268524D01*
X257402Y302028D02*
Y308524D01*
X254252Y302028D02*
Y308524D01*
X251102Y302028D02*
Y308524D01*
X247953Y302028D02*
Y308524D01*
X244803Y302028D02*
Y308524D01*
X241654Y302028D02*
Y308524D01*
X238504Y302028D02*
Y308524D01*
X235354Y302028D02*
Y308524D01*
X232205Y302028D02*
Y308524D01*
X229055Y302028D02*
Y308524D01*
X225906Y302028D02*
Y308524D01*
X214783Y297402D02*
X221280D01*
X214783Y294252D02*
X221280D01*
X214783Y291102D02*
X221280D01*
X214783Y287953D02*
X221280D01*
X214783Y284803D02*
X221280D01*
X214783Y281654D02*
X221280D01*
X214783Y278504D02*
X221280D01*
X214783Y275354D02*
X221280D01*
X214783Y272205D02*
X221280D01*
X214783Y269055D02*
X221280D01*
X214783Y265906D02*
X221280D01*
G54D85*
X178750Y161600D02*
Y164400D01*
X182500Y161600D02*
Y164400D01*
X186250Y161600D02*
Y164400D01*
Y171600D02*
Y174400D01*
X182500Y171600D02*
Y174400D01*
X178750Y171600D02*
Y174400D01*
G54D86*
X232000Y226500D02*
Y240646D01*
X235354Y244000*
Y258031*
X265276Y275354D02*
X318954D01*
X265276Y272205D02*
X302400D01*
X319000Y255605*
Y255400*
G74*
X0Y0D02*
M02*
