*
*
G04 PADS Layout (Build Number 2007.42.1) generated Gerber (RS-274-X) file*
G04 PC Version=2.1*
*
%IN "MCA.pcb"*%
*
%MOIN*%
*
%FSLAX35Y35*%
*
*
*
*
G04 PC Standard Apertures*
*
*
G04 Thermal Relief Aperture macro.*
%AMTER*
1,1,$1,0,0*
1,0,$1-$2,0,0*
21,0,$3,$4,0,0,45*
21,0,$3,$4,0,0,135*
%
*
*
G04 Annular Aperture macro.*
%AMANN*
1,1,$1,0,0*
1,0,$2,0,0*
%
*
*
G04 Odd Aperture macro.*
%AMODD*
1,1,$1,0,0*
1,0,$1-0.005,0,0*
%
*
*
G04 PC Custom Aperture Macros*
*
*
*
*
*
*
G04 PC Aperture Table*
*
%ADD010C,0.01*%
%ADD031C,0.015*%
*
*
*
*
G04 PC Copper Outlines (0)*
G04 Layer Name MCA.pcb - dark (0)*
%LPD*%
*
*
G04 PC Area=Custom_Thermal*
*
G04 PC Custom Flashes*
G04 Layer Name MCA.pcb - flashes*
%LPD*%
*
*
G04 PC Circuitry*
G04 Layer Name MCA.pcb - circuitry*
%LPD*%
*
G54D10*
G01X333000Y440000D02*
X341000D01*
X337000Y436000D02*
Y444000D01*
X373000Y440000D02*
X381000D01*
X377000Y436000D02*
Y444000D01*
X157000Y121000D02*
X165000Y129000D01*
X157000D02*
X165000Y121000D01*
X177000D02*
X185000Y129000D01*
X177000D02*
X185000Y121000D01*
X197000D02*
X205000Y129000D01*
X197000D02*
X205000Y121000D01*
X153000Y471000D02*
X161000Y479000D01*
X153000D02*
X161000Y471000D01*
X173000D02*
X181000Y479000D01*
X173000D02*
X181000Y471000D01*
X193000D02*
X201000Y479000D01*
X193000D02*
X201000Y471000D01*
X213000D02*
X221000Y479000D01*
X213000D02*
X221000Y471000D01*
X217000Y121000D02*
X225000Y129000D01*
X217000D02*
X225000Y121000D01*
X237000D02*
X245000Y129000D01*
X237000D02*
X245000Y121000D01*
X257000D02*
X265000Y129000D01*
X257000D02*
X265000Y121000D01*
X317000D02*
X325000Y129000D01*
X317000D02*
X325000Y121000D01*
X337000D02*
X345000Y129000D01*
X337000D02*
X345000Y121000D01*
X105000Y310000D02*
X113000D01*
X109000Y306000D02*
Y314000D01*
X105000Y320000D02*
X113000D01*
X109000Y316000D02*
Y324000D01*
X105000Y330000D02*
X113000D01*
X109000Y326000D02*
Y334000D01*
X105000Y340000D02*
X113000D01*
X109000Y336000D02*
Y344000D01*
X105000Y350000D02*
X113000D01*
X109000Y346000D02*
Y354000D01*
X105000Y360000D02*
X113000D01*
X109000Y356000D02*
Y364000D01*
X105000Y370000D02*
X113000D01*
X109000Y366000D02*
Y374000D01*
X105000Y380000D02*
X113000D01*
X109000Y376000D02*
Y384000D01*
X105000Y390000D02*
X113000D01*
X109000Y386000D02*
Y394000D01*
X105000Y400000D02*
X113000D01*
X109000Y396000D02*
Y404000D01*
X105000Y410000D02*
X113000D01*
X109000Y406000D02*
Y414000D01*
X105000Y420000D02*
X113000D01*
X109000Y416000D02*
Y424000D01*
X105000Y430000D02*
X113000D01*
X109000Y426000D02*
Y434000D01*
X105000Y440000D02*
X113000D01*
X109000Y436000D02*
Y444000D01*
X105000Y450000D02*
X113000D01*
X109000Y446000D02*
Y454000D01*
X384000Y296000D02*
X392000D01*
X388000Y292000D02*
Y300000D01*
X384000Y286000D02*
X392000D01*
X388000Y282000D02*
Y290000D01*
X384000Y276000D02*
X392000D01*
X388000Y272000D02*
Y280000D01*
X384000Y266000D02*
X392000D01*
X388000Y262000D02*
Y270000D01*
X384000Y256000D02*
X392000D01*
X388000Y252000D02*
Y260000D01*
X384000Y246000D02*
X392000D01*
X388000Y242000D02*
Y250000D01*
X384000Y236000D02*
X392000D01*
X388000Y232000D02*
Y240000D01*
X384000Y226000D02*
X392000D01*
X388000Y222000D02*
Y230000D01*
X384000Y216000D02*
X392000D01*
X388000Y212000D02*
Y220000D01*
X384000Y206000D02*
X392000D01*
X388000Y202000D02*
Y210000D01*
X384000Y196000D02*
X392000D01*
X388000Y192000D02*
Y200000D01*
X384000Y186000D02*
X392000D01*
X388000Y182000D02*
Y190000D01*
X384000Y176000D02*
X392000D01*
X388000Y172000D02*
Y180000D01*
X384000Y166000D02*
X392000D01*
X388000Y162000D02*
Y170000D01*
X384000Y156000D02*
X392000D01*
X388000Y152000D02*
Y160000D01*
X277000Y121000D02*
X285000Y129000D01*
X277000D02*
X285000Y121000D01*
X297000D02*
X305000Y129000D01*
X297000D02*
X305000Y121000D01*
X119000Y159000D02*
X127000Y167000D01*
X119000D02*
X127000Y159000D01*
X119000Y179000D02*
X127000Y187000D01*
X119000D02*
X127000Y179000D01*
X119000Y199000D02*
X127000Y207000D01*
X119000D02*
X127000Y199000D01*
X293000Y471000D02*
X301000Y479000D01*
X293000D02*
X301000Y471000D01*
X273000D02*
X281000Y479000D01*
X273000D02*
X281000Y471000D01*
X253000D02*
X261000Y479000D01*
X253000D02*
X261000Y471000D01*
X233000D02*
X241000Y479000D01*
X233000D02*
X241000Y471000D01*
X333000Y397000D02*
X341000D01*
Y405000*
X333000*
Y397000*
X337000Y401000D02*
Y405000D01*
X278000Y397000D02*
X286000D01*
Y405000*
X278000*
Y397000*
X282000Y401000D02*
Y405000D01*
X278000Y350000D02*
X286000D01*
X282000Y346000D02*
Y354000D01*
X338000Y350000D02*
X346000D01*
X342000Y346000D02*
Y354000D01*
X338000Y380000D02*
X346000D01*
X342000Y376000D02*
Y384000D01*
X318000Y380000D02*
X326000D01*
X322000Y376000D02*
Y384000D01*
X278000Y380000D02*
X286000D01*
X282000Y376000D02*
Y384000D01*
X315000Y255400D02*
X323000D01*
X319000Y251400D02*
Y259400D01*
X315000Y275400D02*
X323000D01*
X319000Y271400D02*
Y279400D01*
X333000Y471000D02*
X341000Y479000D01*
X333000D02*
X341000Y471000D01*
X313000D02*
X321000Y479000D01*
X313000D02*
X321000Y471000D01*
X173000Y436000D02*
X181000D01*
X177000Y432000D02*
Y440000D01*
X133000Y436000D02*
X141000D01*
X137000Y432000D02*
Y440000D01*
X173000Y424000D02*
X181000D01*
X177000Y420000D02*
Y428000D01*
X133000Y424000D02*
X141000D01*
X137000Y420000D02*
Y428000D01*
X119000Y279000D02*
X127000Y287000D01*
X119000D02*
X127000Y279000D01*
X119000Y259000D02*
X127000Y267000D01*
X119000D02*
X127000Y259000D01*
X119000Y239000D02*
X127000Y247000D01*
X119000D02*
X127000Y239000D01*
X119000Y219000D02*
X127000Y227000D01*
X119000D02*
X127000Y219000D01*
X211000Y144000D02*
X215000Y148000D01*
X211000Y152000*
X207000Y148000*
X211000Y144000*
Y148000D02*
Y152000D01*
X190000Y159000D02*
X194000Y163000D01*
X190000Y167000*
X186000Y163000*
X190000Y159000*
Y163000D02*
Y167000D01*
X207700D02*
X211700Y171000D01*
X207700Y175000*
X203700Y171000*
X207700Y167000*
Y171000D02*
Y175000D01*
Y172000D02*
X211700Y176000D01*
X207700Y180000*
X203700Y176000*
X207700Y172000*
Y176000D02*
Y180000D01*
X266500Y167000D02*
X270500Y171000D01*
X266500Y175000*
X262500Y171000*
X266500Y167000*
Y171000D02*
Y175000D01*
X203700Y204000D02*
X211700D01*
X203700Y212000*
X211700*
X203700Y204000*
X184000Y212000D02*
X188000Y216000D01*
X184000Y220000*
X180000Y216000*
X184000Y212000*
Y216000D02*
Y220000D01*
X200000Y212000D02*
X204000Y216000D01*
X200000Y220000*
X196000Y216000*
X200000Y212000*
Y216000D02*
Y220000D01*
X190500Y219000D02*
X194500Y223000D01*
X190500Y227000*
X186500Y223000*
X190500Y219000*
Y223000D02*
Y227000D01*
X244500Y218200D02*
X248500Y222200D01*
X244500Y226200*
X240500Y222200*
X244500Y218200*
Y222200D02*
Y226200D01*
X190500Y229000D02*
X194500Y233000D01*
X190500Y237000*
X186500Y233000*
X190500Y229000*
Y233000D02*
Y237000D01*
X211000Y234000D02*
X215000Y238000D01*
X211000Y242000*
X207000Y238000*
X211000Y234000*
Y238000D02*
Y242000D01*
X203000Y234000D02*
X207000Y238000D01*
X203000Y242000*
X199000Y238000*
X203000Y234000*
Y238000D02*
Y242000D01*
X190500Y239000D02*
X194500Y243000D01*
X190500Y247000*
X186500Y243000*
X190500Y239000*
Y243000D02*
Y247000D01*
X248000Y240400D02*
X252000Y244400D01*
X248000Y248400*
X244000Y244400*
X248000Y240400*
Y244400D02*
Y248400D01*
X251100Y244300D02*
X255100Y248300D01*
X251100Y252300*
X247100Y248300*
X251100Y244300*
Y248300D02*
Y252300D01*
X289600Y244300D02*
X293600Y248300D01*
X289600Y252300*
X285600Y248300*
X289600Y244300*
Y248300D02*
Y252300D01*
X300900Y240400D02*
X304900Y244400D01*
X300900Y248400*
X296900Y244400*
X300900Y240400*
Y244400D02*
Y248400D01*
X190500Y249000D02*
X194500Y253000D01*
X190500Y257000*
X186500Y253000*
X190500Y249000*
Y253000D02*
Y257000D01*
X177500Y265000D02*
X181500Y269000D01*
X177500Y273000*
X173500Y269000*
X177500Y265000*
Y269000D02*
Y273000D01*
X187500Y257200D02*
X191500Y261200D01*
X187500Y265200*
X183500Y261200*
X187500Y257200*
Y261200D02*
Y265200D01*
X294400Y265100D02*
X298400Y269100D01*
X294400Y273100*
X290400Y269100*
X294400Y265100*
Y269100D02*
Y273100D01*
X192500Y268200D02*
X196500Y272200D01*
X192500Y276200*
X188500Y272200*
X192500Y268200*
Y272200D02*
Y276200D01*
X243000Y275000D02*
X247000Y279000D01*
X243000Y283000*
X239000Y279000*
X243000Y275000*
Y279000D02*
Y283000D01*
X250000Y274500D02*
X258000Y282500D01*
Y274500*
X250000Y282500*
Y274500*
X184000Y277700D02*
X188000Y281700D01*
X184000Y285700*
X180000Y281700*
X184000Y277700*
Y281700D02*
Y285700D01*
X207700Y280800D02*
X211700Y284800D01*
X207700Y288800*
X203700Y284800*
X207700Y280800*
Y284800D02*
Y288800D01*
X231000Y286000D02*
X235000Y290000D01*
X231000Y294000*
X227000Y290000*
X231000Y286000*
Y290000D02*
Y294000D01*
X243000Y286000D02*
X247000Y290000D01*
X243000Y294000*
X239000Y290000*
X243000Y286000*
Y290000D02*
Y294000D01*
X255000Y286000D02*
X259000Y290000D01*
X255000Y294000*
X251000Y290000*
X255000Y286000*
Y290000D02*
Y294000D01*
X217000Y311000D02*
X221000Y315000D01*
X217000Y319000*
X213000Y315000*
X217000Y311000*
Y315000D02*
Y319000D01*
X200000Y323000D02*
X204000Y327000D01*
X200000Y331000*
X196000Y327000*
X200000Y323000*
Y327000D02*
Y331000D01*
X217000Y323000D02*
X221000Y327000D01*
X217000Y331000*
X213000Y327000*
X217000Y323000*
Y327000D02*
Y331000D01*
X200000Y335000D02*
X204000Y339000D01*
X200000Y343000*
X196000Y339000*
X200000Y335000*
Y339000D02*
Y343000D01*
X294400Y327200D02*
X298400Y331200D01*
X294400Y335200*
X290400Y331200*
X294400Y327200*
Y331200D02*
Y335200D01*
X160000Y354000D02*
X164000Y358000D01*
X160000Y362000*
X156000Y358000*
X160000Y354000*
Y358000D02*
Y362000D01*
X200000Y348000D02*
X204000Y352000D01*
X200000Y356000*
X196000Y352000*
X200000Y348000*
Y352000D02*
Y356000D01*
X249500Y356500D02*
X253500Y360500D01*
X249500Y364500*
X245500Y360500*
X249500Y356500*
Y360500D02*
Y364500D01*
X151000Y368000D02*
X155000Y372000D01*
X151000Y376000*
X147000Y372000*
X151000Y368000*
Y372000D02*
Y376000D01*
X150500Y386000D02*
X154500Y390000D01*
X150500Y394000*
X146500Y390000*
X150500Y386000*
Y390000D02*
Y394000D01*
X151000Y400000D02*
X155000Y404000D01*
X151000Y408000*
X147000Y404000*
X151000Y400000*
Y404000D02*
Y408000D01*
X400000Y268000D02*
X658000D01*
X400000Y244000D02*
X658000D01*
X400000Y220000D02*
X658000D01*
X400000Y196000D02*
X658000D01*
X400000Y172000D02*
X658000D01*
X400000Y148000D02*
X658000D01*
X400000Y124000D02*
X658000D01*
X400000Y100000D02*
X658000D01*
X400000Y268000D02*
Y100000D01*
X484000Y268000D02*
Y100000D01*
X520000Y268000D02*
Y100000D01*
X556000Y268000D02*
Y100000D01*
X610000Y268000D02*
Y100000D01*
X658000Y268000D02*
Y100000D01*
X435500Y256750D02*
X434955Y257500D01*
X434136Y257875*
X433045*
X432227Y257500*
X431682Y256750*
Y256000*
X431955Y255250*
X432227Y254875*
X432773Y254500*
X434409Y253750*
X434955Y253375*
X435227Y253000*
X435500Y252250*
Y251125*
X434955Y250375*
X434136Y250000*
X433045*
X432227Y250375*
X431682Y251125*
X437955Y257875D02*
Y250000D01*
X444227Y257875D02*
X440409Y250000D01*
Y257875D02*
X444227D01*
X440409Y250000D02*
X444227D01*
X446682Y257875D02*
Y250000D01*
Y257875D02*
X450227D01*
X446682Y254125D02*
X448864D01*
X446682Y250000D02*
X450227D01*
X493864Y257875D02*
X493318Y257500D01*
X492773Y256750*
X492500Y256000*
X492227Y254875*
Y253000*
X492500Y251875*
X492773Y251125*
X493318Y250375*
X493864Y250000*
X494955*
X495500Y250375*
X496045Y251125*
X496318Y251875*
X496591Y253000*
Y254875*
X496318Y256000*
X496045Y256750*
X495500Y257500*
X494955Y257875*
X493864*
X494682Y251500D02*
X496318Y249250D01*
X500955Y257875D02*
Y250000D01*
X499045Y257875D02*
X502864D01*
X505318D02*
X507500Y254125D01*
Y250000*
X509682Y257875D02*
X507500Y254125D01*
X532045Y256750D02*
X531500Y257500D01*
X530682Y257875*
X529591*
X528773Y257500*
X528227Y256750*
Y256000*
X528500Y255250*
X528773Y254875*
X529318Y254500*
X530955Y253750*
X531500Y253375*
X531773Y253000*
X532045Y252250*
Y251125*
X531500Y250375*
X530682Y250000*
X529591*
X528773Y250375*
X528227Y251125*
X534500Y257875D02*
X536682Y254125D01*
Y250000*
X538864Y257875D02*
X536682Y254125D01*
X541318Y257875D02*
Y250000D01*
Y257875D02*
X543500Y250000D01*
X545682Y257875D02*
X543500Y250000D01*
X545682Y257875D02*
Y250000D01*
X567500Y257875D02*
Y250000D01*
Y257875D02*
X569955D01*
X570773Y257500*
X571045Y257125*
X571318Y256375*
Y255250*
X571045Y254500*
X570773Y254125*
X569955Y253750*
X567500*
X573773Y257875D02*
Y250000D01*
X577045*
X581682Y257875D02*
X579500Y250000D01*
X581682Y257875D02*
X583864Y250000D01*
X580318Y252625D02*
X583045D01*
X588227Y257875D02*
Y250000D01*
X586318Y257875D02*
X590136D01*
X592591D02*
Y250000D01*
Y257875D02*
X596136D01*
X592591Y254125D02*
X594773D01*
X592591Y250000D02*
X596136D01*
X598591Y257875D02*
Y250000D01*
Y257875D02*
X600500D01*
X601318Y257500*
X601864Y256750*
X602136Y256000*
X602409Y254875*
Y253000*
X602136Y251875*
X601864Y251125*
X601318Y250375*
X600500Y250000*
X598591*
X626682Y257875D02*
Y250000D01*
X624773Y257875D02*
X628591D01*
X632682D02*
X632136Y257500D01*
X631591Y256750*
X631318Y256000*
X631045Y254875*
Y253000*
X631318Y251875*
X631591Y251125*
X632136Y250375*
X632682Y250000*
X633773*
X634318Y250375*
X634864Y251125*
X635136Y251875*
X635409Y253000*
Y254875*
X635136Y256000*
X634864Y256750*
X634318Y257500*
X633773Y257875*
X632682*
X637864D02*
Y250000D01*
X641136*
X406545Y233875D02*
X409545D01*
X407909Y230875*
X408727*
X409273Y230500*
X409545Y230125*
X409818Y229000*
Y228250*
X409545Y227125*
X409000Y226375*
X408182Y226000*
X407364*
X406545Y226375*
X406273Y226750*
X406000Y227500*
X415818Y233875D02*
X413091D01*
X412818Y230500*
X413091Y230875*
X413909Y231250*
X414727*
X415545Y230875*
X416091Y230125*
X416364Y229000*
X416091Y228250*
X415818Y227125*
X415273Y226375*
X414455Y226000*
X413636*
X412818Y226375*
X412545Y226750*
X412273Y227500*
X498500Y233875D02*
X495773Y228625D01*
X499864*
X498500Y233875D02*
Y226000D01*
X502864Y233875D02*
X505864D01*
X504227Y230875*
X505045*
X505591Y230500*
X505864Y230125*
X506136Y229000*
Y228250*
X505864Y227125*
X505318Y226375*
X504500Y226000*
X503682*
X502864Y226375*
X502591Y226750*
X502318Y227500*
X532000Y232000D02*
X544000D01*
X538000Y226000D02*
Y238000D01*
X564636Y233875D02*
X566818Y230125D01*
Y226000*
X569000Y233875D02*
X566818Y230125D01*
X571455Y233875D02*
Y226000D01*
Y233875D02*
X575000D01*
X571455Y230125D02*
X573636D01*
X571455Y226000D02*
X575000D01*
X581273Y232750D02*
X580727Y233500D01*
X579909Y233875*
X578818*
X578000Y233500*
X577455Y232750*
Y232000*
X577727Y231250*
X578000Y230875*
X578545Y230500*
X580182Y229750*
X580727Y229375*
X581000Y229000*
X581273Y228250*
Y227125*
X580727Y226375*
X579909Y226000*
X578818*
X578000Y226375*
X577455Y227125*
X617818Y232750D02*
Y226000D01*
X615364Y229375D02*
X620273D01*
X627636Y235375D02*
X622727Y223375D01*
X630091Y229375D02*
X635000D01*
X639091Y233875D02*
X638273Y233500D01*
X637727Y232375*
X637455Y230500*
Y229375*
X637727Y227500*
X638273Y226375*
X639091Y226000*
X639636*
X640455Y226375*
X641000Y227500*
X641273Y229375*
Y230500*
X641000Y232375*
X640455Y233500*
X639636Y233875*
X639091*
X644000Y226750D02*
X643727Y226375D01*
X644000Y226000*
X644273Y226375*
X644000Y226750*
X648364Y233875D02*
X647545Y233500D01*
X647000Y232375*
X646727Y230500*
Y229375*
X647000Y227500*
X647545Y226375*
X648364Y226000*
X648909*
X649727Y226375*
X650273Y227500*
X650545Y229375*
Y230500*
X650273Y232375*
X649727Y233500*
X648909Y233875*
X648364*
X409273Y208750D02*
X409000Y209500D01*
X408182Y209875*
X407636*
X406818Y209500*
X406273Y208375*
X406000Y206500*
Y204625*
X406273Y203125*
X406818Y202375*
X407636Y202000*
X407909*
X408727Y202375*
X409273Y203125*
X409545Y204250*
Y204625*
X409273Y205750*
X408727Y206500*
X407909Y206875*
X407636*
X406818Y206500*
X406273Y205750*
X406000Y204625*
X413636Y209875D02*
X412818Y209500D01*
X412273Y208375*
X412000Y206500*
Y205375*
X412273Y203500*
X412818Y202375*
X413636Y202000*
X414182*
X415000Y202375*
X415545Y203500*
X415818Y205375*
Y206500*
X415545Y208375*
X415000Y209500*
X414182Y209875*
X413636*
X496182Y208000D02*
Y208375D01*
X496455Y209125*
X496727Y209500*
X497273Y209875*
X498364*
X498909Y209500*
X499182Y209125*
X499455Y208375*
Y207625*
X499182Y206875*
X498636Y205750*
X495909Y202000*
X499727*
X506000Y209875D02*
X503273Y202000D01*
X502182Y209875D02*
X506000D01*
X532000Y202000D02*
X544000Y214000D01*
X532000D02*
X544000Y202000D01*
X564636Y209875D02*
X566818Y206125D01*
Y202000*
X569000Y209875D02*
X566818Y206125D01*
X571455Y209875D02*
Y202000D01*
Y209875D02*
X575000D01*
X571455Y206125D02*
X573636D01*
X571455Y202000D02*
X575000D01*
X581273Y208750D02*
X580727Y209500D01*
X579909Y209875*
X578818*
X578000Y209500*
X577455Y208750*
Y208000*
X577727Y207250*
X578000Y206875*
X578545Y206500*
X580182Y205750*
X580727Y205375*
X581000Y205000*
X581273Y204250*
Y203125*
X580727Y202375*
X579909Y202000*
X578818*
X578000Y202375*
X577455Y203125*
X617818Y208750D02*
Y202000D01*
X615364Y205375D02*
X620273D01*
X627636Y211375D02*
X622727Y199375D01*
X630091Y205375D02*
X635000D01*
X639091Y209875D02*
X638273Y209500D01*
X637727Y208375*
X637455Y206500*
Y205375*
X637727Y203500*
X638273Y202375*
X639091Y202000*
X639636*
X640455Y202375*
X641000Y203500*
X641273Y205375*
Y206500*
X641000Y208375*
X640455Y209500*
X639636Y209875*
X639091*
X644000Y202750D02*
X643727Y202375D01*
X644000Y202000*
X644273Y202375*
X644000Y202750*
X648364Y209875D02*
X647545Y209500D01*
X647000Y208375*
X646727Y206500*
Y205375*
X647000Y203500*
X647545Y202375*
X648364Y202000*
X648909*
X649727Y202375*
X650273Y203500*
X650545Y205375*
Y206500*
X650273Y208375*
X649727Y209500*
X648909Y209875*
X648364*
X409545Y185875D02*
X406818D01*
X406545Y182500*
X406818Y182875*
X407636Y183250*
X408455*
X409273Y182875*
X409818Y182125*
X410091Y181000*
X409818Y180250*
X409545Y179125*
X409000Y178375*
X408182Y178000*
X407364*
X406545Y178375*
X406273Y178750*
X406000Y179500*
X414182Y185875D02*
X413364Y185500D01*
X412818Y184375*
X412545Y182500*
Y181375*
X412818Y179500*
X413364Y178375*
X414182Y178000*
X414727*
X415545Y178375*
X416091Y179500*
X416364Y181375*
Y182500*
X416091Y184375*
X415545Y185500*
X414727Y185875*
X414182*
X499318Y184000D02*
Y184375D01*
X499591Y185125*
X499864Y185500*
X500409Y185875*
X501500*
X502045Y185500*
X502318Y185125*
X502591Y184375*
Y183625*
X502318Y182875*
X501773Y181750*
X499045Y178000*
X502864*
X532000D02*
X544000D01*
Y190000*
X532000*
Y178000*
X538000Y184000D02*
Y190000D01*
X564636Y185875D02*
X566818Y182125D01*
Y178000*
X569000Y185875D02*
X566818Y182125D01*
X571455Y185875D02*
Y178000D01*
Y185875D02*
X575000D01*
X571455Y182125D02*
X573636D01*
X571455Y178000D02*
X575000D01*
X581273Y184750D02*
X580727Y185500D01*
X579909Y185875*
X578818*
X578000Y185500*
X577455Y184750*
Y184000*
X577727Y183250*
X578000Y182875*
X578545Y182500*
X580182Y181750*
X580727Y181375*
X581000Y181000*
X581273Y180250*
Y179125*
X580727Y178375*
X579909Y178000*
X578818*
X578000Y178375*
X577455Y179125*
X617818Y184750D02*
Y178000D01*
X615364Y181375D02*
X620273D01*
X627636Y187375D02*
X622727Y175375D01*
X630091Y181375D02*
X635000D01*
X639091Y185875D02*
X638273Y185500D01*
X637727Y184375*
X637455Y182500*
Y181375*
X637727Y179500*
X638273Y178375*
X639091Y178000*
X639636*
X640455Y178375*
X641000Y179500*
X641273Y181375*
Y182500*
X641000Y184375*
X640455Y185500*
X639636Y185875*
X639091*
X644000Y178750D02*
X643727Y178375D01*
X644000Y178000*
X644273Y178375*
X644000Y178750*
X648364Y185875D02*
X647545Y185500D01*
X647000Y184375*
X646727Y182500*
Y181375*
X647000Y179500*
X647545Y178375*
X648364Y178000*
X648909*
X649727Y178375*
X650273Y179500*
X650545Y181375*
Y182500*
X650273Y184375*
X649727Y185500*
X648909Y185875*
X648364*
X406000Y160375D02*
X406545Y160750D01*
X407364Y161875*
Y154000*
X410091Y160000D02*
Y160375D01*
X410364Y161125*
X410636Y161500*
X411182Y161875*
X412273*
X412818Y161500*
X413091Y161125*
X413364Y160375*
Y159625*
X413091Y158875*
X412545Y157750*
X409818Y154000*
X413636*
X496591Y161875D02*
X499591D01*
X497955Y158875*
X498773*
X499318Y158500*
X499591Y158125*
X499864Y157000*
Y156250*
X499591Y155125*
X499045Y154375*
X498227Y154000*
X497409*
X496591Y154375*
X496318Y154750*
X496045Y155500*
X505864Y159250D02*
X505591Y158125D01*
X505045Y157375*
X504227Y157000*
X503955*
X503136Y157375*
X502591Y158125*
X502318Y159250*
Y159625*
X502591Y160750*
X503136Y161500*
X503955Y161875*
X504227*
X505045Y161500*
X505591Y160750*
X505864Y159250*
Y157375*
X505591Y155500*
X505045Y154375*
X504227Y154000*
X503682*
X502864Y154375*
X502591Y155125*
X538000Y154000D02*
X544000Y160000D01*
X538000Y166000*
X532000Y160000*
X538000Y154000*
Y160000D02*
Y166000D01*
X564636Y161875D02*
X566818Y158125D01*
Y154000*
X569000Y161875D02*
X566818Y158125D01*
X571455Y161875D02*
Y154000D01*
Y161875D02*
X575000D01*
X571455Y158125D02*
X573636D01*
X571455Y154000D02*
X575000D01*
X581273Y160750D02*
X580727Y161500D01*
X579909Y161875*
X578818*
X578000Y161500*
X577455Y160750*
Y160000*
X577727Y159250*
X578000Y158875*
X578545Y158500*
X580182Y157750*
X580727Y157375*
X581000Y157000*
X581273Y156250*
Y155125*
X580727Y154375*
X579909Y154000*
X578818*
X578000Y154375*
X577455Y155125*
X617818Y160750D02*
Y154000D01*
X615364Y157375D02*
X620273D01*
X627636Y163375D02*
X622727Y151375D01*
X630091Y157375D02*
X635000D01*
X639091Y161875D02*
X638273Y161500D01*
X637727Y160375*
X637455Y158500*
Y157375*
X637727Y155500*
X638273Y154375*
X639091Y154000*
X639636*
X640455Y154375*
X641000Y155500*
X641273Y157375*
Y158500*
X641000Y160375*
X640455Y161500*
X639636Y161875*
X639091*
X644000Y154750D02*
X643727Y154375D01*
X644000Y154000*
X644273Y154375*
X644000Y154750*
X648364Y161875D02*
X647545Y161500D01*
X647000Y160375*
X646727Y158500*
Y157375*
X647000Y155500*
X647545Y154375*
X648364Y154000*
X648909*
X649727Y154375*
X650273Y155500*
X650545Y157375*
Y158500*
X650273Y160375*
X649727Y161500*
X648909Y161875*
X648364*
X406545Y137875D02*
X409545D01*
X407909Y134875*
X408727*
X409273Y134500*
X409545Y134125*
X409818Y133000*
Y132250*
X409545Y131125*
X409000Y130375*
X408182Y130000*
X407364*
X406545Y130375*
X406273Y130750*
X406000Y131500*
X416091Y137875D02*
X413364Y130000D01*
X412273Y137875D02*
X416091D01*
X500273Y136375D02*
X500818Y136750D01*
X501636Y137875*
Y130000*
X532000D02*
X544000D01*
X532000Y142000*
X544000*
X532000Y130000*
X564636Y137875D02*
X566818Y134125D01*
Y130000*
X569000Y137875D02*
X566818Y134125D01*
X571455Y137875D02*
Y130000D01*
Y137875D02*
X575000D01*
X571455Y134125D02*
X573636D01*
X571455Y130000D02*
X575000D01*
X581273Y136750D02*
X580727Y137500D01*
X579909Y137875*
X578818*
X578000Y137500*
X577455Y136750*
Y136000*
X577727Y135250*
X578000Y134875*
X578545Y134500*
X580182Y133750*
X580727Y133375*
X581000Y133000*
X581273Y132250*
Y131125*
X580727Y130375*
X579909Y130000*
X578818*
X578000Y130375*
X577455Y131125*
X617818Y136750D02*
Y130000D01*
X615364Y133375D02*
X620273D01*
X627636Y139375D02*
X622727Y127375D01*
X630091Y133375D02*
X635000D01*
X639091Y137875D02*
X638273Y137500D01*
X637727Y136375*
X637455Y134500*
Y133375*
X637727Y131500*
X638273Y130375*
X639091Y130000*
X639636*
X640455Y130375*
X641000Y131500*
X641273Y133375*
Y134500*
X641000Y136375*
X640455Y137500*
X639636Y137875*
X639091*
X644000Y130750D02*
X643727Y130375D01*
X644000Y130000*
X644273Y130375*
X644000Y130750*
X648364Y137875D02*
X647545Y137500D01*
X647000Y136375*
X646727Y134500*
Y133375*
X647000Y131500*
X647545Y130375*
X648364Y130000*
X648909*
X649727Y130375*
X650273Y131500*
X650545Y133375*
Y134500*
X650273Y136375*
X649727Y137500*
X648909Y137875*
X648364*
X406000Y112375D02*
X406545Y112750D01*
X407364Y113875*
Y106000*
X412545Y113875D02*
X409818Y108625D01*
X413909*
X412545Y113875D02*
Y106000D01*
X500273Y112375D02*
X500818Y112750D01*
X501636Y113875*
Y106000*
X532000D02*
X544000Y118000D01*
Y106000*
X532000Y118000*
Y106000*
X564636Y113875D02*
X566818Y110125D01*
Y106000*
X569000Y113875D02*
X566818Y110125D01*
X571455Y113875D02*
Y106000D01*
Y113875D02*
X575000D01*
X571455Y110125D02*
X573636D01*
X571455Y106000D02*
X575000D01*
X581273Y112750D02*
X580727Y113500D01*
X579909Y113875*
X578818*
X578000Y113500*
X577455Y112750*
Y112000*
X577727Y111250*
X578000Y110875*
X578545Y110500*
X580182Y109750*
X580727Y109375*
X581000Y109000*
X581273Y108250*
Y107125*
X580727Y106375*
X579909Y106000*
X578818*
X578000Y106375*
X577455Y107125*
X617818Y112750D02*
Y106000D01*
X615364Y109375D02*
X620273D01*
X627636Y115375D02*
X622727Y103375D01*
X630091Y109375D02*
X635000D01*
X639091Y113875D02*
X638273Y113500D01*
X637727Y112375*
X637455Y110500*
Y109375*
X637727Y107500*
X638273Y106375*
X639091Y106000*
X639636*
X640455Y106375*
X641000Y107500*
X641273Y109375*
Y110500*
X641000Y112375*
X640455Y113500*
X639636Y113875*
X639091*
X644000Y106750D02*
X643727Y106375D01*
X644000Y106000*
X644273Y106375*
X644000Y106750*
X648364Y113875D02*
X647545Y113500D01*
X647000Y112375*
X646727Y110500*
Y109375*
X647000Y107500*
X647545Y106375*
X648364Y106000*
X648909*
X649727Y106375*
X650273Y107500*
X650545Y109375*
Y110500*
X650273Y112375*
X649727Y113500*
X648909Y113875*
X648364*
G54D31*
X100000Y99900D02*
X400000D01*
Y500000*
X100000*
Y99900*
X126000Y120000D02*
G75*
G03X126000I-6000J0D01*
G01X386000D02*
G03X386000I-6000J0D01*
G01Y480000D02*
G03X386000I-6000J0D01*
G01X126000D02*
G03X126000I-6000J0D01*
G74*
G01X0Y0D02*
M02*
