%
T1C.012F095S3
X01775Y0269
X016Y0358
X0151Y0372
X01505Y039
X0151Y0404
X02Y0352
X02Y0339
X02Y0327
X02077Y02848
X0184Y02817
X01925Y02722
X01875Y02612
X01905Y0253
X01905Y0243
X0203Y0238
X01905Y0233
X01905Y0223
X02Y0216
X0184Y0216
X02077Y0176
X02077Y0171
X019Y0163
X0211Y0148
X02445Y02222
X0211Y0238
X0248Y02444
X02511Y02483
X0243Y0279
X0255Y029
X0243Y029
X0231Y029
X0217Y0315
X0217Y0327
X02495Y03605
X02944Y03312
X02944Y02691
X02896Y02483
X03009Y02444
X02665Y0171
T2C.014F095S3
X0254Y02785
T3C.035F197S55
X0109Y031
X0109Y032
X0109Y033
X0109Y034
X0109Y035
X0109Y036
X0109Y037
X0109Y038
X0109Y039
X0109Y04
X0109Y041
X0109Y042
X0109Y043
X0109Y044
X0109Y045
X0137Y0436
X0177Y0436
X0137Y0424
X0177Y0424
X0319Y02554
X0319Y02754
X0282Y035
X0322Y038
X0282Y038
X0337Y044
X0377Y044
X0342Y038
X0342Y035
X0388Y0296
X0388Y0286
X0388Y0276
X0388Y0266
X0388Y0256
X0388Y0246
X0388Y0236
X0388Y0226
X0388Y0216
X0388Y0206
X0388Y0196
X0388Y0186
X0388Y0176
X0388Y0166
X0388Y0156
T4C.037F197S55
X02077Y0208
T5C.05F107S55
X0282Y0401
X0337Y0401
T6C.06F089S55
X0123Y0163
X0123Y0183
X0123Y0203
X0123Y0223
X0123Y0243
X0123Y0263
X0123Y0283
X0157Y0475
X0177Y0475
X0197Y0475
X0217Y0475
X0201Y0125
X0181Y0125
X0221Y0125
X0161Y0125
X0241Y0125
X0261Y0125
X0281Y0125
X0301Y0125
X0237Y0475
X0257Y0475
X0277Y0475
X0297Y0475
X0317Y0475
X0337Y0475
X0341Y0125
X0321Y0125
M30
