*
*
G04 PADS Layout (Build Number 2007.42.1) generated Gerber (RS-274-X) file*
G04 PC Version=2.1*
*
%IN "MCA.pcb"*%
*
%MOIN*%
*
%FSLAX35Y35*%
*
*
*
*
G04 PC Standard Apertures*
*
*
G04 Thermal Relief Aperture macro.*
%AMTER*
1,1,$1,0,0*
1,0,$1-$2,0,0*
21,0,$3,$4,0,0,45*
21,0,$3,$4,0,0,135*
%
*
*
G04 Annular Aperture macro.*
%AMANN*
1,1,$1,0,0*
1,0,$2,0,0*
%
*
*
G04 Odd Aperture macro.*
%AMODD*
1,1,$1,0,0*
1,0,$1-0.005,0,0*
%
*
*
G04 PC Custom Aperture Macros*
*
*
*
*
*
*
G04 PC Aperture Table*
*
%ADD017R,0.06X0.06*%
%ADD018R,0.13X0.13*%
%ADD019C,0.13*%
%ADD031C,0.015*%
%ADD047C,0.07*%
%ADD048R,0.07X0.07*%
%ADD053R,0.09X0.09*%
%ADD054C,0.09*%
%ADD057C,0.034*%
%ADD061R,0.1X0.1*%
%ADD088R,0.022X0.022*%
*
*
*
*
G04 PC Copper Outlines (0)*
G04 Layer Name MCA.pcb - dark (0)*
%LPD*%
*
*
G04 PC Area=Custom_Thermal*
*
G04 PC Custom Flashes*
G04 Layer Name MCA.pcb - flashes*
%LPD*%
*
*
G04 PC Circuitry*
G04 Layer Name MCA.pcb - circuitry*
%LPD*%
*
G54D17*
G01X207200Y297200D02*
X208200D01*
X216200D02*
X217200D01*
X385000Y389000D02*
Y388000D01*
Y380000D02*
Y379000D01*
X257000Y196000D02*
X258000D01*
X266000D02*
X267000D01*
X257000Y171000D02*
X258000D01*
X266000D02*
X267000D01*
Y207000D02*
X266000D01*
X258000D02*
X257000D01*
X173000Y196000D02*
X174000D01*
X182000D02*
X183000D01*
X257000Y185000D02*
X258000D01*
X266000D02*
X267000D01*
X164000Y424000D02*
X163000D01*
X155000D02*
X154000D01*
X164000Y436000D02*
X163000D01*
X155000D02*
X154000D01*
X207300Y411000D02*
X208300D01*
X216300D02*
X217300D01*
X318500Y243000D02*
X319500D01*
X327500D02*
X328500D01*
X318500Y287000D02*
X319500D01*
X327500D02*
X328500D01*
X321000Y177000D02*
Y176000D01*
Y168000D02*
Y167000D01*
X281000Y177000D02*
Y176000D01*
Y168000D02*
Y167000D01*
X168000Y283000D02*
X167000D01*
X159000D02*
X158000D01*
X168000Y243000D02*
X167000D01*
X159000D02*
X158000D01*
X141000Y390000D02*
X142000D01*
X150000D02*
X151000D01*
X141000Y358000D02*
X142000D01*
X150000D02*
X151000D01*
X141000Y327000D02*
X142000D01*
X150000D02*
X151000D01*
G54D18*
X161000Y125000D03*
X157000Y475000D03*
X221000Y125000D03*
X321000D03*
X281000D03*
X123000Y163000D03*
X297000Y475000D03*
X337000D03*
X123000Y283000D03*
Y243000D03*
G54D19*
X181000Y125000D03*
X201000D03*
X177000Y475000D03*
X197000D03*
X217000D03*
X241000Y125000D03*
X261000D03*
X341000D03*
X301000D03*
X123000Y183000D03*
Y203000D03*
X277000Y475000D03*
X257000D03*
X237000D03*
X317000D03*
X123000Y263000D03*
Y223000D03*
G54D31*
X100000Y99900D02*
X400000D01*
Y500000*
X100000*
Y99900*
X126000Y120000D02*
G75*
G03X126000I-6000J0D01*
G01X386000D02*
G03X386000I-6000J0D01*
G01Y480000D02*
G03X386000I-6000J0D01*
G01X126000D02*
G03X126000I-6000J0D01*
G54D47*
G01X337000Y440000D03*
X109000Y320000D03*
Y330000D03*
Y340000D03*
Y350000D03*
Y360000D03*
Y370000D03*
Y380000D03*
Y390000D03*
Y400000D03*
Y410000D03*
Y420000D03*
Y430000D03*
Y440000D03*
Y450000D03*
X388000Y286000D03*
Y276000D03*
Y266000D03*
Y256000D03*
Y246000D03*
Y236000D03*
Y226000D03*
Y216000D03*
Y206000D03*
Y196000D03*
Y186000D03*
Y176000D03*
Y166000D03*
Y156000D03*
X282000Y350000D03*
X342000D03*
Y380000D03*
X322000D03*
X282000D03*
X319000Y255400D03*
Y275400D03*
X177000Y436000D03*
Y424000D03*
G54D48*
X377000Y440000D03*
X109000Y310000D03*
X388000Y296000D03*
X137000Y436000D03*
Y424000D03*
X207750Y276000D02*
Y274000D01*
X226250Y276000D02*
Y274000D01*
G54D53*
X337000Y401000D03*
G54D54*
X282000D03*
G54D57*
X232800Y196000D02*
X227800D01*
X232800Y191000D02*
X227800D01*
X232800Y186000D02*
X227800D01*
X232800Y181000D02*
X227800D01*
X232800Y176000D02*
X227800D01*
X232800Y171000D02*
X227800D01*
X232800Y166000D02*
X227800D01*
X232800Y161000D02*
X227800D01*
X210200D02*
X205200D01*
X210200Y166000D02*
X205200D01*
X210200Y171000D02*
X205200D01*
X210200Y176000D02*
X205200D01*
X210200Y181000D02*
X205200D01*
X210200Y186000D02*
X205200D01*
X210200Y191000D02*
X205200D01*
X210200Y196000D02*
X205200D01*
X192500Y388500D02*
Y393500D01*
X187500Y388500D02*
Y393500D01*
X182500Y388500D02*
Y393500D01*
X177500Y388500D02*
Y393500D01*
Y408500D02*
Y413500D01*
X182500Y408500D02*
Y413500D01*
X187500Y408500D02*
Y413500D01*
X192500Y408500D02*
Y413500D01*
G54D61*
X366000Y381500D02*
Y378500D01*
Y405500D02*
Y402500D01*
G54D88*
X148400Y407750D02*
X145600D01*
X148400Y404000D02*
X145600D01*
X148400Y400250D02*
X145600D01*
X138400D02*
X135600D01*
X138400Y404000D02*
X135600D01*
X138400Y407750D02*
X135600D01*
X148400Y375750D02*
X145600D01*
X148400Y372000D02*
X145600D01*
X148400Y368250D02*
X145600D01*
X138400D02*
X135600D01*
X138400Y372000D02*
X135600D01*
X138400Y375750D02*
X135600D01*
X148400Y344750D02*
X145600D01*
X148400Y341000D02*
X145600D01*
X148400Y337250D02*
X145600D01*
X138400D02*
X135600D01*
X138400Y341000D02*
X135600D01*
X138400Y344750D02*
X135600D01*
G74*
X0Y0D02*
M02*
