*
*
G04 PADS Layout (Build Number 2007.42.1) generated Gerber (RS-274-X) file*
G04 PC Version=2.1*
*
%IN "MCA.pcb"*%
*
%MOIN*%
*
%FSLAX35Y35*%
*
*
*
*
G04 PC Standard Apertures*
*
*
G04 Thermal Relief Aperture macro.*
%AMTER*
1,1,$1,0,0*
1,0,$1-$2,0,0*
21,0,$3,$4,0,0,45*
21,0,$3,$4,0,0,135*
%
*
*
G04 Annular Aperture macro.*
%AMANN*
1,1,$1,0,0*
1,0,$2,0,0*
%
*
*
G04 Odd Aperture macro.*
%AMODD*
1,1,$1,0,0*
1,0,$1-0.005,0,0*
%
*
*
G04 PC Custom Aperture Macros*
*
*
*
*
*
*
G04 PC Aperture Table*
*
%ADD017R,0.06X0.06*%
%ADD018R,0.13X0.13*%
%ADD019C,0.13*%
%ADD031C,0.015*%
%ADD047C,0.07*%
%ADD048R,0.07X0.07*%
%ADD053R,0.09X0.09*%
%ADD054C,0.09*%
%ADD061R,0.1X0.1*%
%ADD082R,0.02378X0.02378*%
%ADD088R,0.022X0.022*%
*
*
*
*
G04 PC Copper Outlines (0)*
G04 Layer Name MCA.pcb - dark (0)*
%LPD*%
*
*
G04 PC Area=Custom_Thermal*
*
G04 PC Custom Flashes*
G04 Layer Name MCA.pcb - flashes*
%LPD*%
*
*
G04 PC Circuitry*
G04 Layer Name MCA.pcb - circuitry*
%LPD*%
*
G54D17*
G01X352000Y167000D02*
Y168000D01*
Y176000D02*
Y177000D01*
X312000Y167000D02*
Y168000D01*
Y176000D02*
Y177000D01*
X311000Y422000D02*
X312000D01*
X320000D02*
X321000D01*
X368000Y342000D02*
Y343000D01*
Y351000D02*
Y352000D01*
X385000Y342000D02*
Y343000D01*
Y351000D02*
Y352000D01*
X249500Y361000D02*
Y360000D01*
Y352000D02*
Y351000D01*
X341000Y167000D02*
Y168000D01*
Y176000D02*
Y177000D01*
X232000Y227000D02*
Y226000D01*
Y218000D02*
Y217000D01*
X238500Y351000D02*
Y352000D01*
Y360000D02*
Y361000D01*
X301000Y167000D02*
Y168000D01*
Y176000D02*
Y177000D01*
X368000Y370500D02*
Y371500D01*
Y379500D02*
Y380500D01*
X385000Y370500D02*
Y371500D01*
Y379500D02*
Y380500D01*
X181000Y253000D02*
X182000D01*
X190000D02*
X191000D01*
X181000Y223000D02*
X182000D01*
X190000D02*
X191000D01*
X181000Y243000D02*
X182000D01*
X190000D02*
X191000D01*
X181000Y233000D02*
X182000D01*
X190000D02*
X191000D01*
X183000Y185000D02*
X182000D01*
X174000D02*
X173000D01*
G54D18*
X161000Y125000D03*
X157000Y475000D03*
X221000Y125000D03*
X321000D03*
X281000D03*
X123000Y163000D03*
X297000Y475000D03*
X337000D03*
X123000Y283000D03*
Y243000D03*
G54D19*
X181000Y125000D03*
X201000D03*
X177000Y475000D03*
X197000D03*
X217000D03*
X241000Y125000D03*
X261000D03*
X341000D03*
X301000D03*
X123000Y183000D03*
Y203000D03*
X277000Y475000D03*
X257000D03*
X237000D03*
X317000D03*
X123000Y263000D03*
Y223000D03*
G54D31*
X100000Y99900D02*
X400000D01*
Y500000*
X100000*
Y99900*
X126000Y120000D02*
G75*
G03X126000I-6000J0D01*
G01X386000D02*
G03X386000I-6000J0D01*
G01Y480000D02*
G03X386000I-6000J0D01*
G01X126000D02*
G03X126000I-6000J0D01*
G54D47*
G01X337000Y440000D03*
X109000Y320000D03*
Y330000D03*
Y340000D03*
Y350000D03*
Y360000D03*
Y370000D03*
Y380000D03*
Y390000D03*
Y400000D03*
Y410000D03*
Y420000D03*
Y430000D03*
Y440000D03*
Y450000D03*
X388000Y286000D03*
Y276000D03*
Y266000D03*
Y256000D03*
Y246000D03*
Y236000D03*
Y226000D03*
Y216000D03*
Y206000D03*
Y196000D03*
Y186000D03*
Y176000D03*
Y166000D03*
Y156000D03*
X282000Y350000D03*
X342000D03*
Y380000D03*
X322000D03*
X282000D03*
X319000Y255400D03*
Y275400D03*
X177000Y436000D03*
Y424000D03*
G54D48*
X221000Y207950D02*
X219000D01*
X221000Y226450D02*
X219000D01*
X377000Y440000D03*
X109000Y310000D03*
X388000Y296000D03*
X137000Y436000D03*
Y424000D03*
G54D53*
X337000Y401000D03*
G54D54*
X282000D03*
G54D61*
X338500Y422000D02*
X335500D01*
X362500D02*
X359500D01*
G54D82*
X225906Y254783D02*
Y261280D01*
X229055Y254783D02*
Y261280D01*
X232205Y254783D02*
Y261280D01*
X235354Y254783D02*
Y261280D01*
X238504Y254783D02*
Y261280D01*
X241654Y254783D02*
Y261280D01*
X244803Y254783D02*
Y261280D01*
X247953Y254783D02*
Y261280D01*
X251102Y254783D02*
Y261280D01*
X254252Y254783D02*
Y261280D01*
X257402Y254783D02*
Y261280D01*
X262028Y265906D02*
X268524D01*
X262028Y269055D02*
X268524D01*
X262028Y272205D02*
X268524D01*
X262028Y275354D02*
X268524D01*
X262028Y278504D02*
X268524D01*
X262028Y281654D02*
X268524D01*
X262028Y284803D02*
X268524D01*
X262028Y287953D02*
X268524D01*
X262028Y291102D02*
X268524D01*
X262028Y294252D02*
X268524D01*
X262028Y297402D02*
X268524D01*
X257402Y302028D02*
Y308524D01*
X254252Y302028D02*
Y308524D01*
X251102Y302028D02*
Y308524D01*
X247953Y302028D02*
Y308524D01*
X244803Y302028D02*
Y308524D01*
X241654Y302028D02*
Y308524D01*
X238504Y302028D02*
Y308524D01*
X235354Y302028D02*
Y308524D01*
X232205Y302028D02*
Y308524D01*
X229055Y302028D02*
Y308524D01*
X225906Y302028D02*
Y308524D01*
X214783Y297402D02*
X221280D01*
X214783Y294252D02*
X221280D01*
X214783Y291102D02*
X221280D01*
X214783Y287953D02*
X221280D01*
X214783Y284803D02*
X221280D01*
X214783Y281654D02*
X221280D01*
X214783Y278504D02*
X221280D01*
X214783Y275354D02*
X221280D01*
X214783Y272205D02*
X221280D01*
X214783Y269055D02*
X221280D01*
X214783Y265906D02*
X221280D01*
G54D88*
X178750Y161600D02*
Y164400D01*
X182500Y161600D02*
Y164400D01*
X186250Y161600D02*
Y164400D01*
Y171600D02*
Y174400D01*
X182500Y171600D02*
Y174400D01*
X178750Y171600D02*
Y174400D01*
G74*
X0Y0D02*
M02*
