*
*
G04 PADS Layout (Build Number 2007.42.1) generated Gerber (RS-274-X) file*
G04 PC Version=2.1*
*
%IN "MCA.pcb"*%
*
%MOIN*%
*
%FSLAX35Y35*%
*
*
*
*
G04 PC Standard Apertures*
*
*
G04 Thermal Relief Aperture macro.*
%AMTER*
1,1,$1,0,0*
1,0,$1-$2,0,0*
21,0,$3,$4,0,0,45*
21,0,$3,$4,0,0,135*
%
*
*
G04 Annular Aperture macro.*
%AMANN*
1,1,$1,0,0*
1,0,$2,0,0*
%
*
*
G04 Odd Aperture macro.*
%AMODD*
1,1,$1,0,0*
1,0,$1-0.005,0,0*
%
*
*
G04 PC Custom Aperture Macros*
*
*
*
*
*
*
G04 PC Aperture Table*
*
%ADD010C,0.01*%
%ADD012C,0.007*%
%ADD013C,0.005*%
%ADD031C,0.015*%
*
*
*
*
G04 PC Copper Outlines (0)*
G04 Layer Name MCA.pcb - dark (0)*
%LPD*%
*
*
G04 PC Area=Custom_Thermal*
*
G04 PC Copper Outlines (1)*
G04 Layer Name MCA.pcb - dark (1)*
%LPD*%
*
*
G04 PC Area=System Text*
G75*
G36*
G01*
X128607Y342068D02*
X126911D01*
X127223Y341666D01*
X127536Y341220D01*
X127759Y340729D01*
X127937Y340193D01*
X128071Y339702D01*
X128116Y339300D01*
X127714D01*
X127670Y339746D01*
X127580Y340193D01*
X127357Y340729D01*
X127089Y341264D01*
X126821Y341755D01*
X126509Y342157D01*
Y342470D01*
X128607D01*
Y342068D01*
G37*
G74*
*
G75*
G36*
G01*
X126554Y372566D02*
X126643Y372923D01*
X126866Y373191D01*
X127134Y373370D01*
X127491Y373414D01*
X127937Y373325D01*
X128295Y373057D01*
X128473Y372789D01*
X128562Y372477D01*
X128607Y372120D01*
X128652Y371718D01*
Y371316D01*
X128562Y371004D01*
X128473Y370736D01*
X128339Y370513D01*
X128161Y370334D01*
X127982Y370245D01*
X127759Y370155D01*
X127536D01*
X127268Y370200D01*
X127000Y370289D01*
X126777Y370468D01*
X126643Y370691D01*
X126554Y370959D01*
X126509Y371271D01*
X126598Y371673D01*
X126777Y371986D01*
X126911Y372081D01*
Y371227D01*
X126955Y370914D01*
X127089Y370691D01*
X127312Y370557D01*
X127536Y370513D01*
X127759D01*
X127893Y370602D01*
X128071Y370736D01*
X128161Y370870D01*
X128205Y371048D01*
X128250Y371271D01*
X128205Y371539D01*
X128071Y371763D01*
X127848Y371896D01*
X127580Y371941D01*
X127312Y371896D01*
X127089Y371763D01*
X126955Y371539D01*
X126911Y371227D01*
Y372081D01*
X127089Y372209D01*
X127446Y372298D01*
X127893Y372209D01*
X128071Y372075D01*
X128250Y371852D01*
X128205Y372298D01*
X128116Y372566D01*
X128027Y372789D01*
X127848Y372968D01*
X127491Y373057D01*
X127268Y373013D01*
X127089Y372879D01*
X127000Y372745D01*
X126955Y372521D01*
X126554Y372566D01*
G37*
G74*
*
G75*
G36*
G01*
X128562Y402848D02*
X128473Y402491D01*
X128250Y402179D01*
X127937Y402000D01*
X127580Y401955D01*
X127312Y402000D01*
X127089Y402045D01*
X126911Y402179D01*
X126732Y402357D01*
X126554Y402670D01*
X126509Y403116D01*
X126554Y403518D01*
X126777Y403830D01*
X127089Y404054D01*
X127446Y404143D01*
X127759Y404098D01*
X128027Y403920D01*
X127893Y404768D01*
X126687D01*
Y405170D01*
X128205D01*
X128518Y403518D01*
X128116Y403473D01*
X127893Y403696D01*
X127580Y403786D01*
X127268Y403741D01*
X127089Y403607D01*
X126955Y403384D01*
X126911Y403071D01*
X126955Y402759D01*
X127089Y402536D01*
X127268Y402357D01*
X127580Y402313D01*
X127804Y402357D01*
X127982Y402446D01*
X128071Y402625D01*
X128161Y402893D01*
X128562Y402848D01*
G37*
G74*
*
G75*
G36*
G01*
X129589Y342514D02*
Y340416D01*
X129634Y340193D01*
X129679Y340014D01*
X129768Y339880D01*
X130036Y339702D01*
X130437Y339657D01*
X130661D01*
X130884Y339746D01*
X131018Y339880D01*
X131107Y340059D01*
X131196Y340327D01*
Y342514D01*
X131643D01*
Y340639D01*
X131598Y340193D01*
X131509Y339836D01*
X131375Y339613D01*
X131107Y339389D01*
X130795Y339300D01*
X130393Y339255D01*
X129991Y339300D01*
X129634Y339434D01*
X129411Y339613D01*
X129232Y339880D01*
X129187Y340238D01*
X129143Y340639D01*
Y342514D01*
X129589D01*
G37*
G74*
*
G75*
G36*
G01*
Y373414D02*
Y371316D01*
X129634Y371093D01*
X129679Y370914D01*
X129768Y370780D01*
X130036Y370602D01*
X130437Y370557D01*
X130661D01*
X130884Y370646D01*
X131018Y370780D01*
X131107Y370959D01*
X131196Y371227D01*
Y373414D01*
X131643D01*
Y371539D01*
X131598Y371093D01*
X131509Y370736D01*
X131375Y370513D01*
X131107Y370289D01*
X130795Y370200D01*
X130393Y370155D01*
X129991Y370200D01*
X129634Y370334D01*
X129411Y370513D01*
X129232Y370780D01*
X129187Y371138D01*
X129143Y371539D01*
Y373414D01*
X129589D01*
G37*
G74*
*
G75*
G36*
G01*
Y405214D02*
Y403116D01*
X129634Y402893D01*
X129679Y402714D01*
X129768Y402580D01*
X130036Y402402D01*
X130437Y402357D01*
X130661D01*
X130884Y402446D01*
X131018Y402580D01*
X131107Y402759D01*
X131196Y403027D01*
Y405214D01*
X131643D01*
Y403339D01*
X131598Y402893D01*
X131509Y402536D01*
X131375Y402313D01*
X131107Y402089D01*
X130795Y402000D01*
X130393Y401955D01*
X129991Y402000D01*
X129634Y402134D01*
X129411Y402313D01*
X129232Y402580D01*
X129187Y402938D01*
X129143Y403339D01*
Y405214D01*
X129589D01*
G37*
G74*
*
G75*
G36*
G01*
X156054Y416366D02*
X156143Y416723D01*
X156366Y416991D01*
X156634Y417170D01*
X156991Y417214D01*
X157437Y417125D01*
X157795Y416857D01*
X157973Y416589D01*
X158062Y416277D01*
X158107Y415920D01*
X158152Y415518D01*
Y415116D01*
X158062Y414804D01*
X157973Y414536D01*
X157839Y414313D01*
X157661Y414134D01*
X157482Y414045D01*
X157259Y413955D01*
X157036D01*
X156768Y414000D01*
X156500Y414089D01*
X156277Y414268D01*
X156143Y414491D01*
X156054Y414759D01*
X156009Y415071D01*
X156098Y415473D01*
X156277Y415786D01*
X156411Y415881D01*
Y415027D01*
X156455Y414714D01*
X156589Y414491D01*
X156812Y414357D01*
X157036Y414313D01*
X157259D01*
X157393Y414402D01*
X157571Y414536D01*
X157661Y414670D01*
X157705Y414848D01*
X157750Y415071D01*
X157705Y415339D01*
X157571Y415563D01*
X157348Y415696D01*
X157080Y415741D01*
X156812Y415696D01*
X156589Y415563D01*
X156455Y415339D01*
X156411Y415027D01*
Y415881D01*
X156589Y416009D01*
X156946Y416098D01*
X157393Y416009D01*
X157571Y415875D01*
X157750Y415652D01*
X157705Y416098D01*
X157616Y416366D01*
X157527Y416589D01*
X157348Y416768D01*
X156991Y416857D01*
X156768Y416813D01*
X156589Y416679D01*
X156500Y416545D01*
X156455Y416321D01*
X156054Y416366D01*
G37*
G74*
*
G75*
G36*
G01*
X158107Y445768D02*
X156411D01*
X156723Y445366D01*
X157036Y444920D01*
X157259Y444429D01*
X157437Y443893D01*
X157571Y443402D01*
X157616Y443000D01*
X157214D01*
X157170Y443446D01*
X157080Y443893D01*
X156857Y444429D01*
X156589Y444964D01*
X156321Y445455D01*
X156009Y445857D01*
Y446170D01*
X158107D01*
Y445768D01*
G37*
G74*
*
G75*
G36*
G01*
X158812Y194000D02*
X158411D01*
Y194759D01*
X158009D01*
Y195161D01*
X158411D01*
Y197170D01*
X158723D01*
X158812Y197051D01*
Y195161D01*
X159750D01*
X158812Y196411D01*
Y197051D01*
X160241Y195161D01*
Y194759D01*
X158812D01*
Y194000D01*
G37*
G74*
*
G75*
G36*
G01*
Y326000D02*
X158411D01*
Y326759D01*
X158009D01*
Y327161D01*
X158411D01*
Y329170D01*
X158723D01*
X158812Y329051D01*
Y327161D01*
X159750D01*
X158812Y328411D01*
Y329051D01*
X160241Y327161D01*
Y326759D01*
X158812D01*
Y326000D01*
G37*
G74*
*
G75*
G36*
G01*
X160062Y357848D02*
X159973Y357491D01*
X159750Y357179D01*
X159437Y357000D01*
X159080Y356955D01*
X158634Y357045D01*
X158321Y357223D01*
X158098Y357580D01*
X158009Y357938D01*
X158054Y358250D01*
X158187Y358473D01*
X158366Y358652D01*
X158634Y358741D01*
X158277Y359009D01*
X158187Y359366D01*
X158277Y359813D01*
X158634Y360080D01*
X158857Y360170D01*
X159080Y360214D01*
X159437Y360170D01*
X159705Y359991D01*
X159884Y359723D01*
X160018Y359366D01*
X159616Y359321D01*
X159527Y359545D01*
X159437Y359723D01*
X159259Y359813D01*
X159080Y359857D01*
X158857Y359813D01*
X158723Y359723D01*
X158634Y359545D01*
X158589Y359366D01*
X158634Y359143D01*
X158768Y359009D01*
X158946Y358875D01*
X159259D01*
X159304Y358518D01*
X159036Y358563D01*
X158768Y358518D01*
X158589Y358384D01*
X158455Y358205D01*
X158411Y357938D01*
X158455Y357714D01*
X158589Y357491D01*
X158768Y357357D01*
X159036Y357313D01*
X159259Y357357D01*
X159437Y357446D01*
X159571Y357625D01*
X159661Y357893D01*
X160062Y357848D01*
G37*
G74*
*
G75*
G36*
G01*
X158054Y388402D02*
X159616D01*
X159437Y388625D01*
X159259Y388759D01*
X158991Y388982D01*
X158634Y389295D01*
X158411Y389563D01*
X158277Y389741D01*
X158187Y389964D01*
X158098Y390321D01*
X158143Y390679D01*
X158366Y390946D01*
X158679Y391125D01*
X159080Y391214D01*
X159482Y391170D01*
X159795Y390991D01*
X160018Y390679D01*
X160107Y390321D01*
X159705Y390277D01*
X159661Y390500D01*
X159527Y390679D01*
X159348Y390813D01*
X159080Y390857D01*
X158857Y390813D01*
X158679Y390679D01*
X158545Y390545D01*
X158500Y390321D01*
X158545Y390098D01*
X158679Y389875D01*
X158946Y389563D01*
X159348Y389205D01*
X159661Y388938D01*
X160018Y388491D01*
X160107Y388268D01*
X160152Y388000D01*
X158054D01*
Y388402D01*
G37*
G74*
*
G75*
G36*
G01*
X159089Y414000D02*
Y417214D01*
X159357D01*
X159491Y416991D01*
X159714Y416768D01*
X159982Y416589D01*
X160295Y416411D01*
Y416009D01*
X159848Y416232D01*
X159491Y416500D01*
Y414000D01*
X159089D01*
G37*
G74*
*
G75*
G36*
G01*
Y443000D02*
Y446214D01*
X159357D01*
X159491Y445991D01*
X159714Y445768D01*
X159982Y445589D01*
X160295Y445411D01*
Y445009D01*
X159848Y445232D01*
X159491Y445500D01*
Y443000D01*
X159089D01*
G37*
G74*
*
G75*
G36*
G01*
X160554Y326402D02*
X162116D01*
X161937Y326625D01*
X161759Y326759D01*
X161491Y326982D01*
X161134Y327295D01*
X160911Y327563D01*
X160777Y327741D01*
X160687Y327964D01*
X160598Y328321D01*
X160643Y328679D01*
X160866Y328946D01*
X161179Y329125D01*
X161580Y329214D01*
X161982Y329170D01*
X162295Y328991D01*
X162518Y328679D01*
X162607Y328321D01*
X162205Y328277D01*
X162161Y328500D01*
X162027Y328679D01*
X161848Y328813D01*
X161580Y328857D01*
X161357Y328813D01*
X161179Y328679D01*
X161045Y328545D01*
X161000Y328321D01*
X161045Y328098D01*
X161179Y327875D01*
X161446Y327563D01*
X161848Y327205D01*
X162161Y326938D01*
X162518Y326491D01*
X162607Y326268D01*
X162652Y326000D01*
X160554D01*
Y326402D01*
G37*
G74*
*
G75*
G36*
G01*
Y357402D02*
X162116D01*
X161937Y357625D01*
X161759Y357759D01*
X161491Y357982D01*
X161134Y358295D01*
X160911Y358563D01*
X160777Y358741D01*
X160687Y358964D01*
X160598Y359321D01*
X160643Y359679D01*
X160866Y359946D01*
X161179Y360125D01*
X161580Y360214D01*
X161982Y360170D01*
X162295Y359991D01*
X162518Y359679D01*
X162607Y359321D01*
X162205Y359277D01*
X162161Y359500D01*
X162027Y359679D01*
X161848Y359813D01*
X161580Y359857D01*
X161357Y359813D01*
X161179Y359679D01*
X161045Y359545D01*
X161000Y359321D01*
X161045Y359098D01*
X161179Y358875D01*
X161446Y358563D01*
X161848Y358205D01*
X162161Y357938D01*
X162518Y357491D01*
X162607Y357268D01*
X162652Y357000D01*
X160554D01*
Y357402D01*
G37*
G74*
*
G75*
G36*
G01*
Y388402D02*
X162116D01*
X161937Y388625D01*
X161759Y388759D01*
X161491Y388982D01*
X161134Y389295D01*
X160911Y389563D01*
X160777Y389741D01*
X160687Y389964D01*
X160598Y390321D01*
X160643Y390679D01*
X160866Y390946D01*
X161179Y391125D01*
X161580Y391214D01*
X161982Y391170D01*
X162295Y390991D01*
X162518Y390679D01*
X162607Y390321D01*
X162205Y390277D01*
X162161Y390500D01*
X162027Y390679D01*
X161848Y390813D01*
X161580Y390857D01*
X161357Y390813D01*
X161179Y390679D01*
X161045Y390545D01*
X161000Y390321D01*
X161045Y390098D01*
X161179Y389875D01*
X161446Y389563D01*
X161848Y389205D01*
X162161Y388938D01*
X162518Y388491D01*
X162607Y388268D01*
X162652Y388000D01*
X160554D01*
Y388402D01*
G37*
G74*
*
G75*
G36*
G01*
X161455Y415116D02*
X161589Y414759D01*
X161768Y414536D01*
X162036Y414357D01*
X162348Y414313D01*
X162616Y414357D01*
X162884Y414446D01*
X163062Y414670D01*
X163196Y414893D01*
X163286Y415250D01*
X163330Y415652D01*
X163286Y415920D01*
X163241Y416232D01*
X163107Y416500D01*
X162929Y416723D01*
X162661Y416857D01*
X162348Y416902D01*
X162080Y416857D01*
X161857Y416723D01*
X161679Y416545D01*
X161545Y416232D01*
X161098Y416321D01*
X161277Y416723D01*
X161545Y416991D01*
X161902Y417214D01*
X162304Y417259D01*
X162705Y417214D01*
X163062Y417080D01*
X163375Y416813D01*
X163598Y416500D01*
X163732Y416098D01*
X163777Y415607D01*
X163732Y415161D01*
X163598Y414759D01*
X163420Y414402D01*
X163107Y414179D01*
X162750Y414000D01*
X162304Y413955D01*
X161857Y414000D01*
X161455Y414223D01*
X161187Y414536D01*
X161009Y415027D01*
X161455Y415116D01*
G37*
G74*
*
G75*
G36*
G01*
Y444116D02*
X161589Y443759D01*
X161768Y443536D01*
X162036Y443357D01*
X162348Y443313D01*
X162616Y443357D01*
X162884Y443446D01*
X163062Y443670D01*
X163196Y443893D01*
X163286Y444250D01*
X163330Y444652D01*
X163286Y444920D01*
X163241Y445232D01*
X163107Y445500D01*
X162929Y445723D01*
X162661Y445857D01*
X162348Y445902D01*
X162080Y445857D01*
X161857Y445723D01*
X161679Y445545D01*
X161545Y445232D01*
X161098Y445321D01*
X161277Y445723D01*
X161545Y445991D01*
X161902Y446214D01*
X162304Y446259D01*
X162705Y446214D01*
X163062Y446080D01*
X163375Y445813D01*
X163598Y445500D01*
X163732Y445098D01*
X163777Y444607D01*
X163732Y444161D01*
X163598Y443759D01*
X163420Y443402D01*
X163107Y443179D01*
X162750Y443000D01*
X162304Y442955D01*
X161857Y443000D01*
X161455Y443223D01*
X161187Y443536D01*
X161009Y444027D01*
X161455Y444116D01*
G37*
G74*
*
G75*
G36*
G01*
X161089Y194000D02*
Y197214D01*
X161357D01*
X161491Y196991D01*
X161714Y196768D01*
X161982Y196589D01*
X162295Y196411D01*
Y196009D01*
X161848Y196232D01*
X161491Y196500D01*
Y194000D01*
X161089D01*
G37*
G74*
*
G75*
G36*
G01*
X163455Y195116D02*
X163589Y194759D01*
X163768Y194536D01*
X164036Y194357D01*
X164348Y194313D01*
X164616Y194357D01*
X164884Y194446D01*
X165062Y194670D01*
X165196Y194893D01*
X165286Y195250D01*
X165330Y195652D01*
X165286Y195920D01*
X165241Y196232D01*
X165107Y196500D01*
X164929Y196723D01*
X164661Y196857D01*
X164348Y196902D01*
X164080Y196857D01*
X163857Y196723D01*
X163679Y196545D01*
X163545Y196232D01*
X163098Y196321D01*
X163277Y196723D01*
X163545Y196991D01*
X163902Y197214D01*
X164304Y197259D01*
X164705Y197214D01*
X165062Y197080D01*
X165375Y196813D01*
X165598Y196500D01*
X165732Y196098D01*
X165777Y195607D01*
X165732Y195161D01*
X165598Y194759D01*
X165420Y194402D01*
X165107Y194179D01*
X164750Y194000D01*
X164304Y193955D01*
X163857Y194000D01*
X163455Y194223D01*
X163187Y194536D01*
X163009Y195027D01*
X163455Y195116D01*
G37*
G74*
*
G75*
G36*
G01*
Y327116D02*
X163589Y326759D01*
X163768Y326536D01*
X164036Y326357D01*
X164348Y326313D01*
X164616Y326357D01*
X164884Y326446D01*
X165062Y326670D01*
X165196Y326893D01*
X165286Y327250D01*
X165330Y327652D01*
X165286Y327920D01*
X165241Y328232D01*
X165107Y328500D01*
X164929Y328723D01*
X164661Y328857D01*
X164348Y328902D01*
X164080Y328857D01*
X163857Y328723D01*
X163679Y328545D01*
X163545Y328232D01*
X163098Y328321D01*
X163277Y328723D01*
X163545Y328991D01*
X163902Y329214D01*
X164304Y329259D01*
X164705Y329214D01*
X165062Y329080D01*
X165375Y328813D01*
X165598Y328500D01*
X165732Y328098D01*
X165777Y327607D01*
X165732Y327161D01*
X165598Y326759D01*
X165420Y326402D01*
X165107Y326179D01*
X164750Y326000D01*
X164304Y325955D01*
X163857Y326000D01*
X163455Y326223D01*
X163187Y326536D01*
X163009Y327027D01*
X163455Y327116D01*
G37*
G74*
*
G75*
G36*
G01*
Y358116D02*
X163589Y357759D01*
X163768Y357536D01*
X164036Y357357D01*
X164348Y357313D01*
X164616Y357357D01*
X164884Y357446D01*
X165062Y357670D01*
X165196Y357893D01*
X165286Y358250D01*
X165330Y358652D01*
X165286Y358920D01*
X165241Y359232D01*
X165107Y359500D01*
X164929Y359723D01*
X164661Y359857D01*
X164348Y359902D01*
X164080Y359857D01*
X163857Y359723D01*
X163679Y359545D01*
X163545Y359232D01*
X163098Y359321D01*
X163277Y359723D01*
X163545Y359991D01*
X163902Y360214D01*
X164304Y360259D01*
X164705Y360214D01*
X165062Y360080D01*
X165375Y359813D01*
X165598Y359500D01*
X165732Y359098D01*
X165777Y358607D01*
X165732Y358161D01*
X165598Y357759D01*
X165420Y357402D01*
X165107Y357179D01*
X164750Y357000D01*
X164304Y356955D01*
X163857Y357000D01*
X163455Y357223D01*
X163187Y357536D01*
X163009Y358027D01*
X163455Y358116D01*
G37*
G74*
*
G75*
G36*
G01*
Y389116D02*
X163589Y388759D01*
X163768Y388536D01*
X164036Y388357D01*
X164348Y388313D01*
X164616Y388357D01*
X164884Y388446D01*
X165062Y388670D01*
X165196Y388893D01*
X165286Y389250D01*
X165330Y389652D01*
X165286Y389920D01*
X165241Y390232D01*
X165107Y390500D01*
X164929Y390723D01*
X164661Y390857D01*
X164348Y390902D01*
X164080Y390857D01*
X163857Y390723D01*
X163679Y390545D01*
X163545Y390232D01*
X163098Y390321D01*
X163277Y390723D01*
X163545Y390991D01*
X163902Y391214D01*
X164304Y391259D01*
X164705Y391214D01*
X165062Y391080D01*
X165375Y390813D01*
X165598Y390500D01*
X165732Y390098D01*
X165777Y389607D01*
X165732Y389161D01*
X165598Y388759D01*
X165420Y388402D01*
X165107Y388179D01*
X164750Y388000D01*
X164304Y387955D01*
X163857Y388000D01*
X163455Y388223D01*
X163187Y388536D01*
X163009Y389027D01*
X163455Y389116D01*
G37*
G74*
*
G75*
G36*
G01*
X169312Y400000D02*
X168911D01*
Y400759D01*
X168509D01*
Y401161D01*
X168911D01*
Y403170D01*
X169223D01*
X169312Y403051D01*
Y401161D01*
X170250D01*
X169312Y402411D01*
Y403051D01*
X170741Y401161D01*
Y400759D01*
X169312D01*
Y400000D01*
G37*
G74*
*
G75*
G36*
G01*
X171589Y403214D02*
Y401116D01*
X171634Y400893D01*
X171679Y400714D01*
X171768Y400580D01*
X172036Y400402D01*
X172437Y400357D01*
X172661D01*
X172884Y400446D01*
X173018Y400580D01*
X173107Y400759D01*
X173196Y401027D01*
Y403214D01*
X173643D01*
Y401339D01*
X173598Y400893D01*
X173509Y400536D01*
X173375Y400313D01*
X173107Y400089D01*
X172795Y400000D01*
X172393Y399955D01*
X171991Y400000D01*
X171634Y400134D01*
X171411Y400313D01*
X171232Y400580D01*
X171187Y400938D01*
X171143Y401339D01*
Y403214D01*
X171589D01*
G37*
G74*
*
G75*
G36*
G01*
X176062Y282563D02*
Y282161D01*
X175973Y281804D01*
X175884Y281491D01*
X175750Y281268D01*
X175437Y281045D01*
X175036Y280955D01*
X174723Y281000D01*
X174455Y281134D01*
X174277Y281357D01*
X174143Y281670D01*
X174054Y282071D01*
X174009Y282563D01*
Y283009D01*
X174098Y283321D01*
X174277Y283813D01*
X174411Y283991D01*
Y282205D01*
X174455Y281938D01*
X174500Y281714D01*
X174589Y281536D01*
X174812Y281357D01*
X175036Y281313D01*
X175259Y281357D01*
X175482Y281536D01*
X175571Y281714D01*
X175616Y281938D01*
X175661Y282205D01*
Y282920D01*
X175616Y283232D01*
X175571Y283455D01*
X175482Y283634D01*
X175259Y283813D01*
X175036Y283857D01*
X174768Y283813D01*
X174589Y283589D01*
X174500Y283455D01*
X174455Y283232D01*
X174411Y282920D01*
Y283991D01*
X174589Y284125D01*
X175036Y284214D01*
X175348Y284170D01*
X175616Y284036D01*
X175795Y283813D01*
X175929Y283500D01*
X176018Y283098D01*
X176062Y282563D01*
G37*
G74*
*
G75*
G36*
G01*
X174054Y241402D02*
X175616D01*
X175437Y241625D01*
X175259Y241759D01*
X174991Y241982D01*
X174634Y242295D01*
X174411Y242563D01*
X174277Y242741D01*
X174187Y242964D01*
X174098Y243321D01*
X174143Y243679D01*
X174366Y243946D01*
X174679Y244125D01*
X175080Y244214D01*
X175482Y244170D01*
X175795Y243991D01*
X176018Y243679D01*
X176107Y243321D01*
X175705Y243277D01*
X175661Y243500D01*
X175527Y243679D01*
X175348Y243813D01*
X175080Y243857D01*
X174857Y243813D01*
X174679Y243679D01*
X174545Y243545D01*
X174500Y243321D01*
X174545Y243098D01*
X174679Y242875D01*
X174946Y242563D01*
X175348Y242205D01*
X175661Y241938D01*
X176018Y241491D01*
X176107Y241268D01*
X176152Y241000D01*
X174054D01*
Y241402D01*
G37*
G74*
*
G75*
G36*
G01*
X177089Y241000D02*
Y244214D01*
X177357D01*
X177491Y243991D01*
X177714Y243768D01*
X177982Y243589D01*
X178295Y243411D01*
Y243009D01*
X177848Y243232D01*
X177491Y243500D01*
Y241000D01*
X177089D01*
G37*
G74*
*
G75*
G36*
G01*
Y281000D02*
Y284214D01*
X177357D01*
X177491Y283991D01*
X177714Y283768D01*
X177982Y283589D01*
X178295Y283411D01*
Y283009D01*
X177848Y283232D01*
X177491Y283500D01*
Y281000D01*
X177089D01*
G37*
G74*
*
G75*
G36*
G01*
X181643Y241000D02*
X181196D01*
Y242429D01*
X180482D01*
X180304Y242339D01*
X180214Y242250D01*
X180125Y242116D01*
X179991Y241938D01*
X179812Y241670D01*
X179411Y241000D01*
X178875D01*
X179411Y241893D01*
X179589Y242116D01*
X179768Y242295D01*
X179991Y242473D01*
X179634Y242563D01*
X179366Y242786D01*
X179187Y243009D01*
X179143Y243321D01*
X179187Y243589D01*
X179277Y243813D01*
X179411Y243991D01*
X179589Y244098D01*
Y243321D01*
X179679Y243054D01*
X179902Y242830D01*
X180080Y242786D01*
X181196D01*
Y243857D01*
X180214D01*
X179946Y243813D01*
X179723Y243723D01*
X179634Y243545D01*
X179589Y243321D01*
Y244098D01*
X179634Y244125D01*
X179857Y244170D01*
X180259Y244214D01*
X181643D01*
Y241000D01*
G37*
G74*
*
G75*
G36*
G01*
Y281000D02*
X181196D01*
Y282429D01*
X180482D01*
X180304Y282339D01*
X180214Y282250D01*
X180125Y282116D01*
X179991Y281938D01*
X179812Y281670D01*
X179411Y281000D01*
X178875D01*
X179411Y281893D01*
X179589Y282116D01*
X179768Y282295D01*
X179991Y282473D01*
X179634Y282563D01*
X179366Y282786D01*
X179187Y283009D01*
X179143Y283321D01*
X179187Y283589D01*
X179277Y283813D01*
X179411Y283991D01*
X179589Y284098D01*
Y283321D01*
X179679Y283054D01*
X179902Y282830D01*
X180080Y282786D01*
X181196D01*
Y283857D01*
X180214D01*
X179946Y283813D01*
X179723Y283723D01*
X179634Y283545D01*
X179589Y283321D01*
Y284098D01*
X179634Y284125D01*
X179857Y284170D01*
X180259Y284214D01*
X181643D01*
Y281000D01*
G37*
G74*
*
G75*
G36*
G01*
X218562Y200348D02*
X218473Y199991D01*
X218250Y199679D01*
X217937Y199500D01*
X217580Y199455D01*
X217134Y199545D01*
X216821Y199723D01*
X216598Y200080D01*
X216509Y200438D01*
X216554Y200750D01*
X216687Y200973D01*
X216866Y201152D01*
X217134Y201241D01*
X216777Y201509D01*
X216687Y201866D01*
X216777Y202313D01*
X217134Y202580D01*
X217357Y202670D01*
X217580Y202714D01*
X217937Y202670D01*
X218205Y202491D01*
X218384Y202223D01*
X218518Y201866D01*
X218116Y201821D01*
X218027Y202045D01*
X217937Y202223D01*
X217759Y202313D01*
X217580Y202357D01*
X217357Y202313D01*
X217223Y202223D01*
X217134Y202045D01*
X217089Y201866D01*
X217134Y201643D01*
X217268Y201509D01*
X217446Y201375D01*
X217759D01*
X217804Y201018D01*
X217536Y201063D01*
X217268Y201018D01*
X217089Y200884D01*
X216955Y200705D01*
X216911Y200438D01*
X216955Y200214D01*
X217089Y199991D01*
X217268Y199857D01*
X217536Y199813D01*
X217759Y199857D01*
X217937Y199946D01*
X218071Y200125D01*
X218161Y200393D01*
X218562Y200348D01*
G37*
G74*
*
G75*
G36*
G01*
X219589Y202714D02*
Y200616D01*
X219634Y200393D01*
X219679Y200214D01*
X219768Y200080D01*
X220036Y199902D01*
X220437Y199857D01*
X220661D01*
X220884Y199946D01*
X221018Y200080D01*
X221107Y200259D01*
X221196Y200527D01*
Y202714D01*
X221643D01*
Y200839D01*
X221598Y200393D01*
X221509Y200036D01*
X221375Y199813D01*
X221107Y199589D01*
X220795Y199500D01*
X220393Y199455D01*
X219991Y199500D01*
X219634Y199634D01*
X219411Y199813D01*
X219232Y200080D01*
X219187Y200438D01*
X219143Y200839D01*
Y202714D01*
X219589D01*
G37*
G74*
*
G75*
G36*
G01*
X224089Y295500D02*
Y298714D01*
X224357D01*
X224491Y298491D01*
X224714Y298268D01*
X224982Y298089D01*
X225295Y297911D01*
Y297509D01*
X224848Y297732D01*
X224491Y298000D01*
Y295500D01*
X224089D01*
G37*
G74*
*
G75*
G36*
G01*
X225782Y411741D02*
X226050Y411652D01*
X226229Y411473D01*
X226318Y411205D01*
X226362Y410938D01*
X226273Y410536D01*
X226095Y410223D01*
X225737Y410000D01*
X225336Y409955D01*
X224934Y410000D01*
X224577Y410223D01*
X224398Y410536D01*
X224309Y410938D01*
X224354Y411205D01*
X224443Y411429D01*
X224621Y411607D01*
X224711Y411652D01*
Y410938D01*
X224755Y410670D01*
X224889Y410491D01*
X225068Y410357D01*
X225336Y410313D01*
X225514D01*
X225648Y410402D01*
X225827Y410491D01*
X225916Y410625D01*
X225961Y410938D01*
X225916Y411161D01*
X225782Y411384D01*
X225604Y411518D01*
X225336Y411563D01*
X225068Y411518D01*
X224889Y411384D01*
X224755Y411161D01*
X224711Y410938D01*
Y411652D01*
X224889Y411741D01*
X224666Y411875D01*
X224532Y412009D01*
X224443Y412188D01*
X224398Y412366D01*
X224443Y412723D01*
X224666Y412991D01*
X224800Y413080D01*
Y412366D01*
X224845Y412188D01*
X224934Y412054D01*
X225112Y411964D01*
X225336Y411920D01*
X225559Y411964D01*
X225737Y412054D01*
X225827Y412188D01*
X225871Y412411D01*
X225827Y412589D01*
X225737Y412723D01*
X225559Y412813D01*
X225336Y412857D01*
X225112Y412813D01*
X224934Y412723D01*
X224845Y412545D01*
X224800Y412366D01*
Y413080D01*
X224934Y413170D01*
X225336Y413214D01*
X225737Y413170D01*
X226005Y412991D01*
X226229Y412723D01*
X226273Y412411D01*
X226229Y412188D01*
X226139Y412009D01*
X226005Y411875D01*
X225782Y411741D01*
G37*
G74*
*
G75*
G36*
G01*
X226455Y296616D02*
X226589Y296259D01*
X226768Y296036D01*
X227036Y295857D01*
X227348Y295813D01*
X227616Y295857D01*
X227884Y295946D01*
X228062Y296170D01*
X228196Y296393D01*
X228286Y296750D01*
X228330Y297152D01*
X228286Y297420D01*
X228241Y297732D01*
X228107Y298000D01*
X227929Y298223D01*
X227661Y298357D01*
X227348Y298402D01*
X227080Y298357D01*
X226857Y298223D01*
X226679Y298045D01*
X226545Y297732D01*
X226098Y297821D01*
X226277Y298223D01*
X226545Y298491D01*
X226902Y298714D01*
X227304Y298759D01*
X227705Y298714D01*
X228062Y298580D01*
X228375Y298313D01*
X228598Y298000D01*
X228732Y297598D01*
X228777Y297107D01*
X228732Y296661D01*
X228598Y296259D01*
X228420Y295902D01*
X228107Y295679D01*
X227750Y295500D01*
X227304Y295455D01*
X226857Y295500D01*
X226455Y295723D01*
X226187Y296036D01*
X226009Y296527D01*
X226455Y296616D01*
G37*
G74*
*
G75*
G36*
G01*
X227389Y410000D02*
Y413214D01*
X227657D01*
X227791Y412991D01*
X228014Y412768D01*
X228282Y412589D01*
X228595Y412411D01*
Y412009D01*
X228148Y412232D01*
X227791Y412500D01*
Y410000D01*
X227389D01*
G37*
G74*
*
G75*
G36*
G01*
X229755Y411116D02*
X229889Y410759D01*
X230068Y410536D01*
X230336Y410357D01*
X230648Y410313D01*
X230916Y410357D01*
X231184Y410446D01*
X231362Y410670D01*
X231496Y410893D01*
X231586Y411250D01*
X231630Y411652D01*
X231586Y411920D01*
X231541Y412232D01*
X231407Y412500D01*
X231229Y412723D01*
X230961Y412857D01*
X230648Y412902D01*
X230380Y412857D01*
X230157Y412723D01*
X229979Y412545D01*
X229845Y412232D01*
X229398Y412321D01*
X229577Y412723D01*
X229845Y412991D01*
X230202Y413214D01*
X230604Y413259D01*
X231005Y413214D01*
X231362Y413080D01*
X231675Y412813D01*
X231898Y412500D01*
X232032Y412098D01*
X232077Y411607D01*
X232032Y411161D01*
X231898Y410759D01*
X231720Y410402D01*
X231407Y410179D01*
X231050Y410000D01*
X230604Y409955D01*
X230157Y410000D01*
X229755Y410223D01*
X229487Y410536D01*
X229309Y411027D01*
X229755Y411116D01*
G37*
G74*
*
G75*
G36*
G01*
X233589Y273000D02*
Y276214D01*
X233857D01*
X233991Y275991D01*
X234214Y275768D01*
X234482Y275589D01*
X234795Y275411D01*
Y275009D01*
X234348Y275232D01*
X233991Y275500D01*
Y273000D01*
X233589D01*
G37*
G74*
*
G75*
G36*
G01*
X235554Y273402D02*
X237116D01*
X236937Y273625D01*
X236759Y273759D01*
X236491Y273982D01*
X236134Y274295D01*
X235911Y274563D01*
X235777Y274741D01*
X235687Y274964D01*
X235598Y275321D01*
X235643Y275679D01*
X235866Y275946D01*
X236179Y276125D01*
X236580Y276214D01*
X236982Y276170D01*
X237295Y275991D01*
X237518Y275679D01*
X237607Y275321D01*
X237205Y275277D01*
X237161Y275500D01*
X237027Y275679D01*
X236848Y275813D01*
X236580Y275857D01*
X236357Y275813D01*
X236179Y275679D01*
X236045Y275545D01*
X236000Y275321D01*
X236045Y275098D01*
X236179Y274875D01*
X236446Y274563D01*
X236848Y274205D01*
X237161Y273938D01*
X237518Y273491D01*
X237607Y273268D01*
X237652Y273000D01*
X235554D01*
Y273402D01*
G37*
G74*
*
G75*
G36*
G01*
X238455Y274116D02*
X238589Y273759D01*
X238768Y273536D01*
X239036Y273357D01*
X239348Y273313D01*
X239616Y273357D01*
X239884Y273446D01*
X240062Y273670D01*
X240196Y273893D01*
X240286Y274250D01*
X240330Y274652D01*
X240286Y274920D01*
X240241Y275232D01*
X240107Y275500D01*
X239929Y275723D01*
X239661Y275857D01*
X239348Y275902D01*
X239080Y275857D01*
X238857Y275723D01*
X238679Y275545D01*
X238545Y275232D01*
X238098Y275321D01*
X238277Y275723D01*
X238545Y275991D01*
X238902Y276214D01*
X239304Y276259D01*
X239705Y276214D01*
X240062Y276080D01*
X240375Y275813D01*
X240598Y275500D01*
X240732Y275098D01*
X240777Y274607D01*
X240732Y274161D01*
X240598Y273759D01*
X240420Y273402D01*
X240107Y273179D01*
X239750Y273000D01*
X239304Y272955D01*
X238857Y273000D01*
X238455Y273223D01*
X238187Y273536D01*
X238009Y274027D01*
X238455Y274116D01*
G37*
G74*
*
G75*
G36*
G01*
X259054Y161402D02*
X260616D01*
X260437Y161625D01*
X260259Y161759D01*
X259991Y161982D01*
X259634Y162295D01*
X259411Y162563D01*
X259277Y162741D01*
X259187Y162964D01*
X259098Y163321D01*
X259143Y163679D01*
X259366Y163946D01*
X259679Y164125D01*
X260080Y164214D01*
X260482Y164170D01*
X260795Y163991D01*
X261018Y163679D01*
X261107Y163321D01*
X260705Y163277D01*
X260661Y163500D01*
X260527Y163679D01*
X260348Y163813D01*
X260080Y163857D01*
X259857Y163813D01*
X259679Y163679D01*
X259545Y163545D01*
X259500Y163321D01*
X259545Y163098D01*
X259679Y162875D01*
X259946Y162563D01*
X260348Y162205D01*
X260661Y161938D01*
X261018Y161491D01*
X261107Y161268D01*
X261152Y161000D01*
X259054D01*
Y161402D01*
G37*
G74*
*
G75*
G36*
G01*
X262089Y161000D02*
Y164214D01*
X262357D01*
X262491Y163991D01*
X262714Y163768D01*
X262982Y163589D01*
X263295Y163411D01*
Y163009D01*
X262848Y163232D01*
X262491Y163500D01*
Y161000D01*
X262089D01*
G37*
G74*
*
G75*
G36*
G01*
X264455Y162116D02*
X264589Y161759D01*
X264768Y161536D01*
X265036Y161357D01*
X265348Y161313D01*
X265616Y161357D01*
X265884Y161446D01*
X266062Y161670D01*
X266196Y161893D01*
X266286Y162250D01*
X266330Y162652D01*
X266286Y162920D01*
X266241Y163232D01*
X266107Y163500D01*
X265929Y163723D01*
X265661Y163857D01*
X265348Y163902D01*
X265080Y163857D01*
X264857Y163723D01*
X264679Y163545D01*
X264545Y163232D01*
X264098Y163321D01*
X264277Y163723D01*
X264545Y163991D01*
X264902Y164214D01*
X265304Y164259D01*
X265705Y164214D01*
X266062Y164080D01*
X266375Y163813D01*
X266598Y163500D01*
X266732Y163098D01*
X266777Y162607D01*
X266732Y162161D01*
X266598Y161759D01*
X266420Y161402D01*
X266107Y161179D01*
X265750Y161000D01*
X265304Y160955D01*
X264857Y161000D01*
X264455Y161223D01*
X264187Y161536D01*
X264009Y162027D01*
X264455Y162116D01*
G37*
G74*
*
G75*
G36*
G01*
X276062Y183848D02*
X275973Y183491D01*
X275750Y183179D01*
X275437Y183000D01*
X275080Y182955D01*
X274812Y183000D01*
X274589Y183045D01*
X274411Y183179D01*
X274232Y183357D01*
X274054Y183670D01*
X274009Y184116D01*
X274054Y184518D01*
X274277Y184830D01*
X274589Y185054D01*
X274946Y185143D01*
X275259Y185098D01*
X275527Y184920D01*
X275393Y185768D01*
X274187D01*
Y186170D01*
X275705D01*
X276018Y184518D01*
X275616Y184473D01*
X275393Y184696D01*
X275080Y184786D01*
X274768Y184741D01*
X274589Y184607D01*
X274455Y184384D01*
X274411Y184071D01*
X274455Y183759D01*
X274589Y183536D01*
X274768Y183357D01*
X275080Y183313D01*
X275304Y183357D01*
X275482Y183446D01*
X275571Y183625D01*
X275661Y183893D01*
X276062Y183848D01*
G37*
G74*
*
G75*
G36*
G01*
Y205848D02*
X275973Y205491D01*
X275750Y205179D01*
X275437Y205000D01*
X275080Y204955D01*
X274634Y205045D01*
X274321Y205223D01*
X274098Y205580D01*
X274009Y205938D01*
X274054Y206250D01*
X274187Y206473D01*
X274366Y206652D01*
X274634Y206741D01*
X274277Y207009D01*
X274187Y207366D01*
X274277Y207813D01*
X274634Y208080D01*
X274857Y208170D01*
X275080Y208214D01*
X275437Y208170D01*
X275705Y207991D01*
X275884Y207723D01*
X276018Y207366D01*
X275616Y207321D01*
X275527Y207545D01*
X275437Y207723D01*
X275259Y207813D01*
X275080Y207857D01*
X274857Y207813D01*
X274723Y207723D01*
X274634Y207545D01*
X274589Y207366D01*
X274634Y207143D01*
X274768Y207009D01*
X274946Y206875D01*
X275259D01*
X275304Y206518D01*
X275036Y206563D01*
X274768Y206518D01*
X274589Y206384D01*
X274455Y206205D01*
X274411Y205938D01*
X274455Y205714D01*
X274589Y205491D01*
X274768Y205357D01*
X275036Y205313D01*
X275259Y205357D01*
X275437Y205446D01*
X275571Y205625D01*
X275661Y205893D01*
X276062Y205848D01*
G37*
G74*
*
G75*
G36*
G01*
X274589Y195000D02*
Y198214D01*
X274857D01*
X274991Y197991D01*
X275214Y197768D01*
X275482Y197589D01*
X275795Y197411D01*
Y197009D01*
X275348Y197232D01*
X274991Y197500D01*
Y195000D01*
X274589D01*
G37*
G74*
*
G75*
G36*
G01*
X277089Y183000D02*
Y186214D01*
X277357D01*
X277491Y185991D01*
X277714Y185768D01*
X277982Y185589D01*
X278295Y185411D01*
Y185009D01*
X277848Y185232D01*
X277491Y185500D01*
Y183000D01*
X277089D01*
G37*
G74*
*
G75*
G36*
G01*
Y195000D02*
Y198214D01*
X277357D01*
X277491Y197991D01*
X277714Y197768D01*
X277982Y197589D01*
X278295Y197411D01*
Y197009D01*
X277848Y197232D01*
X277491Y197500D01*
Y195000D01*
X277089D01*
G37*
G74*
*
G75*
G36*
G01*
Y205000D02*
Y208214D01*
X277357D01*
X277491Y207991D01*
X277714Y207768D01*
X277982Y207589D01*
X278295Y207411D01*
Y207009D01*
X277848Y207232D01*
X277491Y207500D01*
Y205000D01*
X277089D01*
G37*
G74*
*
G75*
G36*
G01*
X278554Y159366D02*
X278643Y159723D01*
X278866Y159991D01*
X279134Y160170D01*
X279491Y160214D01*
X279937Y160125D01*
X280295Y159857D01*
X280473Y159589D01*
X280562Y159277D01*
X280607Y158920D01*
X280652Y158518D01*
Y158116D01*
X280562Y157804D01*
X280473Y157536D01*
X280339Y157313D01*
X280161Y157134D01*
X279982Y157045D01*
X279759Y156955D01*
X279536D01*
X279268Y157000D01*
X279000Y157089D01*
X278777Y157268D01*
X278643Y157491D01*
X278554Y157759D01*
X278509Y158071D01*
X278598Y158473D01*
X278777Y158786D01*
X278911Y158881D01*
Y158027D01*
X278955Y157714D01*
X279089Y157491D01*
X279312Y157357D01*
X279536Y157313D01*
X279759D01*
X279893Y157402D01*
X280071Y157536D01*
X280161Y157670D01*
X280205Y157848D01*
X280250Y158071D01*
X280205Y158339D01*
X280071Y158563D01*
X279848Y158696D01*
X279580Y158741D01*
X279312Y158696D01*
X279089Y158563D01*
X278955Y158339D01*
X278911Y158027D01*
Y158881D01*
X279089Y159009D01*
X279446Y159098D01*
X279893Y159009D01*
X280071Y158875D01*
X280250Y158652D01*
X280205Y159098D01*
X280116Y159366D01*
X280027Y159589D01*
X279848Y159768D01*
X279491Y159857D01*
X279268Y159813D01*
X279089Y159679D01*
X279000Y159545D01*
X278955Y159321D01*
X278554Y159366D01*
G37*
G74*
*
G75*
G36*
G01*
X279455Y184116D02*
X279589Y183759D01*
X279768Y183536D01*
X280036Y183357D01*
X280348Y183313D01*
X280616Y183357D01*
X280884Y183446D01*
X281062Y183670D01*
X281196Y183893D01*
X281286Y184250D01*
X281330Y184652D01*
X281286Y184920D01*
X281241Y185232D01*
X281107Y185500D01*
X280929Y185723D01*
X280661Y185857D01*
X280348Y185902D01*
X280080Y185857D01*
X279857Y185723D01*
X279679Y185545D01*
X279545Y185232D01*
X279098Y185321D01*
X279277Y185723D01*
X279545Y185991D01*
X279902Y186214D01*
X280304Y186259D01*
X280705Y186214D01*
X281062Y186080D01*
X281375Y185813D01*
X281598Y185500D01*
X281732Y185098D01*
X281777Y184607D01*
X281732Y184161D01*
X281598Y183759D01*
X281420Y183402D01*
X281107Y183179D01*
X280750Y183000D01*
X280304Y182955D01*
X279857Y183000D01*
X279455Y183223D01*
X279187Y183536D01*
X279009Y184027D01*
X279455Y184116D01*
G37*
G74*
*
G75*
G36*
G01*
Y196116D02*
X279589Y195759D01*
X279768Y195536D01*
X280036Y195357D01*
X280348Y195313D01*
X280616Y195357D01*
X280884Y195446D01*
X281062Y195670D01*
X281196Y195893D01*
X281286Y196250D01*
X281330Y196652D01*
X281286Y196920D01*
X281241Y197232D01*
X281107Y197500D01*
X280929Y197723D01*
X280661Y197857D01*
X280348Y197902D01*
X280080Y197857D01*
X279857Y197723D01*
X279679Y197545D01*
X279545Y197232D01*
X279098Y197321D01*
X279277Y197723D01*
X279545Y197991D01*
X279902Y198214D01*
X280304Y198259D01*
X280705Y198214D01*
X281062Y198080D01*
X281375Y197813D01*
X281598Y197500D01*
X281732Y197098D01*
X281777Y196607D01*
X281732Y196161D01*
X281598Y195759D01*
X281420Y195402D01*
X281107Y195179D01*
X280750Y195000D01*
X280304Y194955D01*
X279857Y195000D01*
X279455Y195223D01*
X279187Y195536D01*
X279009Y196027D01*
X279455Y196116D01*
G37*
G74*
*
G75*
G36*
G01*
Y206116D02*
X279589Y205759D01*
X279768Y205536D01*
X280036Y205357D01*
X280348Y205313D01*
X280616Y205357D01*
X280884Y205446D01*
X281062Y205670D01*
X281196Y205893D01*
X281286Y206250D01*
X281330Y206652D01*
X281286Y206920D01*
X281241Y207232D01*
X281107Y207500D01*
X280929Y207723D01*
X280661Y207857D01*
X280348Y207902D01*
X280080Y207857D01*
X279857Y207723D01*
X279679Y207545D01*
X279545Y207232D01*
X279098Y207321D01*
X279277Y207723D01*
X279545Y207991D01*
X279902Y208214D01*
X280304Y208259D01*
X280705Y208214D01*
X281062Y208080D01*
X281375Y207813D01*
X281598Y207500D01*
X281732Y207098D01*
X281777Y206607D01*
X281732Y206161D01*
X281598Y205759D01*
X281420Y205402D01*
X281107Y205179D01*
X280750Y205000D01*
X280304Y204955D01*
X279857Y205000D01*
X279455Y205223D01*
X279187Y205536D01*
X279009Y206027D01*
X279455Y206116D01*
G37*
G74*
*
G75*
G36*
G01*
X283643Y157000D02*
X283196D01*
Y158429D01*
X282482D01*
X282304Y158339D01*
X282214Y158250D01*
X282125Y158116D01*
X281991Y157938D01*
X281812Y157670D01*
X281411Y157000D01*
X280875D01*
X281411Y157893D01*
X281589Y158116D01*
X281768Y158295D01*
X281991Y158473D01*
X281634Y158563D01*
X281366Y158786D01*
X281187Y159009D01*
X281143Y159321D01*
X281187Y159589D01*
X281277Y159813D01*
X281411Y159991D01*
X281589Y160098D01*
Y159321D01*
X281679Y159054D01*
X281902Y158830D01*
X282080Y158786D01*
X283196D01*
Y159857D01*
X282214D01*
X281946Y159813D01*
X281723Y159723D01*
X281634Y159545D01*
X281589Y159321D01*
Y160098D01*
X281634Y160125D01*
X281857Y160170D01*
X282259Y160214D01*
X283643D01*
Y157000D01*
G37*
G74*
*
G75*
G36*
G01*
X319089D02*
Y160214D01*
X319357D01*
X319491Y159991D01*
X319714Y159768D01*
X319982Y159589D01*
X320295Y159411D01*
Y159009D01*
X319848Y159232D01*
X319491Y159500D01*
Y157000D01*
X319089D01*
G37*
G74*
*
G75*
G36*
G01*
X323643D02*
X323196D01*
Y158429D01*
X322482D01*
X322304Y158339D01*
X322214Y158250D01*
X322125Y158116D01*
X321991Y157938D01*
X321812Y157670D01*
X321411Y157000D01*
X320875D01*
X321411Y157893D01*
X321589Y158116D01*
X321768Y158295D01*
X321991Y158473D01*
X321634Y158563D01*
X321366Y158786D01*
X321187Y159009D01*
X321143Y159321D01*
X321187Y159589D01*
X321277Y159813D01*
X321411Y159991D01*
X321589Y160098D01*
Y159321D01*
X321679Y159054D01*
X321902Y158830D01*
X322080Y158786D01*
X323196D01*
Y159857D01*
X322214D01*
X321946Y159813D01*
X321723Y159723D01*
X321634Y159545D01*
X321589Y159321D01*
Y160098D01*
X321634Y160125D01*
X321857Y160170D01*
X322259Y160214D01*
X323643D01*
Y157000D01*
G37*
G74*
*
G75*
G36*
G01*
X337562Y241848D02*
X337473Y241491D01*
X337250Y241179D01*
X336937Y241000D01*
X336580Y240955D01*
X336312Y241000D01*
X336089Y241045D01*
X335911Y241179D01*
X335732Y241357D01*
X335554Y241670D01*
X335509Y242116D01*
X335554Y242518D01*
X335777Y242830D01*
X336089Y243054D01*
X336446Y243143D01*
X336759Y243098D01*
X337027Y242920D01*
X336893Y243768D01*
X335687D01*
Y244170D01*
X337205D01*
X337518Y242518D01*
X337116Y242473D01*
X336893Y242696D01*
X336580Y242786D01*
X336268Y242741D01*
X336089Y242607D01*
X335955Y242384D01*
X335911Y242071D01*
X335955Y241759D01*
X336089Y241536D01*
X336268Y241357D01*
X336580Y241313D01*
X336804Y241357D01*
X336982Y241446D01*
X337071Y241625D01*
X337161Y241893D01*
X337562Y241848D01*
G37*
G74*
*
G75*
G36*
G01*
X335554Y288366D02*
X335643Y288723D01*
X335866Y288991D01*
X336134Y289170D01*
X336491Y289214D01*
X336937Y289125D01*
X337295Y288857D01*
X337473Y288589D01*
X337562Y288277D01*
X337607Y287920D01*
X337652Y287518D01*
Y287116D01*
X337562Y286804D01*
X337473Y286536D01*
X337339Y286313D01*
X337161Y286134D01*
X336982Y286045D01*
X336759Y285955D01*
X336536D01*
X336268Y286000D01*
X336000Y286089D01*
X335777Y286268D01*
X335643Y286491D01*
X335554Y286759D01*
X335509Y287071D01*
X335598Y287473D01*
X335777Y287786D01*
X335911Y287881D01*
Y287027D01*
X335955Y286714D01*
X336089Y286491D01*
X336312Y286357D01*
X336536Y286313D01*
X336759D01*
X336893Y286402D01*
X337071Y286536D01*
X337161Y286670D01*
X337205Y286848D01*
X337250Y287071D01*
X337205Y287339D01*
X337071Y287563D01*
X336848Y287696D01*
X336580Y287741D01*
X336312Y287696D01*
X336089Y287563D01*
X335955Y287339D01*
X335911Y287027D01*
Y287881D01*
X336089Y288009D01*
X336446Y288098D01*
X336893Y288009D01*
X337071Y287875D01*
X337250Y287652D01*
X337205Y288098D01*
X337116Y288366D01*
X337027Y288589D01*
X336848Y288768D01*
X336491Y288857D01*
X336268Y288813D01*
X336089Y288679D01*
X336000Y288545D01*
X335955Y288321D01*
X335554Y288366D01*
G37*
G74*
*
G75*
G36*
G01*
X338455Y242116D02*
X338589Y241759D01*
X338768Y241536D01*
X339036Y241357D01*
X339348Y241313D01*
X339616Y241357D01*
X339884Y241446D01*
X340062Y241670D01*
X340196Y241893D01*
X340286Y242250D01*
X340330Y242652D01*
X340286Y242920D01*
X340241Y243232D01*
X340107Y243500D01*
X339929Y243723D01*
X339661Y243857D01*
X339348Y243902D01*
X339080Y243857D01*
X338857Y243723D01*
X338679Y243545D01*
X338545Y243232D01*
X338098Y243321D01*
X338277Y243723D01*
X338545Y243991D01*
X338902Y244214D01*
X339304Y244259D01*
X339705Y244214D01*
X340062Y244080D01*
X340375Y243813D01*
X340598Y243500D01*
X340732Y243098D01*
X340777Y242607D01*
X340732Y242161D01*
X340598Y241759D01*
X340420Y241402D01*
X340107Y241179D01*
X339750Y241000D01*
X339304Y240955D01*
X338857Y241000D01*
X338455Y241223D01*
X338187Y241536D01*
X338009Y242027D01*
X338455Y242116D01*
G37*
G74*
*
G75*
G36*
G01*
Y287116D02*
X338589Y286759D01*
X338768Y286536D01*
X339036Y286357D01*
X339348Y286313D01*
X339616Y286357D01*
X339884Y286446D01*
X340062Y286670D01*
X340196Y286893D01*
X340286Y287250D01*
X340330Y287652D01*
X340286Y287920D01*
X340241Y288232D01*
X340107Y288500D01*
X339929Y288723D01*
X339661Y288857D01*
X339348Y288902D01*
X339080Y288857D01*
X338857Y288723D01*
X338679Y288545D01*
X338545Y288232D01*
X338098Y288321D01*
X338277Y288723D01*
X338545Y288991D01*
X338902Y289214D01*
X339304Y289259D01*
X339705Y289214D01*
X340062Y289080D01*
X340375Y288813D01*
X340598Y288500D01*
X340732Y288098D01*
X340777Y287607D01*
X340732Y287161D01*
X340598Y286759D01*
X340420Y286402D01*
X340107Y286179D01*
X339750Y286000D01*
X339304Y285955D01*
X338857Y286000D01*
X338455Y286223D01*
X338187Y286536D01*
X338009Y287027D01*
X338455Y287116D01*
G37*
G74*
*
G75*
G36*
G01*
X364982Y416741D02*
X365250Y416652D01*
X365429Y416473D01*
X365518Y416205D01*
X365562Y415938D01*
X365473Y415536D01*
X365295Y415223D01*
X364937Y415000D01*
X364536Y414955D01*
X364134Y415000D01*
X363777Y415223D01*
X363598Y415536D01*
X363509Y415938D01*
X363554Y416205D01*
X363643Y416429D01*
X363821Y416607D01*
X363911Y416652D01*
Y415938D01*
X363955Y415670D01*
X364089Y415491D01*
X364268Y415357D01*
X364536Y415313D01*
X364714D01*
X364848Y415402D01*
X365027Y415491D01*
X365116Y415625D01*
X365161Y415938D01*
X365116Y416161D01*
X364982Y416384D01*
X364804Y416518D01*
X364536Y416563D01*
X364268Y416518D01*
X364089Y416384D01*
X363955Y416161D01*
X363911Y415938D01*
Y416652D01*
X364089Y416741D01*
X363866Y416875D01*
X363732Y417009D01*
X363643Y417188D01*
X363598Y417366D01*
X363643Y417723D01*
X363866Y417991D01*
X364000Y418080D01*
Y417366D01*
X364045Y417188D01*
X364134Y417054D01*
X364312Y416964D01*
X364536Y416920D01*
X364759Y416964D01*
X364937Y417054D01*
X365027Y417188D01*
X365071Y417411D01*
X365027Y417589D01*
X364937Y417723D01*
X364759Y417813D01*
X364536Y417857D01*
X364312Y417813D01*
X364134Y417723D01*
X364045Y417545D01*
X364000Y417366D01*
Y418080D01*
X364134Y418170D01*
X364536Y418214D01*
X364937Y418170D01*
X365205Y417991D01*
X365429Y417723D01*
X365473Y417411D01*
X365429Y417188D01*
X365339Y417009D01*
X365205Y416875D01*
X364982Y416741D01*
G37*
G74*
*
G75*
G36*
G01*
X366455Y416116D02*
X366589Y415759D01*
X366768Y415536D01*
X367036Y415357D01*
X367348Y415313D01*
X367616Y415357D01*
X367884Y415446D01*
X368062Y415670D01*
X368196Y415893D01*
X368286Y416250D01*
X368330Y416652D01*
X368286Y416920D01*
X368241Y417232D01*
X368107Y417500D01*
X367929Y417723D01*
X367661Y417857D01*
X367348Y417902D01*
X367080Y417857D01*
X366857Y417723D01*
X366679Y417545D01*
X366545Y417232D01*
X366098Y417321D01*
X366277Y417723D01*
X366545Y417991D01*
X366902Y418214D01*
X367304Y418259D01*
X367705Y418214D01*
X368062Y418080D01*
X368375Y417813D01*
X368598Y417500D01*
X368732Y417098D01*
X368777Y416607D01*
X368732Y416161D01*
X368598Y415759D01*
X368420Y415402D01*
X368107Y415179D01*
X367750Y415000D01*
X367304Y414955D01*
X366857Y415000D01*
X366455Y415223D01*
X366187Y415536D01*
X366009Y416027D01*
X366455Y416116D01*
G37*
G74*
*
G75*
G36*
G01*
X383062Y397563D02*
Y397161D01*
X382973Y396804D01*
X382884Y396491D01*
X382750Y396268D01*
X382437Y396045D01*
X382036Y395955D01*
X381723Y396000D01*
X381455Y396134D01*
X381277Y396357D01*
X381143Y396670D01*
X381054Y397071D01*
X381009Y397563D01*
Y398009D01*
X381098Y398321D01*
X381277Y398813D01*
X381411Y398991D01*
Y397205D01*
X381455Y396938D01*
X381500Y396714D01*
X381589Y396536D01*
X381812Y396357D01*
X382036Y396313D01*
X382259Y396357D01*
X382482Y396536D01*
X382571Y396714D01*
X382616Y396938D01*
X382661Y397205D01*
Y397920D01*
X382616Y398232D01*
X382571Y398455D01*
X382482Y398634D01*
X382259Y398813D01*
X382036Y398857D01*
X381768Y398813D01*
X381589Y398589D01*
X381500Y398455D01*
X381455Y398232D01*
X381411Y397920D01*
Y398991D01*
X381589Y399125D01*
X382036Y399214D01*
X382348Y399170D01*
X382616Y399036D01*
X382795Y398813D01*
X382929Y398500D01*
X383018Y398098D01*
X383062Y397563D01*
G37*
G74*
*
G75*
G36*
G01*
X384089Y396000D02*
Y399214D01*
X384357D01*
X384491Y398991D01*
X384714Y398768D01*
X384982Y398589D01*
X385295Y398411D01*
Y398009D01*
X384848Y398232D01*
X384491Y398500D01*
Y396000D01*
X384089D01*
G37*
G74*
*
G75*
G36*
G01*
X386455Y397116D02*
X386589Y396759D01*
X386768Y396536D01*
X387036Y396357D01*
X387348Y396313D01*
X387616Y396357D01*
X387884Y396446D01*
X388062Y396670D01*
X388196Y396893D01*
X388286Y397250D01*
X388330Y397652D01*
X388286Y397920D01*
X388241Y398232D01*
X388107Y398500D01*
X387929Y398723D01*
X387661Y398857D01*
X387348Y398902D01*
X387080Y398857D01*
X386857Y398723D01*
X386679Y398545D01*
X386545Y398232D01*
X386098Y398321D01*
X386277Y398723D01*
X386545Y398991D01*
X386902Y399214D01*
X387304Y399259D01*
X387705Y399214D01*
X388062Y399080D01*
X388375Y398813D01*
X388598Y398500D01*
X388732Y398098D01*
X388777Y397607D01*
X388732Y397161D01*
X388598Y396759D01*
X388420Y396402D01*
X388107Y396179D01*
X387750Y396000D01*
X387304Y395955D01*
X386857Y396000D01*
X386455Y396223D01*
X386187Y396536D01*
X386009Y397027D01*
X386455Y397116D01*
G37*
G74*
*
*
G04 PC Custom Flashes*
G04 Layer Name MCA.pcb - flashes*
%LPD*%
*
*
G04 PC Circuitry*
G04 Layer Name MCA.pcb - circuitry*
%LPD*%
*
G54D10*
G01X210700Y292700D02*
X202700D01*
Y301700*
X210700*
X213700Y292700D02*
X221700D01*
Y301700*
X213700*
X380500Y385500D02*
Y393500D01*
X389500*
Y385500*
X380500Y382500D02*
Y374500D01*
X389500*
Y382500*
X260500Y191500D02*
X252500D01*
Y200500*
X260500*
X263500Y191500D02*
X271500D01*
Y200500*
X263500*
X260500Y166500D02*
X252500D01*
Y175500*
X260500*
X263500Y166500D02*
X271500D01*
Y175500*
X263500*
Y211500D02*
X271500D01*
Y202500*
X263500*
X260500Y211500D02*
X252500D01*
Y202500*
X260500*
X176500Y191500D02*
X168500D01*
Y200500*
X176500*
X179500Y191500D02*
X187500D01*
Y200500*
X179500*
X260500Y180500D02*
X252500D01*
Y189500*
X260500*
X263500Y180500D02*
X271500D01*
Y189500*
X263500*
X160500Y428500D02*
X168500D01*
Y419500*
X160500*
X157500Y428500D02*
X149500D01*
Y419500*
X157500*
X160500Y440500D02*
X168500D01*
Y431500*
X160500*
X157500Y440500D02*
X149500D01*
Y431500*
X157500*
X210800Y406500D02*
X202800D01*
Y415500*
X210800*
X213800Y406500D02*
X221800D01*
Y415500*
X213800*
X322000Y238500D02*
X314000D01*
Y247500*
X322000*
X325000Y238500D02*
X333000D01*
Y247500*
X325000*
X322000Y282500D02*
X314000D01*
Y291500*
X322000*
X325000Y282500D02*
X333000D01*
Y291500*
X325000*
X359500Y398000D02*
Y412000D01*
X372500*
Y398000*
X359500Y386000D02*
Y373500D01*
X361000Y372000*
X371000*
X372500Y373500*
Y386000*
X316500Y173500D02*
Y181500D01*
X325500*
Y173500*
X316500Y170500D02*
Y162500D01*
X325500*
Y170500*
X276500Y173500D02*
Y181500D01*
X285500*
Y173500*
X276500Y170500D02*
Y162500D01*
X285500*
Y170500*
X164500Y287500D02*
X172500D01*
Y278500*
X164500*
X161500Y287500D02*
X153500D01*
Y278500*
X161500*
X164500Y247500D02*
X172500D01*
Y238500*
X164500*
X161500Y247500D02*
X153500D01*
Y238500*
X161500*
X210750Y269000D02*
X200750D01*
Y281000*
X210750*
X223250Y269000D02*
X231300D01*
Y281000*
X223250*
X201678Y269123D02*
Y280991D01*
X202672Y269288D02*
Y280801D01*
X144500Y385500D02*
X136500D01*
Y394500*
X144500*
X147500Y385500D02*
X155500D01*
Y394500*
X147500*
X144500Y353500D02*
X136500D01*
Y362500*
X144500*
X147500Y353500D02*
X155500D01*
Y362500*
X147500*
X144500Y322500D02*
X136500D01*
Y331500*
X144500*
X147500Y322500D02*
X155500D01*
Y331500*
X147500*
X146953Y409524D02*
X145525Y410952D01*
X137000Y409500D02*
Y411000D01*
X147000*
Y409500*
Y398500D02*
Y397000D01*
X137000*
Y398500*
X146953Y377524D02*
X145525Y378952D01*
X137000Y377500D02*
Y379000D01*
X147000*
Y377500*
Y366500D02*
Y365000D01*
X137000*
Y366500*
X146953Y346524D02*
X145525Y347952D01*
X137000Y346500D02*
Y348000D01*
X147000*
Y346500*
Y335500D02*
Y334000D01*
X137000*
Y335500*
G54D12*
X224500Y196000D02*
G75*
G03X224500I-1000J0D01*
G01X225500Y198000D02*
Y159000D01*
X212500*
Y198000*
X225500*
X194000Y397500D02*
G03X194000I-1250J0D01*
G01X194500Y395500D02*
X175500D01*
Y406500*
X194500*
Y395500*
G54D13*
X357187Y370977D02*
X360000D01*
X358594Y372000D02*
Y369955D01*
G54D31*
X100000Y99900D02*
X400000D01*
Y500000*
X100000*
Y99900*
X126000Y120000D02*
G03X126000I-6000J0D01*
G01X386000D02*
G03X386000I-6000J0D01*
G01Y480000D02*
G03X386000I-6000J0D01*
G01X126000D02*
G03X126000I-6000J0D01*
G74*
G01X0Y0D02*
M02*
